<svg clip-rule="evenodd" fill-rule="evenodd" height="512" image-rendering="optimizeQuality" shape-rendering="geometricPrecision" text-rendering="geometricPrecision" viewBox="0 0 43.3492 43.3492" width="512" xmlns="http://www.w3.org/2000/svg"><g id="Layer_x0020_1"><g id="_308809960"><path id="_308812024" d="m7.7108 24.9382c-.2614 0-.4735-.2118-.4735-.4731l.0001-4.7108c0-.2614.2119-.4733.4732-.4733.2615-.0001.4732.212.4732.4734l.0003 4.7106c0 .2613-.2123.4733-.4733.4732z"/><path id="_308811472" d="m35.6396 43.3492h-27.9288c-.2614 0-.4735-.2119-.4735-.4732l.0001-3.5299c0-.2613.2119-.4731.4732-.4731.2615 0 .4732.2118.4732.4732l.0003 3.0565h26.9826v-3.4072c0-.2613.2106-.4732.4729-.4732.2613 0 .4731.212.4731.4733l.0003 3.8804c0 .1252-.0506.2455-.1393.3342-.0883.0887-.2089.1391-.3341.139z"/><path id="_308811664" d="m35.6396 24.9071c-.2622 0-.4733-.2118-.4733-.4732l.0004-4.6796c0-.2614.2106-.4732.4729-.4732.2613 0 .4731.2119.4731.4733l.0003 4.6795c0 .2613-.2122.4732-.4734.4732z"/><path id="_308811448" d="m21.675 5.3169c.121 0 .2421.0462.3348.1386l15.0654 15.0653 1.9893-1.9892-17.3895-17.3892-17.3892 17.3892 1.9893 1.9892 15.0653-15.0654c.0928-.0924.2138-.1384.3346-.1385zm15.4002 16.3463c-.1211 0-.2427-.0461-.3345-.1385l-15.0657-15.0653-15.0654 15.0653c-.1845.1847-.4843.1848-.6697 0l-2.6576-2.6584c-.1846-.1849-.1847-.4845-.0003-.6692l18.0584-18.0586c.1845-.1847.484-.1847.6694.0001l18.0587 18.0584c.0887.0887.1386.2091.1386.3347.0002.1254-.0503.2459-.139.3346l-2.6588 2.6584c-.0914.0924-.213.1386-.3341.1385z"/><path id="_308811376" d="m12.5447 10.077c-.2613 0-.4736-.2119-.4736-.4732l.0002-5.9081c0-.2613.2118-.4731.473-.4731.2617-.0001.4733.2118.4733.4732v5.9079c0 .2613-.212.4733-.4729.4733zm-4.8339 4.8338c-.2614 0-.4735-.2119-.4735-.4733l.0001-10.7418c0-.2613.2119-.4731.4732-.4731.2615-.0001.4732.2118.4732.4732l.0003 10.7416c0 .2615-.2123.4734-.4733.4734z"/><path id="_308811760" d="m6.5732 3.2225h7.109v-2.2761h-7.109zm7.5824.9466h-8.0557c-.2613 0-.4735-.212-.4735-.4733l.0001-3.2226c0-.2613.2118-.4731.4731-.4731l8.056-.0001c.2622 0 .4728.2119.4728.4732l.0001 3.2225c0 .2614-.211.4734-.4729.4734z"/><path id="_308812048" d="m17.5016 20.4698h8.3472v-4.1557h-8.3472zm8.8205.9466h-9.2939c-.2613 0-.4733-.2118-.4733-.4732l.0004-5.1024c0-.2613.2115-.4731.4728-.4731l9.294-.0001c.2613 0 .4731.2119.4731.4733l.0003 5.1023c0 .2613-.2122.4733-.4734.4732z"/><path id="_308811688" d="m3.3373 35.5888c1.6308 2.3478 2.7259 3.1413 4.6355 3.3084 2.052-3.8438 3.1134-8.1569 3.0809-12.5139-4.74-1.7548-6.6823-3.2355-7.7165-4.2205zm4.9067 4.2754c-.0076 0-.0169-.001-.0247-.001-2.4615-.1312-3.8046-1.0327-5.7447-3.859-.0539-.0789-.0838-.1723-.0838-.2679l.0002-14.7265c0-.1904.1141-.3623.2896-.4361.1758-.0737.3786-.0353.5146.098.0889.0868.1824.1841.2849.2915.855.8911 2.444 2.55 8.2035 4.6432.1836.0667.3076.2398.3116.4353.0948 4.7323-1.0589 9.4271-3.3362 13.576-.0827.1528-.2425.2465-.415.2465z"/><path id="_308811808" d="m10.3784 40.0159c-.0218 0-.0444-.0009-.0671-.0048-.763-.1095-1.4788-.4742-2.0171-1.0257-.1824-.1872-.1785-.4868.0089-.6692.1867-.1826.486-.1788.6684.0084.3355.3427.763.5868 1.2264.7016 2.5211-2.9967 3.7237-6.9009 3.3264-10.7958l-2.1548-.7436c-.2476-.0853-.3789-.3545-.2932-.6016.0851-.2471.354-.3782.6014-.293l2.4384.8409c.1704.0589.2925.2103.3152.3898.5326 4.3476-.8143 8.7329-3.6961 12.0314-.0906.1035-.2208.1617-.3568.1616z"/><path id="_308811088" d="m40.4855 35.2742h.0009zm-7.7917-9.0837c2.6521 5.5551 3.4672 9.6522 2.4755 12.4619 2.5084-.7945 3.3953-1.7423 4.8426-3.5443l.0002-13.2025c-3.2443 2.7504-5.3624 3.6702-7.3183 4.2849zm1.6197 13.6737c-.1446 0-.2849-.0671-.3756-.1863-.116-.1519-.1302-.3576-.0345-.5231 1.4633-2.5479.6891-6.9379-2.302-13.048-.0611-.1253-.0641-.271-.0079-.3985.0563-.1277.1656-.2239.2987-.2635 2.1573-.6375 4.4138-1.4942 8.2784-4.9306.1401-.1239.3392-.1545.5088-.078.1699.0762.2789.2453.2789.4317l.0001 14.4063c0 .1076-.0365.212-.1035.2959-1.7753 2.2176-2.7901 3.326-6.4211 4.2783-.0404.0098-.0809.0158-.1203.0158z"/><path id="_308811016" d="m33.5163 38.2309c-.2063 0-.4135-.0246-.6175-.075-.2534-.0626-.4082-.3179-.3471-.5712.7517-3.0871-.0966-6.468-2.5179-10.0488-.0796-.1176-.1015-.2645-.0611-.4005.0406-.136.14-.2465.2701-.3012l1.8831-.7876c.2418-.1008.5186.013.6191.2541.1009.2409-.0129.5182-.2544.6191l-1.3554.5673c2.2063 3.4389 3.0285 6.7291 2.4498 9.7962.4145-.017.8143-.1895 1.111-.4919.1828-.1867.4821-.1899.6685-.0069.1876.1828.1903.4825.0069.6692-.4918.5021-1.1664.7772-1.8551.7772z"/><path id="_308810800" d="m14.0251 28.9782c-.1814 0-.3539-.1043-.4328-.2803-.1062-.2387.001-.5184.2396-.625.4075-.1821.9553-.4883 1.5902-.8428 2.5271-1.4122 5.9873-3.3459 7.8604-1.708.1963.1721.2169.4711.0444.6678-.1715.1967-.4713.2167-.6675.0446-1.37-1.1987-4.6238.619-6.7759 1.8217-.6543.3656-1.2196.6815-1.6661.8808-.0618.0279-.1282.0413-.1923.0412z"/><path id="_308811208" d="m13.8331 37.8988c-.0728 0-.1471-.0168-.2161-.0524-.4348-.2231-1.0904-.5601-1.5242-1.0525-.1723-.1963-.1538-.4953.0424-.668.1966-.1727.4949-.1537.6674.0425.3157.3579.8754.6458 1.2462.8362.2328.1193.3243.4046.2051.6371-.0837.1632-.2495.2571-.4208.2571z"/><path id="_308811184" d="m17.9887 32.4506c-.3718 0-.7003-.0971-.9616-.2792-.5805-.4055-.6792-1.1445-.2395-1.797.0121-.0175.0246-.0341.0384-.0499.0851-.0946.1626-.2073.2396-.3445.1609-.2863.2859-.6291.4061-.9607.2832-.7735.5738-1.5732 1.3694-1.7142.0122-.0023.0247-.0039.0375-.0051.0258-.0032.2011-.032 1.0145-.2937.017-.0053.0335-.0097.0503-.0131.6943-.1428 1.673-.6869 2.9103-1.6178.6224-.607 1.745-1.0015 3.5875.4731.0318.0249.0592.0536.0829.0854.1006.1334.7237.6478 4.5321 1.6648.2525.0673.4032.3268.3352.5793-.0667.2526-.3263.4025-.5787.3351-3.7412-.9989-4.6722-1.5708-5.0024-1.957-1.5662-1.2372-2.1256-.6742-2.3109-.4883-.0158.0159-.0325.0307-.0502.0442-1.3675 1.0313-2.4441 1.6215-3.2899 1.8028-.7749.2488-1.0332.308-1.1634.3243-.253.0579-.4466.5899-.6349 1.1045-.1341.3669-.2721.7464-.4703 1.0993-.1034.1853-.2129.3437-.3332.4834-.1349.2114-.1321.3692.0108.4689.4026.2803 1.6672.092 2.9054-1.6239.152-.2098.4437-.2591.6556-.1108.3136.2194 2.1197.0649 2.729-.6447.097-.1127.2395-.1732.3884-.1641.1482.0093.283.0878.3648.2117 1.3251 2.0065 1.9244 2.6807 4.7174 2.2883.2593-.0362.4989.1441.5343.4028.0369.2588-.1439.4982-.4022.5345-2.9929.4201-4.0037-.3182-5.3434-2.2646-.8673.5681-2.2646.7992-3.0986.594-1.0175 1.278-2.1453 1.8322-3.0303 1.8322z"/><path id="_308811112" d="m31.2093 36.3549c-.35 0-.651-.0722-.9053-.2167-.2264-.1293-.3067-.4182-.1765-.6453.1293-.2272.418-.3068.6447-.1775.2259.1283.8272.2374 2.3179-.4728.2358-.1124.5175-.0124.6309.2237.1125.2359.0118.5183-.2238.6308-.9228.4393-1.6799.658-2.2879.6578z"/><path id="_308810992" d="m30.9578 35.136h.0009zm-1.5262 1.7981c-.2896 0-.6262-.0763-1.0117-.27-.2336-.1175-.3273-.402-.2099-.6355.1174-.2334.4022-.3276.6358-.21.5761.2896.8508.1472 1.0253-.0177.2043-.2358.4319-.5398.6773-.9043.1223-.2466.1637-.449.1164-.572-.0522-.1371-.2406-.2332-.3895-.2897-.0167-.0064-.0335-.0136-.0492-.0217-.747-.3856-1.541-.9725-2.3583-1.7446-.1899-.1796-.1991-.4791-.0197-.6689.1807-.1902.4792-.1987.6694-.0192.7446.7033 1.4581 1.2348 2.1207 1.58.4633.1821.77.4592.9099.8241.151.3923.0947.8524-.1696 1.367-.0077.0166-.0177.0327-.0276.048-.2786.4162-.5412.7656-.7798 1.0387-.0077.0092-.0167.0183-.0256.027-.2475.2419-.6122.4687-1.1139.4688z"/><path id="_308811328" d="m28.6322 36.7146c-.071 0-.1443-.0162-.2123-.0507-2.1222-1.0701-3.4397-1.9091-4.0272-2.565-.1744-.1947-.1578-.494.0374-.6683.1942-.1744.4929-.1579.6674.0367.3444.3839 1.2738 1.1037 3.7483 2.3515.234.1177.3273.4023.2091.6356-.0824.165-.2495.2603-.4227.2602z"/><path id="_308810632" d="m28.1699 38.776c-.2715 0-.6086-.072-1.0277-.2568-1.6107-.4133-2.8856-.9396-3.7907-1.5646-.2147-.1487-.2681-.4434-.1202-.6584.149-.215.4436-.2687.6586-.1202.8196.5659 2.0052 1.0492 3.5254 1.4361.0279.0068.0534.016.0788.0276.1208.0546.7287.3171.8253.1141.012-.0252.0267-.0493.0423-.072.0842-.1174.2407-.443.354-1.307.0336-.2592.2692-.4421.5304-.4078.2596.0339.4417.2714.4082.5306-.1065.8104-.2652 1.3525-.4989 1.6996-.1351.2618-.4161.5788-.9855.5788z"/><path id="_308811136" d="m26.0794 40.2653c-.4237 0-.8842-.1349-1.3762-.4051-1.1197-.5859-1.8298-1.0183-2.17-1.3224-.1941-.1744-.2109-.4734-.0364-.6683.1737-.1947.4732-.2115.6674-.0372.1913.1706.6901.5158 1.9817 1.1911.0032.0015.0059.0032.0088.0048.494.2722.906.3529 1.2235.2406.1972-.171.488-.526.8271-1.2623.1097-.2373.3905-.3411.628-.2319.2376.1094.3412.3905.2317.6278-.3636.7901-.7404 1.3306-1.1515 1.6511-.0315.0245-.065.0453-.1015.0611-.2295.1005-.4752.1508-.7326.1507z"/><path id="_308810392" d="m23.2747 41.1862c-.6623 0-1.3103-.2671-1.8851-.7808-.1938-.1745-.211-.4742-.0364-.6684.1735-.1952.4732-.212.6674-.0375.4409.3944.904.5738 1.3782.5354.5356-.0444 1.0727-.3697 1.5123-.9171.1648-.2037.4625-.236.6655-.0722.2043.1638.2367.4618.073.6659-.6052.7512-1.3763 1.2008-2.1729 1.2659-.0667.0059-.135.0088-.202.0088z"/><path id="_308809912" d="m16.1578 40.2674c-.4308 0-.8451-.1538-1.1813-.4574-.5383-.4877-.7108-1.2282-.419-1.8012.0049-.0113.0118-.022.0177-.0328 1.0591-1.7293 1.9196-2.5062 2.793-2.5192.0082-.0001.0148-.0002.0227-.0002.8542 0 1.4335.7337 1.7953 1.288.1432.2186.0818.5119-.137.655-.2189.143-.5117.0816-.6546-.1372-.3753-.5746-.7148-.8653-1.0125-.8592-.3362.0049-.9544.365-1.9876 2.0475-.0854.1899.0039.4638.2179.6577.1452.1316.5452.3979 1.1199.0305.2209-.1409.5137-.0761.6537.144.1413.2204.0769.5133-.1439.6533-.3461.2217-.7207.3312-1.0843.3312z"/><path id="_308809840" d="m19.1142 37.3496c-.3882.3995-.9149 1.1018-1.5685 2.0877-.3321.4998.1518.8774.2524.9474.2367.1676.7719.3648 1.1022-.0798.6309-.8473 1.0865-1.6378 1.3535-2.3508.0081-.1011-.0236-.2969-.5027-.5225-.0078-.0035-.0148-.0071-.0217-.011-.4-.2145-.5491-.1259-.6152-.071zm-.7431 4.1698c-.3993 0-.7988-.136-1.1182-.3598-.7974-.562-1.0017-1.4847-.4959-2.2456.7042-1.0622 1.258-1.7957 1.6947-2.2416.0099-.0095.0188-.0182.0286-.0267.3149-.2717.8607-.5023 1.6849-.0651 1.0315.4906 1.0795 1.193 1.0165 1.5687-.005.0285-.0119.0565-.0218.0836-.2964.8109-.8015 1.6983-1.5005 2.6369l.0001-.0001c-.3412.4585-.8153.6498-1.2884.6497z"/><path id="_308809816" d="m20.0814 41.9236c-.402 0-.8627-.1951-1.4315-.6703-.2012-.1677-.2278-.4653-.0601-.6665.1677-.2001.4652-.2267.6664-.0601.5443.4545.764.4722.8833.4466.2249-.0504.5206-.3461.8943-.7759.3026-.3461.4909-.8225.413-1.0398-.0372-.1042-.137-.3805-.834-.4229-.2613-.016-.4595-.2403-.4437-.5012.0161-.2609.2406-.4597.5008-.4435 1.0898.0662 1.5084.6055 1.6672 1.0462.2464.6828-.1637 1.4953-.5896 1.9833-.5451.6249-1.0352 1.1042-1.6661 1.1041z"/><path id="_308810512" d="m14.9098 39.2828c-.0573 0-.1157-.0104-.1719-.0324-.7678-.2996-1.2136-.6963-1.3615-1.213-.2106-.7348.2888-1.4038.5876-1.8036.0239-.0321.0473-.0627.068-.0919.6706-.9144 1.466-1.3581 2.1838-1.2176.5178.1015.9099.4961 1.0509 1.0557.0632.2535-.0907.5106-.3441.5741-.2533.0633-.5107-.0905-.5747-.3441-.0287-.1159-.1085-.3165-.3145-.3569-.2612-.0509-.7227.1449-1.2383.8484-.0224.0312-.0474.0643-.0729.0987-.2059.2759-.5176.6929-.4358.9768.0582.2042.3411.4143.7946.5915.2436.0949.3648.3692.2691.6128-.0725.187-.2514.3015-.4403.3015z"/></g></g></svg>