<svg xmlns="http://www.w3.org/2000/svg" width="38.568" height="43.35" viewBox="0 0 38.568 43.35">
  <g id="Layer_x0020_1" transform="translate(-2.391)">
    <g id="_308809960">
      <path id="_308812024" d="M7.711,24.938a.473.473,0,0,1-.474-.473V19.754a.473.473,0,1,1,.946,0v4.711a.473.473,0,0,1-.473.473Z" fill="#07c7a2" fill-rule="evenodd"/>
      <path id="_308811472" d="M35.64,43.349H7.711a.473.473,0,0,1-.474-.473v-3.53a.473.473,0,0,1,.946,0V42.4H35.167V39a.473.473,0,1,1,.946,0v3.88a.475.475,0,0,1-.473.473Z" fill="#07c7a2" fill-rule="evenodd"/>
      <path id="_308811664" d="M35.64,24.907a.473.473,0,0,1-.473-.473v-4.68a.473.473,0,1,1,.946,0v4.68a.473.473,0,0,1-.473.473Z" fill="#07c7a2" fill-rule="evenodd"/>
      <path id="_308811448" d="M21.675,5.317a.473.473,0,0,1,.335.139L37.075,20.521l1.989-1.989L21.675,1.142,4.286,18.532l1.989,1.989L21.34,5.455a.473.473,0,0,1,.335-.139Zm15.4,16.346a.47.47,0,0,1-.334-.139L21.675,6.459,6.61,21.525a.474.474,0,0,1-.67,0L3.282,18.866a.474.474,0,0,1,0-.669L21.34.139a.474.474,0,0,1,.669,0L40.068,18.2a.473.473,0,0,1,0,.669l-2.659,2.658a.468.468,0,0,1-.334.139Z" fill="#07c7a2" fill-rule="evenodd"/>
      <path id="_308811376" d="M12.545,10.077a.474.474,0,0,1-.474-.473V3.7a.473.473,0,1,1,.946,0V9.6a.473.473,0,0,1-.473.473ZM7.711,14.911a.473.473,0,0,1-.473-.473V3.7a.473.473,0,0,1,.946,0V14.437a.474.474,0,0,1-.473.473Z" fill="#07c7a2" fill-rule="evenodd"/>
      <path id="_308811760" d="M6.573,3.223h7.109V.946H6.573Zm7.582.947H6.1A.474.474,0,0,1,5.626,3.7V.473A.473.473,0,0,1,6.1,0h8.056a.472.472,0,0,1,.473.473V3.7A.473.473,0,0,1,14.156,4.169Z" fill="#07c7a2" fill-rule="evenodd"/>
      <path id="_308812048" d="M17.5,20.47h8.347V16.314H17.5Zm8.821.947H17.028a.473.473,0,0,1-.473-.473v-5.1a.473.473,0,0,1,.473-.473h9.294a.473.473,0,0,1,.473.473v5.1A.473.473,0,0,1,26.322,21.416Z" fill="#07c7a2" fill-rule="evenodd"/>
      <path id="_308811688" d="M3.337,35.589C4.968,37.937,6.063,38.73,7.973,38.9a26.192,26.192,0,0,0,3.081-12.514c-4.74-1.755-6.682-3.236-7.716-4.221Zm4.907,4.275H8.219C5.758,39.732,4.415,38.83,2.475,36a.476.476,0,0,1-.084-.268V21.01a.473.473,0,0,1,.8-.338c.089.087.182.184.285.292.855.891,2.444,2.55,8.2,4.643a.474.474,0,0,1,.312.435A27.127,27.127,0,0,1,8.659,39.618a.471.471,0,0,1-.415.246Z" fill="#07c7a2" fill-rule="evenodd"/>
      <path id="_308811808" d="M10.378,40.016a.4.4,0,0,1-.067,0,3.535,3.535,0,0,1-2.017-1.026.473.473,0,0,1,.677-.661,2.6,2.6,0,0,0,1.226.7,14.5,14.5,0,0,0,3.326-10.8l-2.155-.744a.473.473,0,1,1,.308-.895l2.438.841a.475.475,0,0,1,.315.39,15.453,15.453,0,0,1-3.7,12.031.473.473,0,0,1-.357.162Z" fill="#07c7a2" fill-rule="evenodd"/>
      <path id="_308811088" d="M40.486,35.274h0Zm-7.792-9.084c2.652,5.555,3.467,9.652,2.476,12.462a8.6,8.6,0,0,0,4.843-3.544v-13.2a19.6,19.6,0,0,1-7.318,4.285Zm1.62,13.674a.474.474,0,0,1-.41-.709c1.463-2.548.689-6.938-2.3-13.048a.474.474,0,0,1,.291-.662c2.157-.638,4.414-1.494,8.278-4.931a.473.473,0,0,1,.788.354V35.274a.474.474,0,0,1-.1.3c-1.775,2.218-2.79,3.326-6.421,4.278A.514.514,0,0,1,34.314,39.864Z" fill="#07c7a2" fill-rule="evenodd"/>
      <path id="_308811016" d="M33.516,38.231a2.573,2.573,0,0,1-.618-.075.474.474,0,0,1-.347-.571c.752-3.087-.1-6.468-2.518-10.049a.474.474,0,0,1,.209-.7l1.883-.788a.473.473,0,1,1,.365.873l-1.355.567c2.206,3.439,3.028,6.729,2.45,9.8a1.652,1.652,0,0,0,1.111-.492.473.473,0,1,1,.675.662,2.6,2.6,0,0,1-1.855.777Z" fill="#07c7a2" fill-rule="evenodd"/>
      <path id="_308810800" d="M14.025,28.978a.473.473,0,0,1-.193-.905c.408-.182.955-.488,1.59-.843,2.527-1.412,5.987-3.346,7.86-1.708a.473.473,0,0,1-.623.712c-1.37-1.2-4.624.619-6.776,1.822-.654.366-1.22.681-1.666.881a.468.468,0,0,1-.192.041Z" fill="#07c7a2" fill-rule="evenodd"/>
      <path id="_308811208" d="M13.833,37.9a.471.471,0,0,1-.216-.052,5.17,5.17,0,0,1-1.524-1.053.473.473,0,1,1,.71-.625A4.451,4.451,0,0,0,14.049,37a.473.473,0,0,1-.216.894Z" fill="#07c7a2" fill-rule="evenodd"/>
      <path id="_308811184" d="M17.989,32.451a1.661,1.661,0,0,1-.962-.279,1.244,1.244,0,0,1-.24-1.8.555.555,0,0,1,.038-.05,1.9,1.9,0,0,0,.24-.344,6.586,6.586,0,0,0,.406-.961c.283-.774.574-1.573,1.369-1.714l.038-.005a8.314,8.314,0,0,0,1.014-.294l.05-.013a8.457,8.457,0,0,0,2.91-1.618c.622-.607,1.745-1,3.587.473a.447.447,0,0,1,.083.085c.1.133.724.648,4.532,1.665a.473.473,0,0,1-.243.914c-3.741-1-4.672-1.571-5-1.957-1.566-1.237-2.126-.674-2.311-.488a.489.489,0,0,1-.05.044,9.3,9.3,0,0,1-3.29,1.8A7.853,7.853,0,0,1,19,28.239c-.253.058-.447.59-.635,1.1a7.407,7.407,0,0,1-.47,1.1,2.891,2.891,0,0,1-.333.483c-.135.211-.132.369.011.469.4.28,1.667.092,2.905-1.624a.474.474,0,0,1,.656-.111,3.241,3.241,0,0,0,2.729-.645.472.472,0,0,1,.753.048c1.325,2.007,1.924,2.681,4.717,2.288a.473.473,0,0,1,.132.937c-2.993.42-4-.318-5.343-2.265a4.539,4.539,0,0,1-3.1.594,4.17,4.17,0,0,1-3.03,1.832Z" fill="#07c7a2" fill-rule="evenodd"/>
      <path id="_308811112" d="M31.209,36.355a1.8,1.8,0,0,1-.905-.217.473.473,0,0,1,.468-.823c.226.128.827.237,2.318-.473a.473.473,0,1,1,.407.854,5.6,5.6,0,0,1-2.288.658Z" fill="#07c7a2" fill-rule="evenodd"/>
      <path id="_308810992" d="M30.958,35.136h0Zm-1.526,1.8a2.258,2.258,0,0,1-1.012-.27.473.473,0,0,1,.426-.846c.576.29.851.147,1.025-.018a9.554,9.554,0,0,0,.677-.9.8.8,0,0,0,.116-.572.664.664,0,0,0-.389-.29.492.492,0,0,1-.049-.022,10.661,10.661,0,0,1-2.358-1.745.473.473,0,1,1,.65-.688,9.772,9.772,0,0,0,2.121,1.58,1.484,1.484,0,0,1,.91.824,1.655,1.655,0,0,1-.17,1.367.4.4,0,0,1-.028.048,10.372,10.372,0,0,1-.78,1.039c-.008.009-.017.018-.026.027a1.564,1.564,0,0,1-1.114.469Z" fill="#07c7a2" fill-rule="evenodd"/>
      <path id="_308811328" d="M28.632,36.715a.47.47,0,0,1-.212-.051A15.187,15.187,0,0,1,24.393,34.1a.473.473,0,0,1,.7-.632,14.009,14.009,0,0,0,3.748,2.352.473.473,0,0,1-.214.9Z" fill="#07c7a2" fill-rule="evenodd"/>
      <path id="_308810632" d="M28.17,38.776a2.588,2.588,0,0,1-1.028-.257,12.016,12.016,0,0,1-3.791-1.565.473.473,0,1,1,.538-.779,11.167,11.167,0,0,0,3.525,1.436.435.435,0,0,1,.079.028c.121.055.729.317.825.114a.532.532,0,0,1,.042-.072,3.106,3.106,0,0,0,.354-1.307.473.473,0,0,1,.939.123,4.068,4.068,0,0,1-.5,1.7A1.04,1.04,0,0,1,28.17,38.776Z" fill="#07c7a2" fill-rule="evenodd"/>
      <path id="_308811136" d="M26.079,40.265A2.889,2.889,0,0,1,24.7,39.86a12.33,12.33,0,0,1-2.17-1.322.473.473,0,0,1,.631-.706,11.286,11.286,0,0,0,1.982,1.191l.009,0a1.544,1.544,0,0,0,1.223.241,3.716,3.716,0,0,0,.827-1.262.473.473,0,1,1,.86.4,4.373,4.373,0,0,1-1.152,1.651.468.468,0,0,1-.1.061,1.81,1.81,0,0,1-.733.151Z" fill="#07c7a2" fill-rule="evenodd"/>
      <path id="_308810392" d="M23.275,41.186a2.822,2.822,0,0,1-1.885-.781.473.473,0,0,1,.631-.706,1.825,1.825,0,0,0,1.378.535,2.251,2.251,0,0,0,1.512-.917.474.474,0,0,1,.739.594,3.18,3.18,0,0,1-2.173,1.266c-.067.006-.135.009-.2.009Z" fill="#07c7a2" fill-rule="evenodd"/>
      <path id="_308809912" d="M16.158,40.267a1.745,1.745,0,0,1-1.181-.457,1.53,1.53,0,0,1-.419-1.8c0-.011.012-.022.018-.033,1.059-1.729,1.92-2.506,2.793-2.519h.023a2.344,2.344,0,0,1,1.8,1.288.473.473,0,1,1-.792.518c-.375-.575-.715-.865-1.013-.859-.336,0-.954.365-1.988,2.048a.613.613,0,0,0,.218.658.866.866,0,0,0,1.12.03.473.473,0,0,1,.51.8,2.012,2.012,0,0,1-1.084.331Z" fill="#07c7a2" fill-rule="evenodd"/>
      <path id="_308809840" d="M19.114,37.35a15.729,15.729,0,0,0-1.569,2.088.682.682,0,0,0,.252.947.783.783,0,0,0,1.1-.08,9.856,9.856,0,0,0,1.354-2.351c.008-.1-.024-.3-.5-.522l-.022-.011c-.4-.215-.549-.126-.615-.071Zm-.743,4.17a1.981,1.981,0,0,1-1.118-.36,1.586,1.586,0,0,1-.5-2.246,16.156,16.156,0,0,1,1.695-2.242l.029-.027a1.39,1.39,0,0,1,1.685-.065c1.031.491,1.08,1.193,1.017,1.569a.489.489,0,0,1-.022.084,10.691,10.691,0,0,1-1.5,2.637h0a1.565,1.565,0,0,1-1.288.65Z" fill="#07c7a2" fill-rule="evenodd"/>
      <path id="_308809816" d="M20.081,41.924a2.322,2.322,0,0,1-1.431-.67.473.473,0,0,1,.606-.727c.544.454.764.472.883.447.225-.05.521-.346.894-.776a1.383,1.383,0,0,0,.413-1.04c-.037-.1-.137-.381-.834-.423a.473.473,0,0,1,.057-.945,1.677,1.677,0,0,1,1.667,1.046,2.17,2.17,0,0,1-.59,1.983c-.545.625-1.035,1.1-1.666,1.1Z" fill="#07c7a2" fill-rule="evenodd"/>
      <path id="_308810512" d="M14.91,39.283a.471.471,0,0,1-.172-.032,2.008,2.008,0,0,1-1.361-1.213,2.142,2.142,0,0,1,.588-1.8c.024-.032.047-.063.068-.092a2.346,2.346,0,0,1,2.184-1.218,1.363,1.363,0,0,1,1.051,1.056.474.474,0,0,1-.919.23.443.443,0,0,0-.315-.357c-.261-.051-.723.145-1.238.848l-.073.1c-.206.276-.518.693-.436.977.058.2.341.414.795.591a.473.473,0,0,1-.171.914Z" fill="#07c7a2" fill-rule="evenodd"/>
    </g>
  </g>
</svg>
