<svg clip-rule="evenodd" fill-rule="evenodd" height="512" image-rendering="optimizeQuality" shape-rendering="geometricPrecision" text-rendering="geometricPrecision" viewBox="0 0 43.3492 43.3492" width="512" xmlns="http://www.w3.org/2000/svg"><g id="Layer_x0020_1"><g id="_308824600"><path id="_308825776" d="m33.2095 17.2594c-1.2502 0-2.2677 1.0174-2.2677 2.2675 0 1.25 1.0174 2.2675 2.2675 2.2675 1.2502-.0001 2.2675-1.0174 2.2675-2.2675.0002-1.2501-1.0174-2.2675-2.2673-2.2675zm0 5.4814c-1.7717 0-3.2141-1.4423-3.2141-3.2139.0001-1.7726 1.4423-3.214 3.2139-3.214 1.7717-.0001 3.2139 1.4414 3.2139 3.214.0001 1.7715-1.4423 3.214-3.2137 3.2139z"/><path id="_308825728" d="m31.8154 23.2288c.1508 0 .2956.0721.3863.2002l1.0078 1.4196 1.0075-1.4197c.1223-.1724.3429-.2424.5421-.1734l1.5815.5521-.0522-1.6662c-.0071-.2169.1329-.4091.3399-.4702l1.6259-.4714-1.0253-1.393c-.1224-.1666-.1224-.3943-.0002-.5609l1.0255-1.392-1.6257-.4723c-.207-.0601-.3472-.2534-.3403-.4693l.0524-1.6671-1.5814.552c-.1992.07-.42-.0009-.5423-.1724l-1.0074-1.4207-1.0077 1.4207c-.1223.1714-.3431.2425-.5423.1725l-1.5812-.5521.0523 1.6671c.0069.2158-.1333.4092-.3413.4693l-1.6247.4723 1.0255 1.392c.1222.1666.122.3944-.0002.561l-1.0253 1.3929 1.6249.4713c.208.0612.3478.2535.3409.4704l-.0521 1.6661 1.5813-.5521c.0513-.0178.1044-.0266.1558-.0267zm1.3941 2.9114c-.1539 0-.2969-.0749-.3866-.2002l-1.187-1.674-1.8957.6624c-.148.0513-.3108.0277-.4369-.0649-.1252-.0928-.1982-.2406-.1933-.3964l.0632-1.9896-1.9234-.558c-.1489-.0433-.2664-.1566-.3166-.3025-.0492-.147-.0247-.3086.068-.4328l1.2197-1.6574-1.2196-1.6582c-.0927-.1242-.1174-.2859-.0681-.4318.0504-.1469.1676-.2593.3164-.3026l1.9236-.5591-.063-1.9885c-.0051-.1568.0678-.3046.1931-.3973.1261-.0917.2898-.1163.4357-.065l1.8969.6624 1.187-1.674c.0898-.1252.2326-.1991.3864-.1991.1539-.0001.2967.074.3855.1991l1.1881 1.674 1.8959-.6625c.1478-.0512.3104-.0265.4365.0651.1254.0926.1972.2406.1923.3973l-.062 1.9885 1.9234.5591c.148.0433.2661.1557.3154.3026.0504.1459.0247.3076-.067.4318l-1.2195 1.6582 1.2196 1.6573c.0918.1252.1172.286.0669.4329-.0492.1458-.1676.2592-.3155.3026l-1.9233.5579.0621 1.9896c.0049.1558-.0672.3037-.1924.3964-.1261.0926-.2888.1163-.4367.065l-1.8957-.6615-1.1881 1.673c-.0887.1252-.2317.2002-.3853.2002z"/><path id="_308824864" d="m31.7275 30.4357c-.1557 0-.3036-.0769-.3933-.21l-.7087-1.0609-1.1409.5639c-.1674.0829-.3667.0602-.5097-.0581-.1437-.1174-.206-.3086-.1577-.488l1.3942-5.2016c.0681-.2533.3272-.4021.5795-.3351.2525.068.4023.3273.3342.5797l-1.1227 4.1919.5756-.2849c.213-.1055.4712-.0364.6033.1607l.2348.3519.5235-4.1653c.0326-.2593.271-.4436.5283-.4111.2594.0325.4427.2692.4101.5285l-.6802 5.4242c-.0246.1952-.1686.356-.3608.4013-.0365.0089-.073.0129-.1095.0129z"/><path id="_308824792" d="m34.6911 30.4357c-.0364 0-.073-.004-.1085-.0129-.1932-.0454-.3371-.205-.3618-.4012l-.6801-5.4243c-.0326-.2593.1507-.4959.41-.5285.2575-.0325.4959.1509.5284.4112l.5225 4.1623.2318-.347c.132-.1982.3894-.2671.6033-.1617l.5797.2859-1.1229-4.194c-.0681-.2523.0818-.5116.3342-.5796.2524-.0671.5116.0818.5796.3352l1.3941 5.2015c.0475.1794-.0138.3697-.1567.488-.1439.1173-.3431.141-.5097.0592l-1.1446-.5639-.7058 1.0587c-.0887.1341-.2377.2111-.3935.2111z"/><path id="_308824744" d="m.9465 34.1879h41.4563v-25.0266h-41.4563zm41.9294.9464h-42.4026c-.2613 0-.4734-.2119-.4734-.4732v-25.973c0-.2613.212-.4732.4733-.4732h42.4027c.2613 0 .4732.2119.4732.4732l.0002 25.973c0 .2613-.2122.4733-.4734.4732z"/><path id="_308825032" d="m5.2458 31.4244h32.8576c.1734-1.0825.9285-1.9421 1.8898-2.158l.0001-15.1845c-.9614-.215-1.7166-1.0746-1.8901-2.1581l-32.8574-.0001c-.1734 1.0835-.9287 1.9433-1.8899 2.1582v15.1844c.9614.216 1.7164 1.0757 1.8899 2.1581zm33.2932.9465h-33.7288c-.2622 0-.4734-.2119-.4734-.4732 0-.9573-.6526-1.7371-1.4542-1.7371-.2612 0-.4732-.2119-.4732-.4732l.0002-16.0256c0-.2622.2118-.4731.473-.4731.8016-.0001 1.4542-.7799 1.4542-1.7381 0-.2613.211-.4733.4732-.4733h33.729c.2613 0 .4732.212.4732.4733.0002.9582.6527 1.7381 1.4542 1.7381.2614-.0001.4732.2109.4732.4732v16.0255c0 .2611-.212.4732-.4732.4732-.8014 0-1.4542.7798-1.4542 1.7371.0002.2612-.212.4733-.4732.4732z"/><path id="_308825152" d="m8.9805 18.4306h12.3038v-2.306h-12.3038zm12.777.9464h-13.2502c-.2624 0-.4735-.2119-.4735-.4732l.0001-3.2524c0-.2613.2109-.4732.4732-.4732l13.2504-.0001c.2613 0 .473.212.473.4733l.0001 3.2523c0 .2613-.212.4733-.4731.4733z"/><path id="_308824696" d="m24.4074 22.8699h-18.5513c-.2611 0-.4733-.2109-.4733-.4731.0001-.2613.212-.4732.4732-.4732l18.5514-.0001c.2612 0 .4732.212.4732.4733.0001.2622-.212.4732-.4732.4731z"/><path id="_308824624" d="m24.4074 25.521h-18.5513c-.2611 0-.4733-.2119-.4733-.4732.0001-.2623.212-.4732.4732-.4732l18.5514-.0001c.2612 0 .4732.2111.4732.4733.0001.2612-.212.4732-.4732.4732z"/><path id="_308825128" d="m24.4074 28.1711h-18.5513c-.2611 0-.4733-.212-.4733-.4732.0001-.2613.212-.4732.4732-.4732l18.5514-.0001c.2612 0 .4732.212.4732.4733.0001.2612-.212.4732-.4732.4732z"/></g></g></svg>