<svg xmlns="http://www.w3.org/2000/svg" width="43.35" height="26.92" viewBox="0 0 43.35 26.92">
  <g id="Layer_x0020_1" transform="translate(0 -8.215)">
    <g id="_308824600">
      <path id="_308825776" d="M33.209,17.259a2.267,2.267,0,1,0,2.267,2.267A2.27,2.27,0,0,0,33.209,17.259Zm0,5.481a3.214,3.214,0,1,1,3.214-3.214,3.218,3.218,0,0,1-3.214,3.214Z" fill="#07c7a2" fill-rule="evenodd"/>
      <path id="_308825728" d="M31.815,23.229a.473.473,0,0,1,.386.2l1.008,1.42,1.007-1.42a.474.474,0,0,1,.542-.173l1.582.552-.052-1.666a.473.473,0,0,1,.34-.47l1.626-.471-1.025-1.393a.475.475,0,0,1,0-.561l1.026-1.392-1.626-.472a.473.473,0,0,1-.34-.469l.052-1.667-1.581.552a.473.473,0,0,1-.542-.172L33.209,14.2,32.2,15.625a.474.474,0,0,1-.542.172l-1.581-.552.052,1.667a.473.473,0,0,1-.341.469l-1.625.472,1.025,1.392a.475.475,0,0,1,0,.561L28.165,21.2l1.625.471a.474.474,0,0,1,.341.47l-.052,1.666,1.581-.552a.48.48,0,0,1,.156-.027Zm1.394,2.911a.475.475,0,0,1-.387-.2l-1.187-1.674-1.9.662a.474.474,0,0,1-.63-.461l.063-1.99L27.25,21.92A.472.472,0,0,1,27,21.184l1.22-1.657L27,17.869a.472.472,0,0,1,.248-.734l1.924-.559-.063-1.988a.473.473,0,0,1,.629-.462l1.9.662,1.187-1.674a.474.474,0,0,1,.772,0l1.188,1.674,1.9-.663a.472.472,0,0,1,.629.462l-.062,1.988,1.923.559a.473.473,0,0,1,.248.734L38.2,19.527l1.22,1.657a.474.474,0,0,1-.249.736l-1.923.558.062,1.99a.473.473,0,0,1-.629.461l-1.9-.661L33.595,25.94a.472.472,0,0,1-.385.2Z" fill="#07c7a2" fill-rule="evenodd"/>
      <path id="_308824864" d="M31.728,30.436a.474.474,0,0,1-.393-.21l-.709-1.061-1.141.564a.474.474,0,0,1-.667-.546l1.394-5.2a.473.473,0,1,1,.914.245L30,28.417l.576-.285a.474.474,0,0,1,.6.161l.235.352.524-4.165a.473.473,0,1,1,.938.117l-.68,5.424a.474.474,0,0,1-.361.4.46.46,0,0,1-.11.013Z" fill="#07c7a2" fill-rule="evenodd"/>
      <path id="_308824792" d="M34.691,30.436a.447.447,0,0,1-.109-.013.473.473,0,0,1-.362-.4l-.68-5.424a.473.473,0,1,1,.938-.117L35,28.642l.232-.347a.472.472,0,0,1,.6-.162l.58.286-1.123-4.194a.473.473,0,1,1,.914-.244l1.394,5.2a.474.474,0,0,1-.666.547l-1.145-.564-.706,1.059a.472.472,0,0,1-.394.211Z" fill="#07c7a2" fill-rule="evenodd"/>
      <path id="_308824744" d="M.947,34.188H42.4V9.161H.946Zm41.929.946H.473A.473.473,0,0,1,0,34.661V8.688a.473.473,0,0,1,.473-.473h42.4a.473.473,0,0,1,.473.473V34.661A.473.473,0,0,1,42.876,35.134Z" fill="#07c7a2" fill-rule="evenodd"/>
      <path id="_308825032" d="M5.246,31.424H38.1a2.573,2.573,0,0,1,1.89-2.158V14.082a2.571,2.571,0,0,1-1.89-2.158H5.246a2.571,2.571,0,0,1-1.89,2.158V29.266a2.573,2.573,0,0,1,1.89,2.158Zm33.293.946H4.81a.473.473,0,0,1-.473-.473,1.617,1.617,0,0,0-1.454-1.737.473.473,0,0,1-.473-.473V13.662a.472.472,0,0,1,.473-.473,1.617,1.617,0,0,0,1.454-1.738.473.473,0,0,1,.473-.473H38.539a.473.473,0,0,1,.473.473,1.618,1.618,0,0,0,1.454,1.738.472.472,0,0,1,.473.473V29.687a.473.473,0,0,1-.473.473A1.617,1.617,0,0,0,39.012,31.9.473.473,0,0,1,38.539,32.371Z" fill="#07c7a2" fill-rule="evenodd"/>
      <path id="_308825152" d="M8.981,18.431h12.3V16.125H8.981Zm12.777.946H8.507a.473.473,0,0,1-.474-.473V15.651a.473.473,0,0,1,.473-.473h13.25a.473.473,0,0,1,.473.473V18.9a.473.473,0,0,1-.473.473Z" fill="#07c7a2" fill-rule="evenodd"/>
      <path id="_308824696" d="M24.407,22.87H5.856a.473.473,0,1,1,0-.946H24.407a.473.473,0,0,1,0,.946Z" fill="#07c7a2" fill-rule="evenodd"/>
      <path id="_308824624" d="M24.407,25.521H5.856a.473.473,0,1,1,0-.946H24.407a.473.473,0,0,1,0,.947Z" fill="#07c7a2" fill-rule="evenodd"/>
      <path id="_308825128" d="M24.407,28.171H5.856a.473.473,0,1,1,0-.946H24.407a.473.473,0,0,1,0,.947Z" fill="#07c7a2" fill-rule="evenodd"/>
    </g>
  </g>
</svg>
