<svg id="for-sale" xmlns="http://www.w3.org/2000/svg" width="496.002" height="496" viewBox="0 0 496.002 496">
  <path id="Path_5542" data-name="Path 5542" d="M488,480H128V128h88v24H176a8,8,0,0,0-8,8V368a8,8,0,0,0,8,8H456a8,8,0,0,0,8-8V160a8,8,0,0,0-8-8H416V128h64a8,8,0,0,0,7.922-6.863l8-56A8,8,0,0,0,488,56H128V8A8,8,0,0,0,118.863.082l-56,8A8,8,0,0,0,56,16V56H8a8,8,0,0,0-8,8v56a8,8,0,0,0,8,8H56V480H8a8,8,0,0,0,0,16H488a8,8,0,0,0,0-16ZM448,168V360H184V168Zm-48-16H232V128H400Zm78.777-80-5.715,40H128V72ZM16,112V72H56v40ZM72,22.938l40-5.711V480H72Zm0,0" fill="#07c7a2"/>
  <path id="Path_5543" data-name="Path 5543" d="M224,256a8,8,0,0,0,8-8V232h16a8,8,0,0,0,0-16H232v-8h16a8,8,0,0,0,0-16H224a8,8,0,0,0-8,8v48A8,8,0,0,0,224,256Zm0,0" fill="#07c7a2"/>
  <path id="Path_5544" data-name="Path 5544" d="M280,256h24a8,8,0,0,0,8-8V200a8,8,0,0,0-8-8H280a8,8,0,0,0-8,8v48A8,8,0,0,0,280,256Zm8-48h8v32h-8Zm0,0" fill="#07c7a2"/>
  <path id="Path_5545" data-name="Path 5545" d="M336,256a8,8,0,0,0,8-8v-9.6l9.344,14.016a8,8,0,1,0,13.313-8.883L358.945,232H360a8,8,0,0,0,8-8V200a8,8,0,0,0-8-8H336a8,8,0,0,0-8,8v48a8,8,0,0,0,8,8Zm8-48h8v8h-8Zm0,0" fill="#07c7a2"/>
  <path id="Path_5546" data-name="Path 5546" d="M224,320a8,8,0,0,0,0,16h24a8,8,0,0,0,8-8V304a8,8,0,0,0-8-8H232v-8h16a8,8,0,0,0,0-16H224a8,8,0,0,0-8,8v24a8,8,0,0,0,8,8h16v8Zm0,0" fill="#07c7a2"/>
  <path id="Path_5547" data-name="Path 5547" d="M280,336a8,8,0,0,0,8-8V312h8v16a8,8,0,0,0,16,0V280a8,8,0,0,0-8-8H280a8,8,0,0,0-8,8v48A8,8,0,0,0,280,336Zm8-48h8v8h-8Zm0,0" fill="#07c7a2"/>
  <path id="Path_5548" data-name="Path 5548" d="M336,336h24a8,8,0,0,0,0-16H344V280a8,8,0,0,0-16,0v48A8,8,0,0,0,336,336Zm0,0" fill="#07c7a2"/>
  <path id="Path_5549" data-name="Path 5549" d="M384,336h24a8,8,0,0,0,0-16H392v-8h16a8,8,0,0,0,0-16H392v-8h16a8,8,0,0,0,0-16H384a8,8,0,0,0-8,8v48A8,8,0,0,0,384,336Zm0,0" fill="#07c7a2"/>
</svg>
