<svg xmlns="http://www.w3.org/2000/svg" width="43.821" height="45.306" viewBox="0 0 43.821 45.306">
  <g id="house-rental" transform="translate(-0.932)">
    <path id="Path_5460" data-name="Path 5460" d="M145.275,83.086a1.089,1.089,0,0,0,1.089,1.089h9.841a1.089,1.089,0,0,0,1.089-1.089V75.427h1.268c-.516-.879-.831-.632-1.268-1.354a3.191,3.191,0,0,0-.826-1l-4.756-4.856c-.391-.3-.409-.3-.8,0l-6.527,5.857c-.37.284-.258.232-.208.7s.008.186.352.436l.746.222v7.658Zm9.841-.393h-2.972v-2.8c0-.6-.211-.833-.812-.833s-.75.231-.75.833v2.8h-3.128V75.427h7.663v7.266Zm-3.831-12.448,3.831,3.647h-7.662Z" transform="translate(-128.545 -59.928)" fill="#07c7a2"/>
    <path id="Path_5461" data-name="Path 5461" d="M44.52,25.189a1.215,1.215,0,0,0-.963-.436H37.092A18.292,18.292,0,0,0,39.46,16.72a16.72,16.72,0,1,0-33.439,0c0,2.6,1.827,6.384,3.175,8.985H4.184c-.661,0-.487.513-.584,1.167L1.059,43.727c-.057.383-.253.6,0,.893s.128.687.516.687l39.1-.274c.661,0,1.1-.067,1.2-.721l2.85-17.3a3.569,3.569,0,0,0-.205-1.819Zm-1.34,1.476-1.545,9.11L31.922,32.47q.283-.348.562-.7c.9-1.143,2.589-3.4,3.659-5.1H43.18ZM22.74,1.558c7.749,0,15.1,7.591,15.1,15.341,0,3.277-2.915,8.851-6.844,13.91a51.452,51.452,0,0,1-5.113,5.778c-.64.59-1.813,1.43-2.246,1.755V30.1c0-.736-.157-.923-.893-.923s-.791.187-.791.923v8.242c-.433-.325-1.714-1.406-2.354-2a50.633,50.633,0,0,1-4.93-5.765c-3.929-5.059-6.7-10.013-6.7-13.29,0-7.749,7.024-15.733,14.774-15.733ZM5.076,26.666h4.84c.865,1.38,2.784,4.6,3.57,5.63L3.256,37.17ZM3.256,38.46l10.9-5.274c1.151,1.363,3.246,3.525,4.38,4.6l-2.678,5.938-13.32.206.721-5.2Zm14.521,5.267,1.975-5c1.622,1.23,2.468,1.4,2.988,1.4.656,0,1.829-.269,4.423-2.595.929-.833,2.473-2.55,3.452-3.626l10.574,3.626-.756,6.192H17.777Z" transform="translate(0)" fill="#07c7a2"/>
  </g>
</svg>
