<svg xmlns="http://www.w3.org/2000/svg" width="904.137" height="1299.104" viewBox="0 0 904.137 1299.104">
  <g id="Keys-Handoff" transform="translate(-0.02 1299.703)">
    <path id="Path_5540" data-name="Path 5540" d="M225.2-1298a64.865,64.865,0,0,0-46.2,46.6,64.94,64.94,0,0,0-2,10.4v2.7l-14.2.6c-11.5.4-15.9,1-22.4,3.1-15.9,5.1-30.2,17.3-37.4,31.9-5.9,12.1-7.4,19-6.7,32.2.7,14.5,4.1,24.3,12.1,34.8l3.5,4.6-4.7,1.5a76.568,76.568,0,0,1-8.2,2.1,85.729,85.729,0,0,0-12.7,5.1c-16.9,8.1-29.2,23.4-33.9,42.3-2.3,9.1-1.5,26.3,1.5,35.1,9.4,27.1,35.8,45.1,64.1,43.8,7.9-.4,13.6-2.1,86.3-26.2,42.8-14.2,78.1-25.5,78.3-25.3.3.3-2.5,4.3-6.2,8.8-21.3,26.3-38.1,62.4-44.8,96.2-15.1,75.2,8.1,151.9,62.3,205.7,9.8,9.7,24.6,21.9,33.9,28,2.2,1.4,2.3,1.8,1.3,8-1.6,9.5-1.3,28.4.4,38.6,6.2,35.5,28.9,67.8,59.6,84.6l5.9,3.3v184L411.6-365c9.1,16.8,17.6,31.5,19,32.7,2.6,2.4,8.1,3.1,11.2,1.4,1-.5,9.2-9.2,18.2-19.2,9.1-10.1,20.8-23,26-28.7s9.8-11.1,10.2-12c1.8-4.5.8-8.1-3.9-13.9-2.7-3.2-5.4-6.6-6.1-7.5-1.2-1.5-.6-2.8,4.7-10.6,8.1-11.8,8.1-13-.3-24.9l-6.4-9,4.6-6.6,4.5-6.6-.3-21.8c-.1-12-.3-23.2-.4-24.8l-.1-3,7.8-.6c6.2-.4,8.2-.9,10-2.7,2.1-2.2,2.2-3,2-18.3l-.1-15.9L508-568.2c-3.9-10.3-4.1-11.4-2.5-12.3,29.9-17.8,48.6-39.9,58.5-69.3,6.4-19.3,7.8-44.6,3.5-63.8-.4-1.8,1.4-3.7,9.8-10.5C608-749.2,648.1-784,706.9-837,810-929.7,819.5-938.9,832-957.1c46.6-68,37.9-163.5-20.5-223.7-12.5-12.9-20.5-19.7-32.6-27.5-19.3-12.6-43.9-22.4-67.5-26.9-11.8-2.2-12.5-2.2-135.9-2.8l-124-.5L405-1252.8c-25.6-7.9-63.6-19.5-84.5-25.8s-44.5-13.6-52.5-16.1c-12.5-3.9-15.9-4.6-25-4.9C234.8-1299.9,230.9-1299.6,225.2-1298Zm68.8,32.5c24.5,7.4,54.5,16.5,66.8,20.2l22.2,6.8-92.7.3c-50.9.1-92.8,0-93-.2-1-1,2-11.9,4.7-17.4,5.5-10.8,18.3-20.7,30-23.2C241.4-1280.9,247.9-1279.5,294-1265.5Zm90.4,48.4c-.5.5-11.9,4.4-25.4,8.6s-31,9.7-39,12.2c-18.6,5.8-47.4,14.8-57,17.8-4.1,1.3-19.6,6.1-34.5,10.8-14.8,4.7-42.3,13.3-60.9,19.2l-33.9,10.6-4.1-4a44.806,44.806,0,0,1-8.7-52c5.9-11.5,20.5-21.7,33.4-23.1C163.5-1218.1,385.5-1218.1,384.4-1217.1Zm323.5,2c20,3.8,41.8,12.1,56.9,21.7a34.361,34.361,0,0,0,5.9,3.4c.9,0,14.8,11.6,22.2,18.5,11.1,10.5,23.9,28.3,32,44.3,15.2,30.3,20.5,71.3,13.5,104.6-5.1,24.1-17.9,49.9-34.2,68.4-3,3.4-14.6,14.6-25.8,24.9C767.2-919.1,758-910.4,758-910c0,.3-3,3.1-6.7,6.1-3.6,3-12.3,10.6-19.2,16.9-23.8,21.8-71.7,64.6-96.6,86.4-13.7,12.1-26.3,23.2-28,24.8-4.6,4.4-43.8,36.8-45.7,37.9-1.5.8-2.3-.1-4.9-5.3A117.487,117.487,0,0,0,537-771.4c-7.6-8.1-20.3-18.2-27.2-21.7-2.1-1.1-3.8-2.3-3.8-2.7s2.8-2.2,6.3-4.1c26.8-14.6,48-42.4,56.2-73.6,3.6-13.5,4.5-34.8,2.1-48.7A118.046,118.046,0,0,0,453.9-1021c-39.8,0-76.1,19.6-98.7,53.4-23.2,35-26.3,77.5-8.2,115.5,13.8,28.8,34,47.4,65.9,60.7,9.9,4.1,12.3,5.6,17.8,11,21.6,21.2,15.6,58.3-11.6,71.7-6.2,3-7.2,3.2-17.6,3.2-10.8,0-11.2-.1-23-4.9-56.4-22.7-98.4-65.9-119.1-122.4-30.9-84.3-1.7-181.2,70.7-235.3,36.8-27.5,78.2-40.9,126-40.9h17.1l2.9-2.9c4.8-4.8,3.8-12.6-1.9-15.5-5.9-3-38.5-2.5-58.5,1a232.5,232.5,0,0,0-85.2,33.2,78.566,78.566,0,0,1-19,9c-5.5,1.8-50.1,16.5-99.1,32.8-49,16.2-91.3,29.7-94,30-11.1,1.3-25-3.8-34-12.4a43.987,43.987,0,0,1-6.5-55c6.9-10.6,14.4-15.6,30.1-20,5.8-1.7,26.3-8,45.5-14,61.7-19.4,264.4-83,280-87.9,4.4-1.3,11.4-3.5,15.5-4.8l7.5-2.4,120,.3C694.8-1217.3,696.7-1217.3,707.9-1215.1ZM470.1-999.4c16.5,2.9,29.5,8.4,42.7,18.3,18.2,13.8,30,31.6,36.4,54.9,1.7,6.1,2.1,10.7,2.2,22.7.1,18.2-2,27.7-9.4,43-5.9,12.3-11.6,20.1-21.9,29.7-9.5,8.9-18,14.2-32.4,20.2l-10.8,4.5-8.2-1.6c-6.2-1.2-12.3-1.4-25.2-1-16.1.4-17.3.3-23.3-1.9A97.942,97.942,0,0,1,366-859.5c-7.9-16-9.5-23.8-9.4-44,0-15.6.2-17.8,2.7-25.9C374.3-978.2,421.1-1007.8,470.1-999.4Zm-3.7,211.9c42.9,7.5,75.6,41.1,82.6,84.8,1.7,10.3.8,28.9-1.8,38.9-8,30-29.2,55.5-56.5,67.7-7.1,3.2-9.7,6-9.7,10.6,0,1.7,2.5,9.7,5.5,17.8,4.6,12.3,5.5,15.8,5.5,21.2v6.5h-7.1c-6.5,0-7.3.2-10.1,3l-3,3.1.7,28.7.7,28.7-5.6,8.4c-7.3,11-7.3,12.3.4,23.4,3.3,4.7,6,9,6,9.6s-2.7,5.2-6,10.2c-7,10.6-7.5,13.6-3.2,19.5a40.335,40.335,0,0,0,4.6,5.3c4.7,3.9,4.5,4.2-11.1,21.7l-14.8,16.5L443-489.2c-.4-97.1-.8-127.8-1.7-129.4-2.8-4.8-12-5.6-15.9-1.3-1.8,2-1.9,6.2-2.4,117.3l-.5,115.1-3.7-6.8-3.8-6.8v-93.5c0-82.3-.2-93.9-1.5-96.5-1.1-2-3.4-3.8-7.2-5.4-9.2-4.1-21.3-12.8-29.4-21.2-15-15.5-23.4-31.7-27.4-52.6-1.6-8.4-2-27.3-.7-29.5.6-.9,3.1-.2,10.3,3.2,34.3,16,54.9,16.2,78.3.7,3.3-2.2,4.8-2.5,10-2.3a47.167,47.167,0,0,0,21.8-4.9c6.5-3.3,14.5-12,18.1-19.6,3-6.4,3.2-7.5,3.2-17.8,0-10.5-.2-11.4-3.4-18a54.11,54.11,0,0,0-8.3-11.8c-5-5-14.8-10.3-20.9-11.3-2.9-.5-4-1.3-5.2-4L451-789h3.4A111.479,111.479,0,0,1,466.4-787.5Zm-.1,33.8c8.2,11,5,26.3-6.6,32.4-2.7,1.3-2.8,1.3-2.3-.4,1.7-5.5,2.7-14.2,2.8-25,0-11.6.1-12.2,1.9-11.3A19.082,19.082,0,0,1,466.3-753.7Z" fill="#07c7a2"/>
    <path id="Path_5541" data-name="Path 5541" d="M119.3-355.9c-8.6,1-20.5,4-30.5,7.5-31,11.2-59.2,36.3-74.2,66.2-5.4,10.8-11.3,29.6-13.1,42-2.4,15.9-1.7,87.7.8,96.7,5.7,20,20.5,38.1,38,46.3C48.6-93.3,306.1-7.6,317-5.1c16.8,3.8,24.2,4.5,45,4.5,25-.1,32.2-1.3,70.5-11.5,25.7-6.8,74.4-19.7,96-25.4,84.8-22.4,86-22.8,98.9-29.2,5.9-3,35.6-20.3,105.6-61.6,7.4-4.3,15.5-9.1,18-10.4,2.5-1.4,10.4-6,17.5-10.3,21-12.5,88.2-51.9,98-57.4,17.1-9.7,30.8-26.3,35.9-43.5,2.5-8.5,2.3-36.9-.4-44.5-6.6-19.2-18.9-33-37.5-42.1-14.7-7.1-31.9-9.4-46.5-6-9.7,2.3-8.2,1.6-56,24.3-33.8,16-128,60.4-160.5,75.7-13.2,6.2-30.2,14.3-37.9,17.9-7.6,3.6-14.1,6.6-14.5,6.6-.3,0-2.1-2.4-3.9-5.4a73.9,73.9,0,0,0-19.6-21c-3.4-2.4-16-9.4-28.1-15.6s-26.9-13.9-33-17c-52.7-27.7-132.5-68.3-139-70.7a146.918,146.918,0,0,0-34-8.3C280.6-357.2,129.8-357.1,119.3-355.9Zm179.3,21.2c16.6,3.7,24.1,7,76.4,34.2,35.7,18.6,79.1,41,108.5,56,13.8,7.1,26.8,14.1,29.1,15.6,6.1,4.1,14.9,14.1,17.8,20.2,10.8,22.8,1.8,52.2-20.2,66.4-7.8,5.1-15.4,7.4-25.7,8-12,.7-20-1.5-37-10.1-5-2.5-46.3-21.9-92-43.2-89.9-42-88.1-41.3-93.4-36-3.2,3.3-3.7,10.2-.8,13.4,1,1.1,29.6,15,63.5,30.8S393.9-147.2,403-143c14.6,6.9,22.7,10.6,49.2,22.9,9.5,4.4,17.7,6.1,29.7,6.1,28.7,0,52.9-15,65.1-40.5,6.1-12.6,7.2-17.2,7.9-31.9l.6-11.9,22-10.4c12.1-5.8,32.4-15.3,45-21.3,12.7-5.9,55.6-26.2,95.5-45s78.6-37.1,86-40.6c15.1-7,23.4-9,33.5-8,27.5,2.8,47.6,24.7,47.6,51.8.1,14.8-4.1,25.5-14.1,36.1-5.4,5.8-10.3,9-50.7,32.7-24.7,14.4-49.5,29.1-55.3,32.5s-26.5,15.6-46,27c-19.5,11.5-49.1,28.8-65.7,38.6s-32.4,18.9-35,20.2c-8.7,4.4-18.8,7.5-59,18.1-21.9,5.8-66.3,17.5-98.8,26.1-32.4,8.6-62.4,16.3-66.5,17-12.6,2.4-30,3.7-41,3-10.8-.7-30.9-3.7-37-5.6-24.7-7.5-264-87.9-268-90-11.8-6.2-20-15.9-24.9-29.3-2.5-7-2.6-7.5-2.9-41.6-.2-20.6.1-38.7.7-45,3-28.5,14.1-51.5,34.5-71.5,19.3-18.9,42.5-29.8,68.8-32.5,4.6-.4,44.1-.7,87.8-.6C280-336.3,292.5-336.1,298.6-334.7Z" fill="#07c7a2"/>
  </g>
</svg>
