<?xml version="1.0" standalone="no"?>
<!DOCTYPE svg PUBLIC "-//W3C//DTD SVG 20010904//EN"
 "http://www.w3.org/TR/2001/REC-SVG-20010904/DTD/svg10.dtd">
<svg version="1.0" xmlns="http://www.w3.org/2000/svg"
 width="904.000000pt" height="1300.000000pt" viewBox="0 0 904.000000 1300.000000"
 preserveAspectRatio="xMidYMid meet">

<g transform="translate(0.000000,1300.000000) scale(0.100000,-0.100000)"
fill="#000000" stroke="none">
<path d="M2252 12980 c-228 -61 -404 -239 -462 -466 -11 -43 -20 -89 -20 -104
l0 -27 -142 -6 c-115 -4 -159 -10 -224 -31 -159 -51 -302 -173 -374 -319 -59
-121 -74 -190 -67 -322 7 -145 41 -243 121 -348 l35 -46 -47 -15 c-26 -8 -63
-18 -82 -21 -19 -4 -77 -27 -127 -51 -169 -81 -292 -234 -339 -423 -23 -91
-15 -263 15 -351 94 -271 358 -451 641 -438 79 4 136 21 863 262 428 142 781
255 783 253 3 -3 -25 -43 -62 -88 -213 -263 -381 -624 -448 -962 -151 -752 81
-1519 623 -2057 98 -97 246 -219 339 -280 22 -14 23 -18 13 -80 -16 -95 -13
-284 4 -386 62 -355 289 -678 596 -846 l59 -33 0 -920 0 -920 166 -305 c91
-168 176 -315 190 -327 26 -24 81 -31 112 -14 10 5 92 92 182 192 91 101 208
230 260 287 52 57 98 111 102 120 18 45 8 81 -39 139 -27 32 -54 66 -61 75
-12 15 -6 28 47 106 81 118 81 130 -3 249 l-64 90 46 66 45 66 -3 218 c-1 120
-3 232 -4 248 l-1 30 78 6 c62 4 82 9 100 27 21 22 22 30 20 183 l-1 159 -42
112 c-39 103 -41 114 -25 123 299 178 486 399 585 693 64 193 78 446 35 638
-4 18 14 37 98 105 307 251 708 599 1296 1129 1031 927 1126 1019 1251 1201
466 680 379 1635 -205 2237 -125 129 -205 197 -326 275 -193 126 -439 224
-675 269 -118 22 -125 22 -1359 28 l-1240 5 -465 143 c-256 79 -636 195 -845
258 -209 63 -445 136 -525 161 -125 39 -159 46 -250 49 -82 3 -121 0 -178 -16z
m688 -325 c245 -74 545 -165 668 -202 l222 -68 -927 -3 c-509 -1 -928 0 -930
2 -10 10 20 119 47 174 55 108 183 207 300 232 94 19 159 5 620 -135z m904
-484 c-5 -5 -119 -44 -254 -86 -135 -42 -310 -97 -390 -122 -186 -58 -474
-148 -570 -178 -41 -13 -196 -61 -345 -108 -148 -47 -423 -133 -609 -192
l-339 -106 -41 40 c-139 137 -174 348 -87 520 59 115 205 217 334 231 92 11
2312 11 2301 1z m3235 -20 c200 -38 418 -121 569 -217 29 -19 55 -34 59 -34 9
0 148 -116 222 -185 111 -105 239 -283 320 -443 152 -303 205 -713 135 -1046
-51 -241 -179 -499 -342 -684 -30 -34 -146 -146 -258 -249 -112 -102 -204
-189 -204 -193 0 -3 -30 -31 -67 -61 -36 -30 -123 -106 -192 -169 -238 -218
-717 -646 -966 -864 -137 -121 -263 -232 -280 -248 -46 -44 -438 -368 -457
-379 -15 -8 -23 1 -49 53 -50 100 -118 197 -199 282 -76 81 -203 182 -272 217
-21 11 -38 23 -38 27 0 4 28 22 63 41 268 146 480 424 562 736 36 135 45 348
21 487 -97 573 -587 988 -1167 988 -398 0 -761 -196 -987 -534 -232 -350 -263
-775 -82 -1155 138 -288 340 -474 659 -607 99 -41 123 -56 178 -110 216 -212
156 -583 -116 -717 -62 -30 -72 -32 -176 -32 -108 0 -112 1 -230 49 -564 227
-984 659 -1191 1224 -309 843 -17 1812 707 2353 368 275 782 409 1260 409
l171 0 29 29 c48 48 38 126 -19 155 -59 30 -385 25 -585 -10 -296 -50 -602
-170 -852 -332 -63 -40 -121 -68 -190 -90 -55 -18 -501 -165 -991 -328 -490
-162 -913 -297 -940 -300 -111 -13 -250 38 -340 124 -149 144 -176 377 -65
550 69 106 144 156 301 200 58 17 263 80 455 140 617 194 2644 830 2800 879
44 13 114 35 155 48 l75 24 1200 -3 c1183 -3 1202 -3 1314 -25z m-2378 -2157
c165 -29 295 -84 427 -183 182 -138 300 -316 364 -549 17 -61 21 -107 22 -227
1 -182 -20 -277 -94 -430 -59 -123 -116 -201 -219 -297 -95 -89 -180 -142
-324 -202 l-108 -45 -82 16 c-62 12 -123 14 -252 10 -161 -4 -173 -3 -233 19
-239 89 -432 263 -542 489 -79 160 -95 238 -94 440 0 156 2 178 27 259 150
488 618 784 1108 700z m-37 -2119 c429 -75 756 -411 826 -848 17 -103 8 -289
-18 -389 -80 -300 -292 -555 -565 -677 -71 -32 -97 -60 -97 -106 0 -17 25 -97
55 -178 46 -123 55 -158 55 -212 l0 -65 -71 0 c-65 0 -73 -2 -101 -30 l-30
-31 7 -287 7 -287 -56 -84 c-73 -110 -73 -123 4 -234 33 -47 60 -90 60 -96 0
-6 -27 -52 -60 -102 -70 -106 -75 -136 -32 -195 16 -21 36 -45 46 -53 47 -39
45 -42 -111 -217 l-148 -165 -5 1273 c-4 971 -8 1278 -17 1294 -28 48 -120 56
-159 13 -18 -20 -19 -62 -24 -1173 l-5 -1151 -37 68 -38 68 0 935 c0 823 -2
939 -15 965 -11 20 -34 38 -72 54 -92 41 -213 128 -294 212 -150 155 -234 317
-274 526 -16 84 -20 273 -7 295 6 9 31 2 103 -32 343 -160 549 -162 783 -7 33
22 48 25 100 23 67 -3 154 16 218 49 65 33 145 120 181 196 30 64 32 75 32
178 0 105 -2 114 -34 180 -19 38 -56 91 -83 118 -50 50 -148 103 -209 113 -29
5 -40 13 -52 40 l-17 34 34 0 c18 0 72 -7 120 -15z m-1 -338 c82 -110 50 -263
-66 -324 -27 -13 -28 -13 -23 4 17 55 27 142 28 250 0 116 1 122 19 113 10 -6
29 -25 42 -43z"/>
<path d="M1193 3559 c-86 -10 -205 -40 -305 -75 -310 -112 -592 -363 -742
-662 -54 -108 -113 -296 -131 -420 -24 -159 -17 -877 8 -967 57 -200 205 -381
380 -463 83 -39 2658 -896 2767 -921 168 -38 242 -45 450 -45 250 1 322 13
705 115 257 68 744 197 960 254 848 224 860 228 989 292 59 30 356 203 1056
616 74 43 155 91 180 104 25 14 104 60 175 103 210 125 882 519 980 574 171
97 308 263 359 435 25 85 23 369 -4 445 -66 192 -189 330 -375 421 -147 71
-319 94 -465 60 -97 -23 -82 -16 -560 -243 -338 -160 -1280 -604 -1605 -757
-132 -62 -302 -143 -379 -179 -76 -36 -141 -66 -145 -66 -3 0 -21 24 -39 54
-44 75 -123 159 -196 210 -34 24 -160 94 -281 156 -121 62 -269 139 -330 170
-527 277 -1325 683 -1390 707 -105 40 -228 70 -340 83 -109 12 -1617 11 -1722
-1z m1793 -212 c166 -37 241 -70 764 -342 357 -186 791 -410 1085 -560 138
-71 268 -141 291 -156 61 -41 149 -141 178 -202 108 -228 18 -522 -202 -664
-78 -51 -154 -74 -257 -80 -120 -7 -200 15 -370 101 -50 25 -463 219 -920 432
-899 420 -881 413 -934 360 -32 -33 -37 -102 -8 -134 10 -11 296 -150 635
-308 339 -158 691 -322 782 -364 146 -69 227 -106 492 -229 95 -44 177 -61
297 -61 287 0 529 150 651 405 61 126 72 172 79 319 l6 119 220 104 c121 58
324 153 450 213 127 59 556 262 955 450 399 188 786 371 860 406 151 70 234
90 335 80 275 -28 476 -247 476 -518 1 -148 -41 -255 -141 -361 -54 -58 -103
-90 -507 -327 -247 -144 -495 -291 -553 -325 -58 -34 -265 -156 -460 -270
-195 -115 -491 -288 -657 -386 -166 -98 -324 -189 -350 -202 -87 -44 -188 -75
-590 -181 -219 -58 -663 -175 -988 -261 -324 -86 -624 -163 -665 -170 -126
-24 -300 -37 -410 -30 -108 7 -309 37 -370 56 -247 75 -2640 879 -2680 900
-118 62 -200 159 -249 293 -25 70 -26 75 -29 416 -2 206 1 387 7 450 30 285
141 515 345 715 193 189 425 298 688 325 46 4 441 7 878 6 680 -3 805 -5 866
-19z"/>
</g>
</svg>
