<svg xmlns="http://www.w3.org/2000/svg" width="46.004" height="46.016" viewBox="0 0 46.004 46.016">
  <g id="Page-1" transform="translate(0 0.016)">
    <g id="_017---Bills" data-name="017---Bills" transform="translate(0 -0.016)">
      <path id="Shape" d="M38.941,36.8a1.533,1.533,0,0,0,2.164,0L43.82,34.1a1.541,1.541,0,0,0,0-2.173l-3.193-3.2V20.165a1.533,1.533,0,0,0-1.533-1.533H35.26a1.533,1.533,0,0,0-1.533,1.533v1.661L31.28,19.378a10.734,10.734,0,1,0-15.04,0L3.7,31.921a1.541,1.541,0,0,0,0,2.174L6.411,36.8a1.533,1.533,0,0,0,2.165,0l.613-.613v9.277H6.125a.767.767,0,0,0,0,1.533h35.27a.767.767,0,1,0,0-1.533H38.327V36.189ZM35.26,20.165h3.834v7.028L35.26,23.359Zm7.479,12.844-2.712,2.707L38.106,33.8l-.008-.006L26.422,22.117A10.677,10.677,0,0,0,30.1,20.37ZM14.559,11.73a9.2,9.2,0,1,1,9.2,9.2A9.2,9.2,0,0,1,14.559,11.73ZM7.494,35.715,4.78,33.005,17.415,20.37a10.674,10.674,0,0,0,3.68,1.747L9.422,33.786l-.015.015Zm13.2,9.751V42.4a3.067,3.067,0,1,1,6.134,0v3.067Zm16.1,0H28.36V42.4a4.6,4.6,0,1,0-9.2,0v3.067H10.725V34.656L22.96,22.424c.265.02.53.041.8.041s.537-.021.8-.041L36.794,34.656Z" transform="translate(-0.757 -0.984)" fill="#07c7a2"/>
      <path id="Shape-2" data-name="Shape" d="M.767,60.533H2.3A.767.767,0,1,0,2.3,59H.767a.767.767,0,1,0,0,1.533Z" transform="translate(0 -14.517)" fill="#07c7a2"/>
      <path id="Shape-3" data-name="Shape" d="M56.767,60.533H58.3A.767.767,0,1,0,58.3,59H56.767a.767.767,0,0,0,0,1.533Z" transform="translate(-13.063 -14.517)" fill="#07c7a2"/>
      <path id="Shape-4" data-name="Shape" d="M26.533,15.584a.767.767,0,0,0-1.533,0,3.569,3.569,0,0,0,3.067,3.381v.07a.767.767,0,1,0,1.533,0v-.07a3.569,3.569,0,0,0,3.067-3.381A3.569,3.569,0,0,0,29.6,12.2V8.418a1.974,1.974,0,0,1,1.533,1.8.767.767,0,1,0,1.533,0A3.569,3.569,0,0,0,29.6,6.837v-.07a.767.767,0,1,0-1.533,0v.07A3.569,3.569,0,0,0,25,10.217,3.569,3.569,0,0,0,28.067,13.6v3.785a1.974,1.974,0,0,1-1.533-1.8Zm4.6,0a1.974,1.974,0,0,1-1.533,1.8v-3.6a1.974,1.974,0,0,1,1.533,1.8Zm-4.6-5.367a1.974,1.974,0,0,1,1.533-1.8v3.6a1.974,1.974,0,0,1-1.533-1.8Z" transform="translate(-5.832 -2.154)" fill="#07c7a2"/>
      <path id="Shape-5" data-name="Shape" d="M24.767,35a.767.767,0,0,0-.767.767v7.667a.767.767,0,0,0,.767.767h7.667a.767.767,0,0,0,.767-.767V35.767A.767.767,0,0,0,32.434,35Zm6.9,3.834h-2.3v-2.3h2.3Zm-3.834-2.3v2.3h-2.3v-2.3Zm-2.3,3.834h2.3v2.3h-2.3Zm3.834,2.3v-2.3h2.3v2.3Z" transform="translate(-5.598 -8.919)" fill="#07c7a2"/>
      <circle id="Oval" cx="0.767" cy="0.767" r="0.767" transform="translate(23.769 41.416)" fill="#07c7a2"/>
      <path id="Shape-6" data-name="Shape" d="M9,14.767a.767.767,0,0,0,.767.767h2.3a.767.767,0,0,0,0-1.533h-2.3A.767.767,0,0,0,9,14.767Z" transform="translate(-2.099 -4.02)" fill="#07c7a2"/>
      <path id="Shape-7" data-name="Shape" d="M46,14.767a.767.767,0,0,0,.767.767h2.3a.767.767,0,0,0,0-1.533h-2.3A.767.767,0,0,0,46,14.767Z" transform="translate(-10.73 -4.02)" fill="#07c7a2"/>
      <path id="Shape-8" data-name="Shape" d="M14.053,22.6l-1.994,1.15a.767.767,0,1,0,.767,1.328l1.994-1.15a.767.767,0,1,0-.767-1.328Z" transform="translate(-2.723 -6.002)" fill="#07c7a2"/>
      <path id="Shape-9" data-name="Shape" d="M46.1,4.1,44.1,5.252a.767.767,0,1,0,.767,1.328l1.994-1.15A.767.767,0,1,0,46.1,4.1Z" transform="translate(-10.197 -1.687)" fill="#07c7a2"/>
      <path id="Shape-10" data-name="Shape" d="M14.819,5.252,12.826,4.1a.767.767,0,1,0-.767,1.328l1.994,1.15a.767.767,0,1,0,.767-1.328Z" transform="translate(-2.723 -1.687)" fill="#07c7a2"/>
    </g>
  </g>
</svg>
