<svg xmlns="http://www.w3.org/2000/svg" width="408.516" height="512" viewBox="0 0 408.516 512">
  <g id="piggy-bank" transform="translate(-51.742)">
    <path id="Path_5550" data-name="Path 5550" d="M460.257,344.941V330.23A138.475,138.475,0,0,0,427.528,240.9a7.5,7.5,0,0,0-11.451,9.688,123.459,123.459,0,0,1,29.18,79.643v14.711a123.121,123.121,0,0,1-57.916,104.612,7.5,7.5,0,0,0-3.5,6.345V497H336.4l-3.25-21.987a7.541,7.541,0,0,0-7.7-6.4c-1.708.063-3.221.1-4.624.1H300a7.5,7.5,0,1,0,0,15h19.271L321.236,497H256.729l1.964-13.291H265a7.5,7.5,0,0,0,0-15H252.22a7.5,7.5,0,0,0-7.419,6.4L241.565,497H194.123V468.984a7.5,7.5,0,0,0-5.054-7.09,124.065,124.065,0,0,1-69.1-58.82,7.5,7.5,0,0,0-6.61-3.957H66.743V326.978H98.362a7.5,7.5,0,0,0,7.475-6.891,123.837,123.837,0,0,1,72.507-102.559,7.5,7.5,0,0,0,4.406-6.832v-57.9A92.7,92.7,0,0,1,209.4,167.32a77.55,77.55,0,0,1,15.124,15.62c-.081,1.294-.136,2.6-.136,3.91A61.71,61.71,0,0,0,241.8,229.938h-5.133a7.5,7.5,0,0,0,0,15H340.159a7.5,7.5,0,0,0,0-15h-8.465a61.63,61.63,0,0,0,13.4-21.1,123.735,123.735,0,0,1,46.436,19.536,7.5,7.5,0,0,0,8.5-12.358,138.713,138.713,0,0,0-51.37-21.774,62.773,62.773,0,0,0,.441-7.391,61.823,61.823,0,0,0-20.891-46.316V127.45a7.5,7.5,0,1,0-15,0v3.2a62.058,62.058,0,0,0-18.33-5.341V100.693a7.5,7.5,0,0,0-15,0v24.456a62.075,62.075,0,0,0-19.612,5.5v-8.28a7.5,7.5,0,0,0-15,0v18.163a62.309,62.309,0,0,0-16.7,23.976,94.211,94.211,0,0,0-9.922-8.992,104.527,104.527,0,0,0-34.3-17.924,13.42,13.42,0,0,0-11.428,2.253,13.225,13.225,0,0,0-5.18,10.456v55.648A138.877,138.877,0,0,0,91.623,311.978H64.93a13.187,13.187,0,0,0-13.187,13.158v75.822A13.187,13.187,0,0,0,64.93,414.116h44.024a138.922,138.922,0,0,0,70.169,60.1V497H59.243a7.5,7.5,0,0,0,0,15H452.758a7.5,7.5,0,0,0,0-15H398.842V459.964a137.975,137.975,0,0,0,61.415-115.023ZM286.748,139.766a47.044,47.044,0,0,1,19.1,90.174H267.645a47.044,47.044,0,0,1,19.1-90.174Z" fill="#07c7a2"/>
    <path id="Path_5551" data-name="Path 5551" d="M134.9,307.059V346.1a7.5,7.5,0,0,0,15,0V307.059a7.5,7.5,0,0,0-15,0Z" fill="#07c7a2"/>
    <path id="Path_5552" data-name="Path 5552" d="M286.748,220.33a33.479,33.479,0,1,0-33.611-33.479A33.584,33.584,0,0,0,286.748,220.33Zm0-51.957a18.479,18.479,0,1,1-18.611,18.479A18.566,18.566,0,0,1,286.748,168.373Z" fill="#07c7a2"/>
    <path id="Path_5553" data-name="Path 5553" d="M194.584,124.723a62.016,62.016,0,0,0,58.079-39.61A7.5,7.5,0,0,0,238.7,79.638a47.362,47.362,0,1,1,1.481-30.147,7.5,7.5,0,0,0,14.438-4.066,62.368,62.368,0,1,0-60.032,79.3Z" fill="#07c7a2"/>
    <path id="Path_5554" data-name="Path 5554" d="M194.584,28.752a33.609,33.609,0,1,0,33.611,33.609,33.648,33.648,0,0,0-33.611-33.609Zm0,52.219a18.609,18.609,0,1,1,18.611-18.609,18.631,18.631,0,0,1-18.611,18.609Z" fill="#07c7a2"/>
    <path id="Path_5555" data-name="Path 5555" d="M99,189.573a33.611,33.611,0,1,0-33.611-33.61A33.648,33.648,0,0,0,99,189.573Zm0-52.222a18.611,18.611,0,1,1-18.611,18.612A18.633,18.633,0,0,1,99,137.351Z" fill="#07c7a2"/>
    <path id="Path_5556" data-name="Path 5556" d="M394.706,155.625A33.611,33.611,0,1,0,361.1,122.014,33.649,33.649,0,0,0,394.706,155.625Zm0-52.223A18.611,18.611,0,1,1,376.1,122.013,18.632,18.632,0,0,1,394.706,103.4Z" fill="#07c7a2"/>
    <circle id="Ellipse_106" data-name="Ellipse 106" cx="7.5" cy="7.5" r="7.5" transform="translate(279.89 62.819)" fill="#07c7a2"/>
    <circle id="Ellipse_107" data-name="Ellipse 107" cx="7.5" cy="7.5" r="7.5" transform="translate(313.22 90.75)" fill="#07c7a2"/>
  </g>
</svg>
