<svg id="Capa_1" enable-background="new 0 0 512 512" height="512" viewBox="0 0 512 512" width="512" xmlns="http://www.w3.org/2000/svg"><path d="m460.257 344.941v-14.711c0-32.66-11.623-64.385-32.729-89.331-2.674-3.16-7.406-3.558-10.57-.881-3.162 2.676-3.557 7.407-.881 10.569 18.817 22.241 29.18 50.525 29.18 79.643v14.711c0 42.642-21.65 81.749-57.916 104.612-2.179 1.374-3.5 3.77-3.5 6.345v41.102h-47.442l-3.25-21.987c-.559-3.783-3.884-6.499-7.698-6.398-1.708.063-3.221.095-4.624.095h-20.827c-4.142 0-7.5 3.357-7.5 7.5s3.358 7.5 7.5 7.5h19.271l1.965 13.29h-64.507l1.964-13.291h6.307c4.142 0 7.5-3.357 7.5-7.5s-3.358-7.5-7.5-7.5h-12.78c-3.719 0-6.875 2.725-7.419 6.403l-3.236 21.888h-47.442v-28.016c0-3.199-2.029-6.046-5.054-7.09-29.727-10.257-54.266-31.146-69.098-58.82-1.306-2.437-3.846-3.957-6.61-3.957h-46.618v-72.139h31.619c3.906 0 7.158-2.998 7.475-6.891 3.64-44.656 31.423-83.954 72.507-102.559 2.683-1.215 4.406-3.887 4.406-6.832v-57.903c4.643 1.566 15.6 5.859 26.648 14.527 5.936 4.656 10.98 9.88 15.124 15.62-.081 1.294-.136 2.596-.136 3.91 0 16.48 6.438 31.769 17.415 43.088h-5.133c-4.142 0-7.5 3.357-7.5 7.5s3.358 7.5 7.5 7.5h29.465 41.229 32.797c4.142 0 7.5-3.357 7.5-7.5s-3.358-7.5-7.5-7.5h-8.465c5.86-6.043 10.422-13.217 13.405-21.101 16.59 3.254 32.344 9.837 46.436 19.536 3.412 2.348 8.082 1.485 10.43-1.927s1.486-8.082-1.926-10.431c-15.607-10.741-33.027-18.082-51.37-21.774.288-2.43.441-4.896.441-7.391 0-18.394-8.084-34.937-20.891-46.316v-13.084c0-4.143-3.358-7.5-7.5-7.5s-7.5 3.357-7.5 7.5v3.202c-5.695-2.669-11.858-4.497-18.33-5.341v-24.618c0-4.143-3.358-7.5-7.5-7.5s-7.5 3.357-7.5 7.5v24.456c-6.942.76-13.542 2.659-19.612 5.504v-8.28c0-4.143-3.358-7.5-7.5-7.5s-7.5 3.357-7.5 7.5v18.163c-7.325 6.508-13.094 14.707-16.698 23.976-3.057-3.194-6.366-6.203-9.922-8.992-16.341-12.82-32.495-17.436-34.299-17.924-3.872-1.037-8.214-.194-11.428 2.253-3.244 2.473-5.18 6.382-5.18 10.456v55.648c-41.541 20.58-70.087 60.41-76.127 106.025h-26.693c-7.271 0-13.187 5.902-13.187 13.158v75.822c0 7.256 5.916 13.158 13.187 13.158h44.024c15.897 27.499 40.541 48.602 70.169 60.104v22.78h-119.88c-4.142 0-7.5 3.357-7.5 7.5s3.358 7.5 7.5 7.5h127.38 61.416 81.887 61.416 61.416c4.142 0 7.5-3.357 7.5-7.5s-3.358-7.5-7.5-7.5h-53.916v-37.036c38.536-25.899 61.415-68.588 61.415-115.023zm-173.509-205.175c26.115 0 47.362 21.123 47.362 47.086 0 18.788-11.045 35.549-28.259 43.088h-38.206c-17.214-7.538-28.259-24.3-28.259-43.088 0-25.963 21.247-47.086 47.362-47.086z"/><path d="m134.905 307.059v39.039c0 4.143 3.358 7.5 7.5 7.5s7.5-3.357 7.5-7.5v-39.039c0-4.143-3.358-7.5-7.5-7.5s-7.5 3.357-7.5 7.5z"/><path d="m286.748 220.33c18.533 0 33.611-15.019 33.611-33.479s-15.078-33.479-33.611-33.479-33.611 15.019-33.611 33.479 15.078 33.479 33.611 33.479zm0-51.957c10.262 0 18.611 8.289 18.611 18.479s-8.349 18.479-18.611 18.479-18.611-8.289-18.611-18.479 8.349-18.479 18.611-18.479z"/><path d="m194.584 124.723c25.85 0 48.646-15.548 58.079-39.61 1.511-3.856-.389-8.208-4.246-9.72-3.856-1.515-8.208.389-9.72 4.245-7.164 18.276-24.479 30.085-44.113 30.085-26.115 0-47.362-21.246-47.362-47.361s21.247-47.362 47.362-47.362c21.125 0 39.875 14.184 45.594 34.491 1.123 3.987 5.263 6.308 9.252 5.186 3.987-1.122 6.309-5.265 5.186-9.252-7.532-26.745-32.218-45.425-60.032-45.425-34.386 0-62.362 27.976-62.362 62.361s27.976 62.362 62.362 62.362z"/><path d="m194.584 28.752c-18.533 0-33.611 15.077-33.611 33.609s15.078 33.609 33.611 33.609 33.611-15.077 33.611-33.609-15.077-33.609-33.611-33.609zm0 52.219c-10.262 0-18.611-8.348-18.611-18.609s8.349-18.609 18.611-18.609 18.611 8.348 18.611 18.609-8.348 18.609-18.611 18.609z"/><path d="m99.002 189.573c18.533 0 33.611-15.077 33.611-33.61 0-18.534-15.078-33.612-33.611-33.612s-33.611 15.078-33.611 33.612c0 18.533 15.078 33.61 33.611 33.61zm0-52.222c10.262 0 18.611 8.35 18.611 18.612s-8.349 18.61-18.611 18.61-18.611-8.349-18.611-18.61c0-10.263 8.349-18.612 18.611-18.612z"/><path d="m394.706 155.625c18.533 0 33.611-15.078 33.611-33.611s-15.078-33.611-33.611-33.611-33.611 15.078-33.611 33.611 15.078 33.611 33.611 33.611zm0-52.223c10.262 0 18.611 8.349 18.611 18.611s-8.349 18.611-18.611 18.611-18.611-8.349-18.611-18.611 8.349-18.611 18.611-18.611z"/><circle cx="287.39" cy="70.319" r="7.5"/><circle cx="320.72" cy="98.25" r="7.5"/></svg>