<svg xmlns="http://www.w3.org/2000/svg" width="57.481" height="57.481" viewBox="0 0 57.481 57.481">
  <g id="price" transform="translate(0 0)">
    <path id="Path_5463" data-name="Path 5463" d="M25.746,24.228a1.684,1.684,0,0,0,1.684-1.684V11.217l.734.46a1.684,1.684,0,1,0,1.787-2.855L16.264.255a1.692,1.692,0,0,0-1.787,0L.791,8.822a1.684,1.684,0,1,0,1.787,2.855l.734-.46V22.544A1.684,1.684,0,0,0,5,24.228h20.75Zm-11.8-3.368V13.923H16.8V20.86ZM5,8.822,15.4,2.442,25.746,8.822l.4,13.417H18.584v-10.1c0-.93-.033-1.583-.963-1.583l-4.865,1.379c-.93,0-1-.727-1,.2v9.872L5,22.239Z" transform="translate(0 0)" fill="#07c7a2"/>
    <path id="Path_5464" data-name="Path 5464" d="M282.541,268.887a13.647,13.647,0,1,0,13.647,13.647A13.662,13.662,0,0,0,282.541,268.887Zm0,25.232c-5.668,0-11.422-5.917-11.422-11.585s5.755-11.57,11.422-11.57,11.732,5.9,11.732,11.57S288.209,294.119,282.541,294.119Z" transform="translate(-238.707 -238.7)" fill="#07c7a2"/>
    <path id="Path_5465" data-name="Path 5465" d="M97.76,98.331c0,.93.67.852,1.625.723s.723-.7.723-1.625V92.679c0-.93-.542-1.238-1.471-1.238l-4.8.335c-.93,0-1.42-.028-1.42.9s-.1,1.291.826,1.291l2.734.619L76.93,113.221l-4.937-4.864c-.658-.658-1.036-.215-1.693.442L56.518,121.99c-.658.658.153.742.811,1.4s.311,1.1.969.443L71.4,111.6l4.273,3.979c.658.658,1.454,1.126,2.112.469l19.3-19.3Z" transform="translate(-49.2 -80.779)" fill="#07c7a2"/>
    <path id="Path_5466" data-name="Path 5466" d="M354.927,318.635a11.329,11.329,0,0,1-2.683-1.23.82.82,0,0,1,.458-1.015,1.814,1.814,0,0,1,1.6.216l-.006-.006.028.024-.013-.01a1.684,1.684,0,0,0,2.264-2.493,4.67,4.67,0,0,0-1.751-.959V313.1a1.684,1.684,0,0,0-3.368,0v.157a4.126,4.126,0,0,0-2.552,3.123,3.725,3.725,0,0,0,1.255,3.665,13.311,13.311,0,0,0,3.646,1.764.956.956,0,0,1,.727,1.151,1.4,1.4,0,0,1-1.323,1.191,2.788,2.788,0,0,1-2.1-.518,1.684,1.684,0,1,0-1.843,2.818,5.878,5.878,0,0,0,2.193.952,1.685,1.685,0,1,0,3.368.067v-.259a4.792,4.792,0,0,0,3.031-3.693A4.315,4.315,0,0,0,354.927,318.635Z" transform="translate(-309.374 -276.453)" fill="#07c7a2"/>
  </g>
</svg>
