<svg id="Capa_1" enable-background="new 0 0 511.654 511.654" height="512" viewBox="0 0 511.654 511.654" width="512" xmlns="http://www.w3.org/2000/svg"><g><path d="m489.19 37.01h-53.019c-4.142 0-7.5 3.357-7.5 7.5s3.358 7.5 7.5 7.5h53.019c4.116 0 7.464 3.349 7.464 7.464v27.743h-481.654v-27.743c0-4.115 3.349-7.464 7.464-7.464h381.745c4.142 0 7.5-3.357 7.5-7.5s-3.358-7.5-7.5-7.5h-381.745c-12.386 0-22.464 10.077-22.464 22.464v392.707c0 12.387 10.078 22.464 22.464 22.464h466.726c12.387 0 22.464-10.077 22.464-22.464v-392.707c0-12.387-10.077-22.464-22.464-22.464zm-474.19 415.171v-101.772h98.236v109.235h-90.772c-4.115.001-7.464-3.348-7.464-7.463zm474.19 7.464h-360.954v-182.14c0-4.143-3.358-7.5-7.5-7.5s-7.5 3.357-7.5 7.5v57.904h-98.236v-233.192h98.236v143.325c0 4.143 3.358 7.5 7.5 7.5s7.5-3.357 7.5-7.5v-143.325h368.418v349.964c0 4.115-3.348 7.464-7.464 7.464z"/><path d="m44.812 61.77c-4.142 0-7.5 3.357-7.5 7.5s3.358 7.5 7.5 7.5h4.187c4.142 0 7.5-3.357 7.5-7.5s-3.358-7.5-7.5-7.5z"/><path d="m85.561 61.77c-4.142 0-7.5 3.357-7.5 7.5s3.358 7.5 7.5 7.5h4.187c4.142 0 7.5-3.357 7.5-7.5s-3.358-7.5-7.5-7.5z"/><path d="m126.31 61.77c-4.142 0-7.5 3.357-7.5 7.5s3.358 7.5 7.5 7.5h4.187c4.142 0 7.5-3.357 7.5-7.5s-3.358-7.5-7.5-7.5z"/><path d="m408.269 232.507c-.46-4.413-2.611-8.382-6.056-11.176l-26.066-21.143c-3.217-2.609-7.941-2.117-10.549 1.101-2.609 3.217-2.117 7.94 1.1 10.55l26.066 21.143c.688.558.793 1.571.235 2.26l-7.426 9.153c-.346.428-.779.555-1.081.586-.304.031-.751-.004-1.179-.351l-6.004-4.87c-.005-.004-.01-.008-.014-.011l-74.864-60.724c-2.754-2.232-6.695-2.232-9.449 0l-74.867 60.726c-.003.002-.006.005-.009.008l-6.008 4.873c-.427.346-.875.383-1.178.35-.302-.031-.735-.158-1.082-.586l-7.425-9.153c-.347-.428-.382-.877-.35-1.18.031-.302.159-.734.585-1.08l12.392-10.052s.001-.001.001-.001l39.209-31.803c.004-.003.007-.006.011-.009l38.719-31.406c2.737-2.22 6.712-2.221 9.449 0l39.439 31.99c3.216 2.608 7.94 2.116 10.549-1.101s2.117-7.94-1.1-10.55l-39.439-31.99c-8.213-6.66-20.135-6.66-28.348 0l-26.545 21.531v-11.565c2.301-2.523 3.718-5.865 3.718-9.541v-14.363c0-7.823-6.365-14.188-14.188-14.188h-33.276c-7.823 0-14.188 6.365-14.188 14.188v14.363c0 3.676 1.417 7.018 3.718 9.541v55.541l-9.572 7.764c-3.445 2.795-5.596 6.764-6.056 11.176-.46 4.411.826 8.738 3.62 12.184l7.425 9.153c2.794 3.445 6.763 5.596 11.174 6.056.587.062 1.172.092 1.754.092 1.452 0 2.882-.192 4.262-.561v60.778h-4.407c-4.142 0-7.5 3.357-7.5 7.5s3.358 7.5 7.5 7.5h172.77c4.142 0 7.5-3.357 7.5-7.5s-3.358-7.5-7.5-7.5h-3.709v-60.789c1.935.518 3.965.696 6.016.48 4.412-.46 8.38-2.61 11.174-6.056l7.426-9.153c2.797-3.447 4.083-7.774 3.623-12.185zm-194.215-97.573h31.652v12.74h-31.652zm3.718 27.74h24.216v19.084l-24.216 19.642zm98.059 157.534h-36.248v-6.138c0-9.993 8.13-18.124 18.124-18.124s18.124 8.131 18.124 18.124zm15 0v-6.138c0-18.265-14.859-33.124-33.124-33.124s-33.124 14.859-33.124 33.124v6.138h-34.203v-71.092l67.327-54.609 67.327 54.609v71.092z"/><path d="m323.331 237.042h-51.248c-4.142 0-7.5 3.357-7.5 7.5s3.358 7.5 7.5 7.5h51.248c4.142 0 7.5-3.357 7.5-7.5s-3.358-7.5-7.5-7.5z"/><path d="m244.576 359.657h-15.363c-5.082 0-9.216 4.135-9.216 9.217v52.009c0 5.082 4.134 9.217 9.216 9.217h15.363c11.778 0 21.361-9.582 21.361-21.36 0-5.29-1.943-10.126-5.14-13.861 3.196-3.735 5.14-8.572 5.14-13.861 0-11.779-9.583-21.361-21.361-21.361zm-9.579 15h9.58c3.507 0 6.361 2.854 6.361 6.36 0 3.508-2.854 6.361-6.361 6.361h-9.58zm9.579 40.443h-9.58v-12.721h9.58c3.507 0 6.361 2.854 6.361 6.36s-2.854 6.361-6.361 6.361z"/><path d="m316.331 359.657c-4.142 0-7.5 3.357-7.5 7.5v39.973c0 4.395-3.575 7.97-7.97 7.97s-7.97-3.575-7.97-7.97v-39.973c0-4.143-3.358-7.5-7.5-7.5s-7.5 3.357-7.5 7.5v39.973c0 12.666 10.304 22.97 22.97 22.97s22.97-10.304 22.97-22.97v-39.973c0-4.142-3.358-7.5-7.5-7.5z"/><path d="m379.087 361.38c-3.189-2.642-7.917-2.195-10.56.994l-9.693 11.709-9.693-11.709c-2.642-3.19-7.37-3.635-10.56-.994-3.19 2.642-3.636 7.369-.995 10.561l13.748 16.606v34.053c0 4.143 3.358 7.5 7.5 7.5s7.5-3.357 7.5-7.5v-34.053l13.748-16.606c2.641-3.192 2.195-7.92-.995-10.561z"/><path d="m471.146 392.752-18.773-18.772 5.311-5.236c2.6-2.563 3.393-6.406 2.02-9.789s-4.62-5.586-8.272-5.613l-41.738-.296c-.025 0-.05 0-.075 0-5.584 0-10.148 4.522-10.188 10.118l-.296 41.737c-.026 3.652 2.13 6.931 5.494 8.353 3.365 1.422 7.218.683 9.819-1.881l5.882-5.799 18.998 18.997c1.942 1.943 4.523 3.013 7.27 3.013s5.328-1.069 7.269-3.011l17.284-17.283c4.005-4.007 4.005-10.528 0-14.535-.005-.002-.005-.002-.005-.003zm-24.551 17.875-20.928-20.927c-1.464-1.464-3.383-2.196-5.303-2.196-1.902 0-3.805.72-5.266 2.159l-.864.852.159-22.436 22.436.159-.368.362c-1.423 1.403-2.227 3.315-2.234 5.314-.007 1.998.784 3.917 2.197 5.33l20.777 20.776z"/><path d="m85.034 280.946h-44.61c-4.142 0-7.5 3.357-7.5 7.5s3.358 7.5 7.5 7.5h44.61c4.142 0 7.5-3.357 7.5-7.5s-3.358-7.5-7.5-7.5z"/><path d="m85.034 247.327h-44.61c-4.142 0-7.5 3.357-7.5 7.5s3.358 7.5 7.5 7.5h44.61c4.142 0 7.5-3.357 7.5-7.5s-3.358-7.5-7.5-7.5z"/><path d="m85.034 213.708h-44.61c-4.142 0-7.5 3.357-7.5 7.5s3.358 7.5 7.5 7.5h44.61c4.142 0 7.5-3.357 7.5-7.5s-3.358-7.5-7.5-7.5z"/><path d="m85.034 180.089h-44.61c-4.142 0-7.5 3.357-7.5 7.5s3.358 7.5 7.5 7.5h44.61c4.142 0 7.5-3.357 7.5-7.5s-3.358-7.5-7.5-7.5z"/><path d="m85.034 146.469h-44.61c-4.142 0-7.5 3.357-7.5 7.5s3.358 7.5 7.5 7.5h44.61c4.142 0 7.5-3.357 7.5-7.5s-3.358-7.5-7.5-7.5z"/><path d="m62.729 371.395c-18.101 0-32.827 14.727-32.827 32.827s14.726 32.827 32.827 32.827 32.827-14.727 32.827-32.827-14.727-32.827-32.827-32.827zm0 50.654c-9.83 0-17.827-7.997-17.827-17.827s7.997-17.827 17.827-17.827 17.827 7.997 17.827 17.827-7.998 17.827-17.827 17.827z"/></g></svg>