<svg xmlns="http://www.w3.org/2000/svg" width="39.94" height="46.017" viewBox="0 0 39.94 46.017">
  <g id="rental" transform="translate(-32.864)">
    <g id="Group_16551" data-name="Group 16551" transform="translate(32.864)">
      <g id="Group_16550" data-name="Group 16550" transform="translate(0)">
        <path id="Path_5451" data-name="Path 5451" d="M52.834,0,43.219,6.657V4.6H37.3v6.155l-4.438,3.072v6.237l2.219-1.536V40.1h4.438v5.917H66.147V40.1h4.438V18.526L72.8,20.062V13.825ZM38.781,6.077H41.74v1.6L38.781,9.728ZM64.668,44.538H41V23.828h7.4V23.8a7.349,7.349,0,0,0,1.479.886v.624h-7.4V40.1h20.71V25.307h-7.4v-.624a7.315,7.315,0,0,0,1.479-.886v.031h7.4ZM51.049,28.266l-1.479,1.479,1.479,1.479L49.876,32.4v2.092l2.959,2.959,2.959-2.959v-7.7H61.71V38.621H43.958V26.786h5.917v.306Zm3.757-4.782-.493.175V33.877l-1.479,1.479-1.479-1.479V33.01l1.785-1.785-1.479-1.479,1.479-1.479L51.355,26.48V23.658l-.493-.174a5.918,5.918,0,1,1,3.944,0Zm14.3,15.137H66.147V22.349H58.721a7.4,7.4,0,1,0-11.773,0H39.521V38.621H36.562V17.5L52.834,6.237,69.106,17.5Zm2.219-21.381L52.834,4.438l-18.491,12.8V14.6L52.834,1.8,71.325,14.6Z" transform="translate(-32.864)" fill="#07c7a2"/>
      </g>
    </g>
    <g id="Group_16553" data-name="Group 16553" transform="translate(49.876 13.473)">
      <g id="Group_16552" data-name="Group 16552" transform="translate(0)">
        <path id="Path_5452" data-name="Path 5452" d="M219.823,145.728a2.959,2.959,0,1,0,2.959,2.959A2.962,2.962,0,0,0,219.823,145.728Zm0,4.438a1.479,1.479,0,1,1,1.479-1.479A1.481,1.481,0,0,1,219.823,150.166Z" transform="translate(-216.864 -145.728)" fill="#07c7a2"/>
      </g>
    </g>
    <g id="Group_16555" data-name="Group 16555" transform="translate(42.479 41.579)">
      <g id="Group_16554" data-name="Group 16554" transform="translate(0)">
        <rect id="Rectangle_2489" data-name="Rectangle 2489" width="17.751" height="1.479" fill="#07c7a2"/>
      </g>
    </g>
    <g id="Group_16557" data-name="Group 16557" transform="translate(61.71 41.579)">
      <g id="Group_16556" data-name="Group 16556">
        <rect id="Rectangle_2490" data-name="Rectangle 2490" width="1.479" height="1.479" fill="#07c7a2"/>
      </g>
    </g>
  </g>
</svg>
