<svg clip-rule="evenodd" fill-rule="evenodd" height="512" image-rendering="optimizeQuality" shape-rendering="geometricPrecision" text-rendering="geometricPrecision" viewBox="0 0 43.3492 43.3492" width="512" xmlns="http://www.w3.org/2000/svg"><g id="Layer_x0020_1"><g id="_210263936"><path id="_210264752" d="m13.0054.9465c-2.0929 0-4.1583.549-6.0185 1.6235-5.7678 3.3297-7.7513 10.7309-4.4213 16.4983 2.235 3.8698 6.3032 6.0361 10.4801 6.0363 2.0476.0001 4.1206-.5201 6.0183-1.6156 2.7939-1.6132 4.792-4.2175 5.6269-7.3336.8352-3.1163.4072-6.3709-1.2066-9.1647-1.6127-2.7938-4.2172-4.7923-7.3333-5.6273-1.04-.2789-2.0968-.4167-3.1456-.4169zm.0424 25.1044c-4.5051 0-8.8921-2.3358-11.3014-6.5095-3.5911-6.2193-1.4521-14.2003 4.7674-17.791 3.0126-1.7395 6.522-2.2014 9.8826-1.3011 3.3596.9002 6.1682 3.0555 7.9081 6.0682 1.7391 3.0127 2.2013 6.5225 1.3013 9.8828-.901 3.3602-3.056 6.1689-6.0686 7.9082-2.0453 1.181-4.2824 1.7424-6.4894 1.7424z"/><path id="_210264200" d="m26.7771 24.5111c-.1116 0-.223-.0389-.3127-.1185l-3.8001-3.3596c-.1962-.1732-.2151-.4722-.0416-.668.1736-.1957.4722-.2141.6684-.0411l3.8003 3.3595c.1952.1732.2139.4723.0404.6681-.0937.1057-.2238.1598-.3547.1596zm-2.7427 2.7437c-.131 0-.2612-.0538-.3549-.1597l-3.3594-3.8001c-.1737-.1959-.155-.4948.0402-.668.1962-.1731.4959-.1546.6684.0411l3.3598 3.8c.1734.1959.1546.4951-.0416.6681-.0895.0796-.2011.1188-.3125.1186z"/><path id="_210264128" d="m23.788 27.6969 14.509 14.5098 3.9057-3.9053-14.5098-14.5098zm14.509 15.6524c-.1203 0-.2415-.0463-.3342-.1386l-15.1782-15.1791c-.1854-.1847-.1855-.4842-.0002-.6691l4.5743-4.5746c.0887-.0887.2088-.1385.3341-.1385.1261-.0001.2464.0499.3351.1386l15.1785 15.1787c.0887.0887.1389.2093.1389.3348s-.0503.2458-.139.3346l-4.574 4.5745c-.0927.0923-.2141.1387-.3353.1387z"/><path id="_210264152" d="m18.7881 22.252h-11.5259c-.2613 0-.4734-.2116-.4734-.4729l.0001-9.5422c0-.2613.2118-.4731.4731-.4731.2613-.0001.4732.2119.4732.4732l.0001 9.0688h10.5797v-9.0689c0-.2613.2117-.4731.473-.4731.2614-.0001.4732.2119.4732.4732v9.5419c0 .2613-.212.4732-.4731.4731z"/><path id="_210263912" d="m4.8616 13.1123.4279.4279 7.4014-7.4008c.0887-.0887.2089-.1385.3341-.1385.1264-.0001.2464.0498.3351.1386l7.4005 7.4007.4279-.4279-8.1633-8.1633zm15.899 1.5702c-.1211 0-.2425-.046-.3342-.1383l-7.4012-7.4011-7.4006 7.401c-.1852.1847-.485.1849-.6694.0001l-1.097-1.0972c-.0888-.0887-.1382-.209-.1382-.3345.0002-.1257.0493-.246.138-.3346l8.8329-8.8328c.0887-.0887.2089-.1384.3341-.1384.1264-.0002.2464.0498.3351.1386l8.832 8.8326c.1852.1847.1851.4843-.0001.6692l-1.0963 1.097c-.0924.0922-.2139.1386-.3351.1384z"/><path id="_210264056" d="m9.2573 8.5209c-.2612 0-.4732-.2117-.4732-.473l.0001-2.4382c0-.2615.2118-.4732.473-.4732.2614-.0001.4732.2119.4732.4732l.0001 2.4381c0 .2613-.212.4733-.4732.4731zm-1.9951 1.995c-.2613 0-.4734-.2118-.4734-.4731l.0001-4.4331c0-.2615.2118-.4732.4731-.4732.2613-.0001.4732.2119.4732.4732l.0001 4.4331c0 .2613-.2121.4732-.4731.4731z"/><path id="_210263792" d="m7.0708 5.1364h2.3788v-.3835h-2.3788zm2.852.9465h-3.3251c-.2613 0-.4733-.2118-.4733-.4732l.0002-1.3299c0-.2613.2117-.4732.473-.4732l3.3252-.0001c.2612 0 .473.212.473.4733l.0001 1.3299c0 .2614-.212.4732-.4731.4732z"/><path id="_210263720" d="m14.9435 22.252c-.2612 0-.4734-.2116-.4734-.4729l.0001-5.2898h-2.8892v5.2896c0 .2613-.2122.4732-.4734.4732-.2612-.0001-.4732-.2117-.4732-.473l.0001-5.7631c0-.2613.2119-.473.4731-.473l3.8359-.0001c.2611 0 .473.2119.473.4733l.0002 5.7627c0 .2613-.2121.4732-.4732.4731z"/><path id="_210263648" d="m11.581 13.4373h2.8892v-1.1594h-2.8892zm3.3625.9462h-3.8359c-.2612 0-.4732-.2117-.4732-.473l.0001-2.1057c0-.2615.2119-.4732.4731-.4732l3.8359-.0002c.2611 0 .473.2121.473.4734l.0002 2.1056c0 .2613-.2121.4733-.4732.4731z"/></g></g></svg>