<svg xmlns="http://www.w3.org/2000/svg" width="43.342" height="43.35" viewBox="0 0 43.342 43.35">
  <g id="Layer_x0020_1" transform="translate(-0.004)">
    <g id="_210263936">
      <path id="_210264752" d="M13.005.947a12.079,12.079,0,1,0,.04,24.158A12.075,12.075,0,0,0,23.484,6.991a12,12,0,0,0-7.333-5.627A12.149,12.149,0,0,0,13.005.946Zm.042,25.1a13.018,13.018,0,1,1,6.489-1.742,13.032,13.032,0,0,1-6.489,1.742Z" fill="#07c7a2" fill-rule="evenodd"/>
      <path id="_210264200" d="M26.777,24.511a.469.469,0,0,1-.313-.118l-3.8-3.36a.473.473,0,1,1,.627-.709l3.8,3.36a.473.473,0,0,1-.314.828Zm-2.743,2.744a.472.472,0,0,1-.355-.16L20.32,23.3a.473.473,0,1,1,.709-.627l3.36,3.8a.473.473,0,0,1-.042.668A.467.467,0,0,1,24.034,27.255Z" fill="#07c7a2" fill-rule="evenodd"/>
      <path id="_210264128" d="M23.788,27.7,38.3,42.207,42.2,38.3l-14.51-14.51ZM38.3,43.349a.473.473,0,0,1-.334-.139L22.785,28.032a.472.472,0,0,1,0-.669l4.574-4.575a.473.473,0,0,1,.669,0L43.206,37.967a.473.473,0,0,1,0,.669l-4.574,4.575A.474.474,0,0,1,38.3,43.349Z" fill="#07c7a2" fill-rule="evenodd"/>
      <path id="_210264152" d="M18.788,22.252H7.262a.473.473,0,0,1-.473-.473V12.237a.473.473,0,0,1,.946,0v9.069h10.58V12.237a.473.473,0,1,1,.946,0v9.542A.473.473,0,0,1,18.788,22.252Z" fill="#07c7a2" fill-rule="evenodd"/>
      <path id="_210263912" d="M4.862,13.112l.428.428,7.4-7.4a.473.473,0,0,1,.669,0l7.4,7.4.428-.428L13.025,4.949Zm15.9,1.57a.47.47,0,0,1-.334-.138l-7.4-7.4-7.4,7.4a.474.474,0,0,1-.669,0l-1.1-1.1a.474.474,0,0,1,0-.669l8.833-8.833a.473.473,0,0,1,.669,0l8.832,8.833a.472.472,0,0,1,0,.669l-1.1,1.1a.472.472,0,0,1-.335.138Z" fill="#07c7a2" fill-rule="evenodd"/>
      <path id="_210264056" d="M9.257,8.521a.473.473,0,0,1-.473-.473V5.61a.473.473,0,1,1,.946,0V8.048A.473.473,0,0,1,9.257,8.521Zm-2,1.995a.473.473,0,0,1-.473-.473V5.61a.473.473,0,1,1,.946,0v4.433A.473.473,0,0,1,7.262,10.516Z" fill="#07c7a2" fill-rule="evenodd"/>
      <path id="_210263792" d="M7.071,5.136H9.45V4.753H7.071Zm2.852.946H6.6a.473.473,0,0,1-.473-.473V4.28A.473.473,0,0,1,6.6,3.807H9.923a.473.473,0,0,1,.473.473V5.61A.473.473,0,0,1,9.923,6.083Z" fill="#07c7a2" fill-rule="evenodd"/>
      <path id="_210263720" d="M14.943,22.252a.473.473,0,0,1-.473-.473v-5.29H11.581v5.29a.473.473,0,0,1-.947,0V16.016a.473.473,0,0,1,.473-.473h3.836a.473.473,0,0,1,.473.473v5.763A.473.473,0,0,1,14.943,22.252Z" fill="#07c7a2" fill-rule="evenodd"/>
      <path id="_210263648" d="M11.581,13.437H14.47V12.278H11.581Zm3.363.946H11.108a.473.473,0,0,1-.473-.473V11.8a.473.473,0,0,1,.473-.473h3.836a.473.473,0,0,1,.473.473V13.91A.473.473,0,0,1,14.944,14.384Z" fill="#07c7a2" fill-rule="evenodd"/>
    </g>
  </g>
</svg>
