<svg xmlns="http://www.w3.org/2000/svg" width="273" height="103" viewBox="0 0 273 103">
  <g id="BBB-logo" transform="translate(-20 133)">
    <path id="Path_1" data-name="Path 1" d="M30-131.9a18.288,18.288,0,0,0-4.8,3.2C20-123.9,20-123.9,20-81.2c0,39.8,0,39.9,2.3,43.3A20.043,20.043,0,0,0,29-32.2L33.5-30l124.7-.2,124.7-.3,2.8-2.1a29.452,29.452,0,0,0,5.1-5.4c2.2-3.3,2.2-3.5,2.2-43.4,0-45.3,0-44.9-7.6-49.3l-3.9-2.3-124.5.1C76.7-132.9,31.6-132.5,30-131.9Zm83.5,50.4v50h-41c-40.9,0-41,0-44.6-2.3C21-38,21-38.2,21-81.7c0-43.8,0-43.7,7.6-48,3.9-2.3,4.1-2.3,44.4-2l40.5.2Zm29.9-12.1c2,4.7,3.6,8.7,3.6,9,0,1.6-4.2.4-4.7-1.4-.4-1.6-1.4-2-4.3-2-3,0-4,.5-4.5,2-.6,2-4.5,2.9-4.5,1.1a30.487,30.487,0,0,1,2.1-5.8c1.1-2.6,2.7-6.3,3.4-8.1,2.4-5.7,4.8-4.3,8.9,5.2Zm17.6-6.9c1.9,2.3.2,3.6-3.6,2.9-2.1-.4-4-.2-4.9.6-1.8,1.5-2,6.1-.3,7.8,1.5,1.5,5.4,1.6,6.3.2.9-1.5,2.2-1.2,2.9.7.9,2.3-1.9,4.3-6.2,4.3-4.5,0-9.2-4.6-9.2-9,0-4.7,4.7-9,9.8-9,2.2,0,4.5.6,5.2,1.5Zm16.5-.2c2.4,1.9.4,3.2-4.9,3.2-4.5,0-6.2,1.9-5.2,5.9.8,3.3,3,4.3,6.7,2.9,2.2-.8,3.1-.8,3.9.2,1.5,1.8-2.4,4.5-6.3,4.5-4.1,0-6.7-1.7-8.3-5.6-1.2-2.9-1.2-3.9,0-6.8.8-1.9,2.2-3.9,3.3-4.5,2.5-1.5,8.6-1.4,10.8.2Zm15.5.7c2.4,2.4,2.5,4.8.4,7.8-1.4,2.1-1.4,2.5,0,4.7,2.1,3.2,2,3.5-.7,3.5-1.5,0-2.9-1.1-4-3-1-1.7-2.5-3-3.3-3-.9,0-1.4,1.1-1.4,3,0,2.3-.4,3-2,3-1.9,0-2-.7-2-9v-9h5.5c4.2,0,6,.5,7.5,2Zm17,0c0,1.7-.7,2-4.5,2-3.3,0-4.5.4-4.5,1.5s1.1,1.5,4,1.5c3.3,0,4,.3,4,2s-.7,2-4,2c-2.9,0-4,.4-4,1.5s1.2,1.5,4.5,1.5c3.9,0,4.5.3,4.5,2,0,1.9-.5,2.1-6.7,1.8l-6.8-.3-.3-8.8-.3-8.7H203c6.3,0,7,.2,7,2Zm15.1.9c3.6,3.7,3.8,7.9.6,11.7-1.9,2.2-3.4,2.8-8,3.2l-5.7.4V-102h5.1c4.3,0,5.5.5,8,2.9ZM234-93c0,8.3-.1,9-2,9s-2-.7-2-9,.1-9,2-9S234-101.3,234-93Zm16-7c0,1.5-.7,2-2.5,2-2.4,0-2.5.2-2.5,7s-.1,7-2.5,7-2.5-.2-2.5-7-.1-7-2.5-7c-1.8,0-2.5-.5-2.5-2,0-1.8.7-2,7.5-2S250-101.8,250-100Zm14,0c0,1.7-.7,2-4.5,2-3.3,0-4.5.4-4.5,1.5s1.1,1.5,4,1.5c3.3,0,4,.3,4,2s-.7,2-4,2c-2.9,0-4,.4-4,1.5s1.2,1.5,5.1,1.5c4.3,0,5,.3,4.7,1.7-.3,1.5-1.6,1.9-7.1,2.1l-6.7.3V-102h6.5C263.3-102,264-101.8,264-100Zm13.9-.5c3.3,1.6,4.1,3.3,4.1,8,0,5-4.6,8.5-11.1,8.5H266v-18h4.5a18.991,18.991,0,0,1,7.4,1.5ZM142.5-72.7c1.4,1.1,1.7,2.2,1.2,4.5-.4,1.7-.2,3.4.3,3.7,1.8,1.1,1,5.4-1.2,6.9-1.4,1-4.4,1.6-7.5,1.6H130V-74h5.3C138.2-74,141.4-73.4,142.5-72.7Zm7.5,4c0,6,1.7,9.1,4.6,8.5,1.6-.3,1.9-1.3,2.2-7.1.3-6.5.4-6.7,2.9-6.7s2.5,0,2.1,7.1c-.3,6-.8,7.4-2.7,9a7.647,7.647,0,0,1-10.6-.6c-2.2-2.1-2.5-3.3-2.5-9,0-5.8.2-6.5,2-6.5C149.7-74,150-73.3,150-68.7Zm24.9-3.9c1.6,2-.4,3.1-4.7,2.7-4.3-.3-3.5,1.3,1.3,2.9,4.3,1.4,5.9,3.9,4.6,7.3-1.4,3.7-5.7,4.8-10.6,2.5-2.8-1.2-2.9-1.6-1.5-3.8.7-1.2,1.2-1.2,2.2-.2,1.7,1.7,5.8,1.5,5.8-.3a1.538,1.538,0,0,0-1.5-1.5c-5.6,0-9.2-5.5-6-9C166.6-74.4,173.2-74.7,174.9-72.6Zm7.6,7.6c0,8.1-.1,8.5-2.2,8.8-2.2.3-2.3.1-2.3-8.8s.1-9.1,2.3-8.8C182.4-73.5,182.5-73.1,182.5-65Zm9.9-4.3,3.6,4.6v-4.6c0-4.4.2-4.7,2.5-4.7h2.6l-.3,8.7c-.4,11-1.8,11.8-7.4,4.1l-3.9-5.3-.3,5.3c-.3,4.4-.6,5.2-2.3,5.2s-1.9-.7-1.9-9c0-8.1.2-9,1.9-9C187.9-74,190.3-71.9,192.4-69.3ZM216-72c0,1.7-.7,2-4.5,2-3.3,0-4.5.4-4.5,1.5s1.1,1.5,4,1.5c3.3,0,4,.3,4,2s-.7,2-4,2c-2.9,0-4,.4-4,1.5s1.3,1.5,5.4,1.5c3,0,5.7-.4,6-.9.4-.5,1.8-.5,3.6.2,2.2.8,3.3.8,4.1,0,1-1,.5-1.5-1.7-2.3-4.9-1.7-5.9-2.6-6.2-5.4-.5-3.8,1.4-5.6,5.7-5.6,4.4,0,6.6,1.3,5.8,3.3-.4,1.2-1.5,1.4-4.1,1-4.9-.8-4.5.8.6,3.2,2.9,1.4,4.5,2.8,4.8,4.5.4,1.7.8,2.1,1.4,1.2.5-.8,1.3-.9,2.6-.2,2.6,1.4,6.3,1.3,5.8-.2-.2-.6-1.7-1.6-3.4-2.1-4.2-1.4-5.4-2.6-5.4-5.6,0-3.6,1.7-5.1,6-5.1s6.5,1.3,5.7,3.3c-.4,1.2-1.5,1.4-4.1,1-4.3-.7-5,1.3-.8,2.3,6,1.5,8.3,6.8,4,9.8-2.8,2-5.5,2-9.1.1-2.6-1.3-3.1-1.3-5,0a8.463,8.463,0,0,1-9.4,0c-1.9-1.3-2.2-1.3-2.7,0-.4,1.1-2.2,1.5-7.1,1.5H203V-74h6.5C215.3-74,216-73.8,216-72Z" fill="#919191"/>
    <path id="Path_2" data-name="Path 2" d="M63.1-119.3c-6.9,9.6-5.5,14.7,6.4,22.8,5.5,3.9,7.2,6.7,6.2,10.5-.3,1.1-.4,2-.2,2a56.627,56.627,0,0,0,4.9-6.5c8.1-11.2,7.4-15.6-3.8-23.6-8-5.8-9.9-7.8-9.2-9.6C68.4-126.3,67-124.9,63.1-119.3Z" fill="#919191"/>
    <path id="Path_3" data-name="Path 3" d="M57.6-95.2c-4.2,6.1-3.4,9.5,3.4,15.1,3,2.4,5.7,5.1,6,5.8.4,1.1,1.4.3,3.3-2.4,4.5-6.5,3.7-9.7-3.5-14.9-2.7-2.1-5.3-4.6-5.7-5.6C60.5-98.9,60.1-98.7,57.6-95.2Z" fill="#919191"/>
    <path id="Path_4" data-name="Path 4" d="M50-68.5c0,1.1,1.1,1.5,4.1,1.5,3.6,0,4.1.3,5,3,1.1,3,1.2,3,8.4,3h7.3l.7-3c.6-2.8,1-3,5.2-3,3.1,0,4.3-.4,4.1-1.3-.4-.9-5-1.3-17.6-1.5C52.3-70,50-69.8,50-68.5Z" fill="#919191"/>
    <path id="Path_5" data-name="Path 5" d="M40.7-57.3c-.4.3-.7,4.8-.7,10V-38h6.3c9.3,0,13-3.5,9.3-8.5a3.344,3.344,0,0,1-.4-3.9c1.6-2.9-.5-6.2-4.2-7C46.8-58.2,41.5-58.2,40.7-57.3Zm10.9,4.5c1,1.5-2.4,3.8-5,3.4a2.864,2.864,0,0,1-2.4-2.4c-.3-1.9.1-2.2,3.2-2.2C49.3-54,51.2-53.5,51.6-52.8Zm.9,8.8c0,1-1.3,1.6-4.2,1.8-3.8.3-4.3.1-4.3-1.8s.5-2.1,4.3-1.8C51.2-45.6,52.5-45,52.5-44Z" fill="#919191"/>
    <path id="Path_6" data-name="Path 6" d="M59-47.9v10.1l7.1-.4c5.5-.3,7.4-.8,8.5-2.3,1.9-2.6,1.8-4.1-.7-6.4-1.3-1.2-1.7-2.1-1-2.6.6-.3,1.1-1.9,1.1-3.5,0-2.3-.6-3-3.1-3.9A28.828,28.828,0,0,0,63.4-58H59Zm11.6-5c.9,1.6-.8,2.9-4.2,3.2-2.3.2-3-.2-3.2-2.1-.3-1.9.1-2.2,3.2-2.2C68.3-54,70.2-53.5,70.6-52.9Zm.9,8.9c0,1-1.3,1.6-4.2,1.8-3.8.3-4.3.1-4.3-1.8s.5-2.1,4.3-1.8C70.2-45.6,71.5-45,71.5-44Z" fill="#919191"/>
    <path id="Path_7" data-name="Path 7" d="M78-48v10h5.4C91.2-38,94-39.3,94-42.9A6.345,6.345,0,0,0,92.5-47c-1.1-.9-1.2-1.6-.4-2.6,1.7-2.1.6-5.7-2.1-7.1A19.721,19.721,0,0,0,82.8-58H78Zm11-4c0,1.1-.6,2-1.2,2.1a18.218,18.218,0,0,0-3.5.5c-1.9.3-2.3-.1-2.3-2.1,0-2.2.4-2.5,3.5-2.5C88.3-54,89-53.6,89-52Zm1,8c0,1.7-.7,2-4,2s-4-.3-4-2,.7-2,4-2S90-45.7,90-44Z" fill="#919191"/>
    <path id="Path_8" data-name="Path 8" d="M136.7-94c-.4,1.5,0,2,1.4,2,1.7,0,1.8-.3.9-2-.6-1.1-1.2-2-1.4-2S137-95.1,136.7-94Z" fill="#919191"/>
    <path id="Path_9" data-name="Path 9" d="M184-96c0,1.5.7,2,2.8,2,3.4,0,4.3-.7,3.5-2.6-.3-.8-1.8-1.4-3.4-1.4C184.7-98,184-97.5,184-96Z" fill="#919191"/>
    <path id="Path_10" data-name="Path 10" d="M216-93c0,4.6.2,5,2.3,5,3,0,4.7-1.8,4.7-5s-1.7-5-4.7-5C216.2-98,216-97.6,216-93Z" fill="#919191"/>
    <path id="Path_11" data-name="Path 11" d="M270-93c0,4.6.2,5,2.4,5,2.9,0,5.6-2.4,5.6-5s-2.7-5-5.6-5C270.2-98,270-97.6,270-93Z" fill="#919191"/>
    <path id="Path_12" data-name="Path 12" d="M134-68.4c0,1.1.8,1.4,2.7,1.2,3.9-.4,4.2-2.8.4-2.8C135-70,134-69.5,134-68.4Z" fill="#919191"/>
    <path id="Path_13" data-name="Path 13" d="M134-61.7c0,1.5.6,1.8,3.2,1.5,4.4-.4,4.7-2.5.3-3C134.6-63.5,134-63.3,134-61.7Z" fill="#919191"/>
  </g>
</svg>
