<svg xmlns="http://www.w3.org/2000/svg" width="399.57" height="256.041" viewBox="0 0 399.57 256.041">
  <g id="svgg" transform="translate(-0.199 -0.24)">
    <path id="path0" d="M183.654.379c-33.342,1.689-64.566,6.167-87.18,12.5C73.028,19.452,52.909,27.512,41.1,35.067A41.2,41.2,0,0,1,36.286,37.8c-2.427.931-11.522,7.8-15.42,11.644a29.058,29.058,0,0,1-4.254,3.762c-2.4,0-12.28,16.293-14.772,24.359-2.164,7-2.194,31.179-.048,38.141,5.485,17.8,20.392,32.867,45.227,45.72,9.8,5.073,24.481,11.652,26,11.652a76.037,76.037,0,0,1,8.351,2.524c19.5,6.64,41.8,11.709,59.336,13.49,3.878.394,10.8,1.119,15.385,1.61a426.6,426.6,0,0,0,87.82-.06c4.936-.543,12.869-1.382,17.628-1.865,16.559-1.682,36.994-6.4,57.147-13.184a78.254,78.254,0,0,1,8.39-2.515c1.477,0,14.777-5.932,24.528-10.94,26.3-13.51,41.178-28.489,46.842-47.171,1.9-6.258,1.714-30.923-.278-37.4a58.39,58.39,0,0,0-17.379-26.542,29.985,29.985,0,0,1-4.506-4.208c0-.619-9.606-7.493-12.274-8.783a19.7,19.7,0,0,1-3.111-1.837c-3.128-2.6-23.746-12.61-27.7-13.456a10.213,10.213,0,0,1-2.745-.918C328.237,20.206,301.768,12,291.026,9.6c-11.391-2.545-40.3-6.69-55.643-7.976C224,.671,192.752-.082,183.654.379m55.083,3.736c38.04,3.953,50.159,6.335,79.212,15.567,10.865,3.453,19.03,6.542,25,9.457,32.488,15.863,48.33,30.95,53.54,50.989,2.9,11.139-.888,25.912-9.262,36.161-6.917,8.464-21.736,20.709-30.5,25.2-51.6,26.441-109.23,36.54-185.564,32.515-49.162-2.591-90.154-13.011-127.9-32.51a156.989,156.989,0,0,1-16.133-11.126,19.9,19.9,0,0,0-2.979-2.161c-.609,0-9.395-9.391-12.663-13.535C-.058,100.02-.183,78.9,11.192,63.205c6.643-9.167,21.937-22.145,31.115-26.4,1.587-.736,5.193-2.634,8.014-4.217,17.35-9.738,61.446-23.146,83.012-25.241,2.292-.222,8.35-.937,13.462-1.588s13.333-1.5,18.269-1.88,10.273-.8,11.859-.933c7.548-.619,52.845.24,61.814,1.172m-62.455,13.86c-11.864.674-25.675,2.127-36.218,3.81l-7.692,1.228,9.936-.437c61.625-2.713,106.982,1.318,142.628,12.676,3.173,1.011,6.741,2.033,7.93,2.271,3.332.668,19.334,7.571,24.376,10.515,2.479,1.449,6.033,3.4,7.9,4.329,22.157,11.09,34.688,34.156,28.054,51.639-3.171,8.359-16.284,24.2-20.032,24.2a8.776,8.776,0,0,0-2.725,1.849c-3.529,3.1-19,11.53-24.381,13.288a73.783,73.783,0,0,0-7.324,2.772c-1.241.614-5.807,2.238-10.148,3.61s-7.645,2.575-7.342,2.677c.814.271,16.645-3.807,25.491-6.567,4.231-1.32,8.557-2.611,9.615-2.868,5.231-1.275,24.227-10.146,28.323-13.226a8.02,8.02,0,0,1,2.813-1.535c2.84,0,18.495-14.107,22.964-20.693a33.944,33.944,0,0,0,1.794-35.624c-2.072-3.648-12.906-15.721-15.783-17.588-1.26-.818-4.742-3.1-7.739-5.068-6.335-4.164-19.636-11.117-22.451-11.735-1.066-.235-4.888-1.576-8.494-2.981-19.686-7.673-40.424-12.049-74.183-15.655-11.118-1.187-52.425-1.731-67.308-.886m-50,5.764c-1.034.346-.353.406,1.923.17a20.921,20.921,0,0,0,3.793-.6c.513-.45-4.128-.1-5.716.428M81.731,47.21c-7,1.122-10.747,2.363-19.231,6.374C52.376,58.37,44.231,73.035,44.231,86.476c0,35.652,42.515,53.1,75.527,30.991l6.2-4.154,1.863,1.064c3.816,2.178,3.084-.072-2.261-6.95-4.8-6.174-7.878-8.563-7.047-5.466.962,3.584.866,3.926-1.926,6.815-12.514,12.951-40.117,12.722-53.076-.44C45.877,90.422,54.88,61.906,80.128,55.717c13.582-3.33,37.5,3.062,37.5,10.021,0,5.048,1.791,3.763,6.772-4.859,4.307-7.454,4.26-9.443-.146-6.274-.845.608-1.579.551-3.526-.274-14.59-6.183-28.738-8.766-39-7.121m59.936,2.469c0,.529.3.962.67.962a5.644,5.644,0,0,1,2.243,1.573l1.574,1.574v32.68c0,34.27-.109,35.649-2.862,36.34-1.033.259-1.625.856-1.625,1.638,0,1.164.5,1.22,9.4,1.052,9.912-.187,11.694-.782,8.024-2.68-2.678-1.385-2.708-1.578-2.748-17.62l-.036-14.493,13.495-.173,13.494-.173,1.746,2.737a44.916,44.916,0,0,0,2.852,4.019,42.837,42.837,0,0,1,3.333,5.492c1.225,2.315,3.338,5.88,4.7,7.922,7.113,10.689,7.585,11.779,5.356,12.362A1.729,1.729,0,0,0,200,124.434c0,1.128.626,1.207,9.615,1.207,8.819,0,9.616-.1,9.616-1.149,0-.744-.736-1.366-2.084-1.763-2.145-.632-7.138-7.027-9.987-12.793-1.177-2.383-3.014-5.3-9.306-14.775-3.472-5.229-3.471-5.223-.3-5.748,24.194-4.005,25.771-34.713,2.04-39.741-6.618-1.4-57.925-1.4-57.925.007m118.589-.1c0,.472.758,1.2,1.683,1.625,2.406,1.1,1.893,3.185-3.554,14.486a101.136,101.136,0,0,0-4.539,10.223,22.6,22.6,0,0,1-1.861,4.6c-6.889,14.023-13.523,28.073-13.523,28.637,0,3.175-5.969,12.532-8.729,13.685-1.475.616-2.013,1.19-1.753,1.867.6,1.573,19.028,1.1,19.335-.5.123-.643-.174-1.122-.694-1.122-3.845,0-3.633-3.123.849-12.509l3.21-6.722,20.012.013,20.013.013,3.686,7.875c4.165,8.9,4.394,10.161,2.033,11.236-3.664,1.669-1.4,2.333,8.6,2.514,9.395.171,9.723.134,9.723-1.121,0-.715-.267-1.3-.592-1.3-2.4,0-7.366-7.5-12.1-18.269-5.974-13.6-7.411-16.774-11.191-24.68C283.956,65.677,279.487,55.1,279.487,53.2a2.513,2.513,0,0,1,1.6-2.032c4.135-1.884,1.922-2.447-9.616-2.447-8.946,0-11.218.174-11.218.859m-67.628,6.861c14.542,2.085,20.12,17.5,8.753,24.18L198.4,82.372l-21.153.192-21.154.192.157-13.333c.086-7.333.158-13.4.16-13.494.01-.487,32.452-.031,36.221.509m82.68,12.793c2.372,5.112,5.143,11.039,6.159,13.17a108.255,108.255,0,0,1,4.861,12.631c.337,1.049-.712,1.122-16.061,1.122-9.031,0-16.421-.108-16.421-.241,0-.3,3.438-7.834,7.206-15.785,6.4-13.5,7.429-15.816,8.216-18.45,1.02-3.419.851-3.63,6.04,7.553M98.218,64.389c-.708.9-1.615,1.637-2.016,1.637a1.494,1.494,0,0,0-1.118,1.013,1.259,1.259,0,0,1-1.635.687c-.953-.249-1.461.19-2.164,1.872-1.094,2.618-1.677,2.722-3.35.594-2.194-2.79-3.318.1-3.668,9.45a31.792,31.792,0,0,1-.616,6.26c-.681,1.1-1.6.026-1.6-1.87,0-2.871-1.286-5.874-2.432-5.679-.665.113-1.229-.551-1.63-1.917-.338-1.149-.935-2.016-1.328-1.926s-1.785-.989-3.093-2.4l-2.379-2.562-.135,2.564c-.074,1.411-.092,3.274-.039,4.142a2.5,2.5,0,0,1-.668,2.051c-.553.342-.362,1.018.691,2.442,1.7,2.3,1.434,3.176-.83,2.743-.89-.17-1.618-.1-1.618.147,0,.806,2.181,4.181,2.7,4.181.277,0,.5.432.5.961a.957.957,0,0,0,.947.962c1.1,0,3.172,2.885,2.661,3.712-.192.31-1.937.433-3.878.272L68,93.435l.778,1.681a4.179,4.179,0,0,0,1.9,2.044,1.569,1.569,0,0,1,1.122,1.281c0,.9,1.064,1.191,3.455.936.934-.1,1.131.177.861,1.209-.444,1.7-.325,1.686,3.775-.39,4.921-2.492,5.142-.506.814,7.326-2.081,3.768-2.262,4.657-.945,4.657.578,0,1.65-2.225,2.948-6.121,2.278-6.837,2.918-7.166,4.5-2.312,1.182,3.623,1.9,4.792,1.9,3.092,0-1.413.827-1.352,2.2.163.892.986,1.712,1.17,4.1.921,1.645-.171,3.352-.34,3.793-.377,1.305-.108.935-.943-1.443-3.252-3.056-2.969-2.492-4.573,1.282-3.646a5.116,5.116,0,0,0,1.283.116c.635-.041,5.176-.551,6.41-.721.352-.048-.19-.768-1.205-1.6-2.031-1.66-2.015-1.675,2.653-2.615,1.231-.248,1.917-.7,1.67-1.1-.23-.373.128-1.142.8-1.711a42.77,42.77,0,0,0,3.067-3.086l1.853-2.052-3.456.226c-2.085.136-3.631-.058-3.9-.489-.313-.5-1.113-.4-2.724.374-1.956.932-2.282.952-2.282.137,0-1.516-1-1.13-4.167,1.613-2.711,2.346-4.166,3.119-4.166,2.211,0-.993,2.118-4.063,4.122-5.976,1.246-1.19,2.128-2.386,1.96-2.658s.083-.644.558-.826c.714-.274,3.616-4.987,3.616-5.872,0-.143-.973-.1-2.162.091-2.731.443-3.209-.336-1.992-3.248.783-1.873.8-2.312.111-2.312-.609,0-.887-1.138-.964-3.947-.131-4.738-.252-4.917-1.9-2.818M363.141,173.638c1.915.408,1.924.431,2.11,5.373.247,6.531,1.416,6.43,1.416-.122,0-5.056.01-5.087,1.762-5.353.97-.147-.256-.276-2.724-.287-2.833-.013-3.778.13-2.564.389m8.654.9c0,.856-.185,3.329-.412,5.5-.289,2.767-.194,3.94.321,3.94.466,0,.732-1.38.732-3.808,0-5.09.837-5.323,2.259-.627,1.574,5.2,1.869,5.18,3.7-.208l1.578-4.652.483,4.648c.68,6.543,1.8,5.965,1.241-.641a44.687,44.687,0,0,0-.658-5.528c-.758-.861-2.109.98-3.18,4.335l-1.251,3.914-1.337-4.005c-1.407-4.215-3.472-5.919-3.472-2.864M41.236,221.447c-4.832,2.1-5.315,11.181-.722,13.556,3.864,2,10.954.278,9.362-2.27-.673-1.078-.764-1.076-1.894.054-3.087,3.087-7.918.486-7.918-4.261,0-4.589,5.957-7.833,7.944-4.327.6,1.068,2.529-.274,2.613-1.822.079-1.484-6.591-2.145-9.385-.93m110.046-.32-3.526.347V235.9h2.122c1.476,0,1.977-.232,1.649-.764a8.657,8.657,0,0,1-.615-2.92c-.231-3.448,3.216-2.811,5.1.941,1.1,2.184,1.7,2.71,3.122,2.725,2.168.022,2.169-.037.027-3.273l-1.735-2.622,1.735-1.264c5.362-3.906.662-8.435-7.88-7.594m83.974.361c0,.964-3.691,10.592-4.848,12.647-.987,1.751-.981,1.762.921,1.762,1.5,0,1.96-.314,2.12-1.442.288-2.029,5.848-2.513,6.873-.6.362.677.476,1.413.254,1.636s.659.4,1.96.4c2.3,0,2.341-.037,1.428-1.442-1.217-1.874-4.861-11.373-4.861-12.672,0-.693-.6-1-1.924-.978-1.057.014-1.923.321-1.923.683m-181.05,7.251c-.951,3.056-1.878,5.916-2.059,6.357-.6,1.458,1.382.831,2.028-.641,1.13-2.576,7.444-2,6.451.584-.23.6.247.858,1.574.858,2.1,0,2.207-.151,1.234-1.771-.367-.612-1.489-3.249-2.492-5.859-2.759-7.178-4.39-7.064-6.736.472m12.14.908c0,5.831.087,6.25,1.287,6.25,1.127,0,1.259-.349,1.062-2.82-.4-5.061.011-5.2,3.1-1.068,2.168,2.9,3.282,3.865,4.487,3.876l1.6.015-.205-6.091c-.183-5.468-.327-6.091-1.413-6.091-1.042,0-1.234.58-1.4,4.221l-.19,4.222-2.724-3.87a26.437,26.437,0,0,1-2.724-4.381c0-.282-.649-.513-1.443-.513-1.4,0-1.442.2-1.442,6.25m41.026-.141c0,6.387,0,6.389,1.6,6.392l1.6,0-.2-6.275c-.189-5.925-.278-6.282-1.6-6.392-1.356-.113-1.4.092-1.4,6.273m18.791.045-.2,6.349h1.607c1.5,0,1.593-.182,1.385-2.791-.42-5.283.051-6.249,1.607-3.3a16.772,16.772,0,0,0,2.689,3.771c.734.664,1.181,1.458.992,1.763s.467.555,1.457.555h1.8v-6.25c0-5.841-.085-6.25-1.294-6.25s-1.275.334-1.049,4.327c.134,2.38-.016,4.327-.334,4.327-.688,0-4.695-6.455-4.695-7.563a.85.85,0,0,0-.8-.819,18.052,18.052,0,0,1-1.882-.258c-.944-.182-1.106.593-1.282,6.14m31.209-4.23c0,2.381-6.167,3.093-6.616.763-.466-2.419.36-3.088,3.564-2.882,2.92.187,3.052.278,3.052,2.119m5.45,4.326v6.25h5.428c4.562,0,5.37-.153,5.06-.961-.265-.69-1.345-.962-3.826-.962-3.3,0-3.457-.077-3.457-1.67,0-1.561.166-1.654,2.564-1.425,2.282.218,2.564.091,2.564-1.154,0-1.261-.251-1.364-2.564-1.054-2.429.326-2.564.255-2.564-1.343,0-1.613.151-1.687,3.451-1.687,2.747,0,3.51-.229,3.744-1.122.263-1-.276-1.122-5.052-1.122h-5.346v6.25m13.14,0c0,5.371.148,6.249,1.054,6.25s1.012-.608.764-4.165c-.358-5.158.016-5.156,3.63.017,2.232,3.195,3.248,4.133,4.487,4.141l1.6.011-.2-6.027c-.177-5.278-.353-6.067-1.415-6.345-1.093-.286-1.232.129-1.4,4.164l-.187,4.481-2.724-3.954a30.93,30.93,0,0,1-2.725-4.388c0-.238-.649-.434-1.442-.434-1.4,0-1.442.195-1.442,6.249m13.141-5.127c0,.825.521,1.122,1.971,1.122h1.972l-.209,5.13c-.208,5.1-.2,5.129,1.394,5.129s1.6-.029,1.393-5.129l-.209-5.13h2.293c1.755,0,2.292-.263,2.292-1.122,0-.98-.687-1.122-5.449-1.122s-5.448.142-5.448,1.122m24.238,5.13-.2,6.251h4.968c3.988,0,4.968-.191,4.968-.963,0-.74-.826-.962-3.591-.962h-3.592l.226-5.371c.218-5.187.178-5.368-1.177-5.288-1.327.078-1.413.421-1.6,6.334m35.579-5.927c-3.539,1.426-2.92,5.939.928,6.761,5.268,1.126,6.087,3.035,1.448,3.373-1.779.129-2.966-.1-3.316-.641-.441-.683-.661-.662-1.157.111-.454.706-.246,1.158.8,1.74,3.605,2,9.736-.1,8.958-3.067-.322-1.231-1.267-1.806-6.1-3.712-.97-.383-1.763-1.129-1.763-1.658,0-1.491,3.17-1.993,5.206-.825q2.484,1.427,2.486-1.114c0-1.112-5.4-1.81-7.49-.968m11.977.18c-3.958,1.992-1.953,6.212,3.4,7.151,2.233.392,3.7,1.807,2.8,2.7-.682.682-5.643.3-6.616-.5-.777-.645-1.073-.623-1.527.113-.788,1.274,1.577,2.479,4.917,2.508,6.384.054,7.355-5.328,1.236-6.844-3.6-.892-4.539-1.606-3.994-3.026.5-1.3,4.163-1.33,5.981-.057,1.23.861,1.383.836,1.675-.282.567-2.168-4.717-3.351-7.872-1.764m13.032.109c-6.234,2.712-3.819,11.886,3.128,11.886,4.351,0,6.917-2.056,6.917-5.543,0-5.978-4.439-8.781-10.045-6.343m14.777.29c-3.948,2.407-4.259,8.031-.57,10.311,3.605,2.228,11.219,1.112,8.4-1.231q-1.017-.845-1.019-.126c0,.973-5.3.931-6.282-.05-3.328-3.328,1.6-10.042,5.356-7.3.877.641,1.479.712,2.046.242,2.9-2.4-4.275-4.077-7.927-1.85M300,223.648c-1.682.683-1.379,12.251.321,12.252,1.18,0,1.268-.368,1.106-4.649-.289-7.647-.361-8.036-1.427-7.6m15.386.871c0,.826.519,1.122,1.971,1.122h1.971l-.209,5.13c-.208,5.1-.2,5.129,1.4,5.128s1.606-.021,1.374-5.13l-.233-5.128h2.312c1.773,0,2.311-.261,2.312-1.122,0-.98-.686-1.122-5.448-1.122s-5.448.142-5.449,1.122m12.819,5.028c0,6.158.044,6.35,1.442,6.352,2.068,0,1.875-11.835-.2-12.378-1.164-.3-1.24.064-1.24,6.026m7.671-5.028c-6.048,4.088-2.491,12.045,5.007,11.2,3.649-.411,5.271-2.144,5.271-5.632,0-6.181-5.2-9-10.278-5.568m11.88,5.071c0,6.3,0,6.307,1.6,6.309,1.573,0,1.6-.079,1.383-4.327-.12-2.381-.086-4.184.076-4.008,2.374,2.578,6.055,7.657,5.762,7.95-.211.211.458.383,1.486.382h1.87v-6.252c0-5.825-.089-6.257-1.3-6.332s-1.281.226-1.049,4.33c.137,2.426,0,4.408-.3,4.4-.408,0-4.069-5.252-5.7-8.168a7.51,7.51,0,0,0-1.959-.378l-1.87-.218v6.308m-265.57-.567c-1.16,2.9-2.272,5.632-2.472,6.073-.244.536.225.8,1.414.8.978,0,1.6-.182,1.373-.4-1.011-1.012.96-2.8,3.086-2.8,1.822,0,2.28.281,2.611,1.6a1.771,1.771,0,0,0,2,1.6c1.048,0,1.476-.276,1.238-.8-.2-.441-1.313-3.179-2.473-6.085-2.86-7.169-3.909-7.167-6.781.012m11.724.848v6.153l4.167-.247c6.046-.359,7.692-1.628,7.692-5.931,0-4.864-1.529-6.128-7.413-6.128H93.91v6.153m21.794-3.429a29.729,29.729,0,0,1-1.944,6.09c-1.41,3.145-1.432,3.365-.332,3.365.727,0,1.334-.625,1.588-1.638.577-2.3,5.691-2.133,6.022.2.157,1.1.626,1.442,2,1.442h1.8l-2.6-6.089c-3.14-7.359-5.69-8.673-6.536-3.366m87.5-1.813a37.542,37.542,0,0,1-2.184,6.089l-2.184,5.179h1.473c1.047,0,1.593-.475,1.886-1.64.571-2.275,5.053-2.11,5.381.2.158,1.116.624,1.442,2.057,1.442h1.852l-1.543-3.072a38.6,38.6,0,0,1-2.35-6.089c-.812-3.035-4.388-4.753-4.388-2.107m104.259,2.917a43.313,43.313,0,0,1-2.4,6.084l-1.215,2.267H305.3a2.3,2.3,0,0,0,2.085-1.442c.872-1.986,5.052-2.4,6.017-.6.363.679.478,1.416.256,1.639s.372.4,1.321.4c1.7,0,1.714-.023.748-1.891a8.691,8.691,0,0,1-.978-2.8c0-6.979-5.4-9.7-7.28-3.661m-69.4-1.184c.731,3.656.526,4.407-1.2,4.407-1.811,0-1.907-.438-.86-3.932.9-3,1.528-3.145,2.062-.475m42.548.4c2.259,2.958.476,7.214-3.022,7.214-3.074,0-4.51-1.326-4.51-4.166,0-4.069,5.157-6.157,7.532-3.048m62.048-.187c3.186,3.187,1.546,7.4-2.881,7.4-2.934,0-3.982-1.088-4.071-4.229-.121-4.262,3.987-6.136,6.952-3.172M58.945,230.288c.02.777-.463,1.122-1.573,1.122-1.834,0-1.85-.067-.865-3.525l.73-2.564.84,1.923a10.68,10.68,0,0,1,.868,3.044m27.482-1.282c.62,2.295.578,2.4-.9,2.4-1.651,0-1.8-.5-1.142-3.806.479-2.4,1.141-1.942,2.044,1.4m16.009-2.6c2.568,2.569.451,7.564-3.2,7.564H96.795v-8.333h2.436a5.728,5.728,0,0,1,3.2.769m17.387,4.2c.029.474-.737.8-1.874.8-2.15,0-2.154-.005-1.334-2.053.323-.81.789-2.049,1.034-2.754.442-1.273,2.031,1.656,2.174,4.006m86.825-.962c.4,1.635.284,1.763-1.551,1.763-2.121,0-2.137-.157-.458-4.487.687-1.773,1.029-1.309,2.009,2.724m105.483.962c.028.471-.731.8-1.841.8-2.024,0-2.023.007-.225-5.128.327-.934,1.953,2.471,2.066,4.327m-15.748,13.616c-5.567,2.247-3.9,11.544,2.072,11.544,2.6,0,5.391-1.2,5.391-2.308,0-1.3-1.062-1.613-1.929-.569-2.619,3.156-8.357-1.166-6.4-4.822,1.374-2.566,7-2.862,7.068-.371.012.384.444.139.962-.546,1.556-2.058-3.847-4.266-7.163-2.928m-254.075.91a24.315,24.315,0,0,1-1.923,4.968c-2.273,4.805-2.365,5.666-.6,5.666.726,0,1.158-.262.96-.583-.918-1.486.48-2.622,3.226-2.622,2.456,0,2.853.2,3.206,1.6.286,1.139.836,1.6,1.9,1.6h1.5L48.957,252.4c-.894-1.851-2.106-4.444-2.695-5.763-1.087-2.437-3.954-3.529-3.954-1.506M180.128,250v5.769h4.808c3.846,0,4.808-.192,4.808-.961,0-.738-.819-.962-3.526-.962-1.939,0-3.542-.216-3.563-.481s-.067-2.427-.1-4.807c-.058-3.749-.225-4.327-1.246-4.327-1.056,0-1.178.6-1.178,5.769M52.984,247.326c-1.9,2.1-.834,3.771,2.9,4.535,1.117.229,2.137.734,2.267,1.124.337,1.012-2.819,1.657-4.281.875-.864-.462-1.362-.445-1.672.056-1.214,1.965,5.263,2.6,7,.681,2.268-2.507.179-5.22-4.05-5.258-2.131-.02-2.189-.075-1.013-.965,1.135-.859,2.007-.825,4.681.18.441.166.8-.129.8-.654,0-1.9-5.033-2.339-6.631-.574m10.219-.335c-2.244,1.641-1.085,3.9,2.342,4.559,3.109.6,4.033,1.9,1.847,2.59a5.387,5.387,0,0,1-2.926-.278c-2.21-.84-2.287-.832-2.287.236,0,1.693,5.426,2.4,6.924.9,2.247-2.248.229-5.641-3.356-5.641-.9,0-1.644-.258-1.644-.572,0-.969,1.851-1.347,3.508-.717q1.574.6,2-.089c1.048-1.7-4.31-2.524-6.408-.99M73.3,247.8a4.7,4.7,0,0,0,3.447,7.97c2.977,0,4.4-.886,5.227-3.249,1.807-5.184-4.68-8.715-8.674-4.721m11.885-.289c-1.639,1.639-1.354,6.1.475,7.435,2.424,1.773,9.476.017,7.574-1.885-.2-.2-1.218.069-2.267.593-2.579,1.286-5.067-.179-5.067-2.984,0-2.246,1.466-2.89,5.156-2.267,2.874.486,3.389-.372.9-1.5-2.513-1.145-5.266-.9-6.775.612m10.331,3.452c0,4.151.153,4.807,1.122,4.807s1.121-.656,1.121-4.807-.153-4.808-1.121-4.808-1.122.656-1.122,4.808m6.83-2.077c-.65,1.5-1.591,3.655-2.091,4.8-.857,1.962-.835,2.083.38,2.083a1.134,1.134,0,0,0,1.291-1.282c0-1.044.427-1.282,2.3-1.282,1.764,0,2.382.3,2.639,1.282a1.713,1.713,0,0,0,1.6,1.282c.693,0,1.164-.245,1.047-.544-3.605-9.19-5.281-10.673-7.166-6.34m6.631-1.77c0,.629.63.962,1.82.962,1.81,0,1.82.021,1.7,3.846-.1,3.239.056,3.846.974,3.846s1.065-.586.92-3.846c-.162-3.682-.1-3.846,1.373-3.846.944,0,1.543-.373,1.543-.962,0-.756-.891-.961-4.167-.961s-4.167.2-4.167.961m10.257,3.847c0,4.151.153,4.807,1.122,4.807s1.121-.656,1.121-4.807-.153-4.808-1.121-4.808-1.122.656-1.122,4.808m5.881-3.325a5.14,5.14,0,0,0-.112,6.85,4.825,4.825,0,0,0,7.005-.407c3.83-4.869-2.667-10.941-6.893-6.443m10.144,3.325c0,4.151.154,4.807,1.122,4.808.949,0,1.088-.5.9-3.205-.275-3.971.194-3.968,3.427.022,3.7,4.564,4.487,4.279,4.487-1.625,0-4.11-.159-4.808-1.1-4.808-.849,0-1.086.543-1.048,2.4.027,1.322.016,2.666-.025,2.986s-1.344-.761-2.895-2.4c-4.115-4.355-4.872-4.072-4.872,1.822m17.949,0v4.807h3.447c4.185,0,5.207-.972,5.207-4.958,0-3.549-1.326-4.657-5.571-4.657h-3.083v4.808m11.218,0v4.807h4.327c3.419,0,4.327-.2,4.327-.961,0-.727-.784-.962-3.205-.962-2.778,0-3.2-.171-3.2-1.282,0-1.036.427-1.282,2.223-1.282,1.748,0,2.142-.213,1.841-1-.239-.622-.992-.923-2.007-.8-.894.108-1.746-.165-1.9-.606-.192-.571.666-.8,2.989-.8,2.47,0,3.259-.233,3.259-.962,0-.759-.908-.961-4.327-.961h-4.327v4.808m28.391-4.13c-1.646.959-2.1,4.56-.867,6.936,2.114,4.088,8.694,2.048,8.694-2.7,0-3.811-4.439-6.216-7.827-4.241m11.324.9c-4.187,4.187.754,9.875,6.358,7.321.918-.418,1.443-1.084,1.25-1.586-.278-.725-.61-.726-2.033-.008-1.887.952-3.229.7-4.4-.834-2.01-2.619.2-4.974,4-4.262,2.617.491,3.41-.469,1.215-1.469-2.53-1.153-4.681-.871-6.389.838m12.308,1.158c-.65,1.5-1.592,3.655-2.092,4.8-.857,1.962-.834,2.083.381,2.083a1.135,1.135,0,0,0,1.291-1.282c0-1.068.427-1.282,2.564-1.282s2.564.214,2.564,1.282a1.122,1.122,0,0,0,1.206,1.282c1.35,0,1.039-1.393-1.536-6.874-1.617-3.44-2.885-3.443-4.378-.01m6.631-1.77c0,.607.612.962,1.659.962,1.626,0,1.655.08,1.443,3.847-.188,3.32-.064,3.847.9,3.846.944,0,1.122-.612,1.122-3.847,0-3.675.071-3.846,1.6-3.846,1,0,1.6-.363,1.6-.962,0-.756-.89-.961-4.166-.961s-4.167.2-4.167.961m10.256,3.847c0,4.151.153,4.807,1.122,4.807s1.122-.656,1.122-4.807-.153-4.808-1.122-4.808-1.122.656-1.122,4.808m5.485-3.383c-2.492,3.558-.524,8.19,3.48,8.19,4.489,0,6.821-5.246,3.654-8.221-2.04-1.917-5.781-1.9-7.134.031m10.861,3.381c0,3.844.193,4.807.962,4.808s.914-.682.739-3.2c-.276-3.989.269-3.985,3.107.022,3.276,4.626,4.167,4.279,4.167-1.625,0-4.107-.16-4.808-1.1-4.808-.874,0-1.053.483-.887,2.4a9.088,9.088,0,0,1-.058,2.872c-.334.592-4.05-3.592-4.05-4.559,0-.4-.649-.717-1.442-.718-1.368,0-1.443.249-1.443,4.807m17.308,0v4.807h3.266c3.965,0,5.644-1.464,5.644-4.922,0-3.116-1.995-4.693-5.936-4.693h-2.974v4.808M278.2,249.9c0,5.071,4.867,8.336,7.553,5.067,1.274-1.55,1.257-8.817-.021-8.815-.941,0-1.122.609-1.122,3.778,0,2.767-.257,3.877-.961,4.147-2.47.948-3.9-1.438-3.4-5.682.213-1.828.049-2.242-.892-2.242-.978,0-1.153.567-1.153,3.747m30.769-2.8a21.738,21.738,0,0,1-1.868,4.808c-1.669,3.446-1.745,3.856-.715,3.856a1.706,1.706,0,0,0,1.487-1.282c.257-.982.874-1.282,2.639-1.282,2.1,0,2.634.469,2.379,2.083-.041.265.507.481,1.219.481,1.54,0,1.263-2.147-.729-5.645a9.274,9.274,0,0,1-1.207-3.045c0-.559-.633-.925-1.6-.925-.99,0-1.6.364-1.6.951m8.4,3.857c.091,3.95.3,4.807,1.146,4.808s.993-.591.812-3.205c-.273-3.947.177-3.947,3.427,0,3.736,4.535,4.488,4.267,4.488-1.6,0-3.966-.179-4.808-1.019-4.808-.77,0-.991.587-.9,2.4.169,3.555-.1,3.594-3.192.459-4.165-4.224-4.893-3.926-4.757,1.945m14.778-2.725c-2.089,5.279-2.578,7.532-1.638,7.532.5,0,.9-.577.9-1.282,0-1.044.428-1.282,2.3-1.282,1.764,0,2.382.3,2.639,1.282a1.709,1.709,0,0,0,1.756,1.282c1.39,0,1.37-.107-.876-4.778-2.539-5.282-3.811-5.971-5.084-2.754m9.518,2.725v4.807l3.045-.01c3.411-.011,4.132-.337,5.192-2.351,2.092-3.975-.194-7.254-5.057-7.254h-3.18v4.808m13.461-3.633a2.757,2.757,0,0,1-.392,1.568c-1.643,1.642-3.33,6.872-2.217,6.872a1.721,1.721,0,0,0,1.513-1.282c.257-.982.874-1.282,2.639-1.282,2.1,0,2.634.469,2.379,2.083-.041.265.521.481,1.25.481,1.546,0,1.365-1.04-1.024-5.876-.812-1.645-1.309-3.159-1.1-3.365s-.395-.374-1.335-.374c-1.231,0-1.71.329-1.71,1.175M45.513,250.143c0,.878-1.956,1.363-2.66.659-.44-.44-.374-1.094.2-2.019.845-1.353,2.457-.461,2.457,1.36m33.6-1.677c1.605.616,1.282,3.893-.5,5.059-1.849,1.212-3.517.665-4.306-1.411-1.145-3.011,1.409-4.951,4.8-3.648m51.527.38c2.257,2.258-.687,6.515-3.315,4.793-2.757-1.807-1.947-5.562,1.2-5.562a3.424,3.424,0,0,1,2.115.769m29.836.623c1.237,1.976-.459,4.377-3.091,4.377-2.253,0-2.258-.006-2.258-2.923V248l2.339.2a4.409,4.409,0,0,1,3.01,1.271m37.472-.623c2.24,2.241-.881,6.519-3.668,5.027-1.648-.882-2.383-3.568-1.325-4.843.95-1.146,3.922-1.255,4.993-.184m46.795,0c2.5,2.5-1.063,6.688-4.039,4.739-2.838-1.86-1.777-5.508,1.6-5.508a4.008,4.008,0,0,1,2.436.769m27.96-.38c2.612,1,.724,5.38-2.319,5.38-1.7,0-1.8-.152-1.8-2.884,0-3.01,1.075-3.662,4.114-2.5m75.594,1c1.151,1.839-.457,4.377-2.771,4.377-1.873,0-1.937-.1-1.937-2.925,0-3.171,3.045-4.109,4.708-1.452m-242.918.9c.565,1.471.519,1.55-.893,1.55a1.2,1.2,0,0,1-.855-2.137c.7-.7,1.335-.489,1.748.587m114.1,0c.564,1.471.518,1.55-.893,1.55-.705,0-1.282-.121-1.282-.268,0-.782.845-2.3,1.282-2.3.277,0,.679.456.893,1.014m91.942.481c.137.708-.221,1.069-1.062,1.069-.961,0-1.186-.317-.926-1.308.392-1.5,1.681-1.347,1.988.239m23.442-.481c.565,1.471.519,1.55-.893,1.55-.7,0-1.282-.121-1.282-.268,0-.782.846-2.3,1.282-2.3.277,0,.679.456.893,1.014m22.712.481c.14.721-.226,1.069-1.122,1.069-1.464,0-1.507-.072-.929-1.577.488-1.272,1.767-.955,2.051.508" fill="#919191" fill-rule="evenodd"/>
  </g>
</svg>
