<svg id="svg" version="1.1" xmlns="http://www.w3.org/2000/svg" xmlns:xlink="http://www.w3.org/1999/xlink" width="400" height="256.4102564102564" viewBox="0, 0, 400,256.4102564102564"><g id="svgg"><path id="path0" d="M183.654 0.379 C 150.312 2.068,119.088 6.546,96.474 12.882 C 73.028 19.452,52.909 27.512,41.099 35.067 C 39.195 36.285,37.029 37.514,36.286 37.799 C 33.859 38.730,24.764 45.597,20.866 49.443 C 18.769 51.512,16.855 53.205,16.612 53.205 C 14.212 53.205,4.332 69.498,1.840 77.564 C -0.324 84.567,-0.354 108.743,1.792 115.705 C 7.277 133.503,22.184 148.572,47.019 161.425 C 56.821 166.498,71.500 173.077,73.018 173.077 C 73.533 173.077,77.292 174.213,81.369 175.601 C 100.872 182.241,123.169 187.310,140.705 189.091 C 144.583 189.485,151.506 190.210,156.090 190.701 C 184.106 193.703,216.263 193.681,243.910 190.641 C 248.846 190.098,256.779 189.259,261.538 188.776 C 278.097 187.094,298.532 182.380,318.685 175.592 C 322.791 174.209,326.567 173.077,327.075 173.077 C 328.552 173.077,341.852 167.145,351.603 162.137 C 377.906 148.627,392.781 133.648,398.445 114.966 C 400.342 108.708,400.159 84.043,398.167 77.564 C 395.071 67.491,388.486 57.435,380.788 51.022 C 378.310 48.958,376.282 47.064,376.282 46.814 C 376.282 46.195,366.676 39.321,364.008 38.031 C 362.826 37.459,361.426 36.633,360.897 36.194 C 357.769 33.599,337.151 23.584,333.194 22.738 C 332.036 22.490,330.801 22.077,330.449 21.820 C 328.237 20.206,301.768 12.002,291.026 9.602 C 279.635 7.057,250.724 2.912,235.383 1.626 C 224.002 0.671,192.752 -0.082,183.654 0.379 M238.737 4.115 C 276.777 8.068,288.896 10.450,317.949 19.682 C 328.814 23.135,336.979 26.224,342.949 29.139 C 375.437 45.002,391.279 60.089,396.489 80.128 C 399.385 91.267,395.601 106.040,387.227 116.289 C 380.310 124.753,365.491 136.998,356.731 141.487 C 305.133 167.928,247.501 178.027,171.167 174.002 C 122.005 171.411,81.013 160.991,43.269 141.492 C 40.423 140.022,31.274 133.712,27.136 130.366 C 25.666 129.177,24.326 128.205,24.157 128.205 C 23.548 128.205,14.762 118.814,11.494 114.670 C -0.058 100.020,-0.183 78.901,11.192 63.205 C 17.835 54.038,33.129 41.060,42.307 36.802 C 43.894 36.066,47.500 34.168,50.321 32.585 C 67.671 22.847,111.767 9.439,133.333 7.344 C 135.625 7.122,141.683 6.407,146.795 5.756 C 151.907 5.105,160.128 4.259,165.064 3.876 C 170.000 3.493,175.337 3.073,176.923 2.943 C 184.471 2.324,229.768 3.183,238.737 4.115 M176.282 17.975 C 164.418 18.649,150.607 20.102,140.064 21.785 L 132.372 23.013 142.308 22.576 C 203.933 19.863,249.290 23.894,284.936 35.252 C 288.109 36.263,291.677 37.285,292.866 37.523 C 296.198 38.191,312.200 45.094,317.242 48.038 C 319.721 49.487,323.275 51.435,325.138 52.367 C 347.295 63.457,359.826 86.523,353.192 104.006 C 350.021 112.365,336.908 128.205,333.160 128.205 C 332.820 128.205,331.593 129.037,330.435 130.054 C 326.906 133.153,311.435 141.584,306.054 143.342 C 303.266 144.252,299.970 145.500,298.730 146.114 C 297.489 146.728,292.923 148.352,288.582 149.724 C 284.241 151.095,280.937 152.299,281.240 152.401 C 282.054 152.672,297.885 148.594,306.731 145.834 C 310.962 144.514,315.288 143.223,316.346 142.966 C 321.577 141.691,340.573 132.820,344.669 129.740 C 345.791 128.896,347.057 128.205,347.482 128.205 C 350.322 128.205,365.977 114.098,370.446 107.512 C 377.746 96.751,378.448 82.818,372.240 71.888 C 370.168 68.240,359.334 56.167,356.457 54.300 C 355.197 53.482,351.715 51.202,348.718 49.232 C 342.383 45.068,329.082 38.115,326.267 37.497 C 325.201 37.262,321.379 35.921,317.773 34.516 C 298.087 26.843,277.349 22.467,243.590 18.861 C 232.472 17.674,191.165 17.130,176.282 17.975 M126.282 23.739 C 125.248 24.085,125.929 24.145,128.205 23.909 C 130.144 23.708,131.851 23.439,131.998 23.311 C 132.511 22.861,127.870 23.209,126.282 23.739 M81.731 47.210 C 74.727 48.332,70.984 49.573,62.500 53.584 C 52.376 58.370,44.231 73.035,44.231 86.476 C 44.231 122.128,86.746 139.573,119.758 117.467 L 125.962 113.313 127.825 114.377 C 131.641 116.555,130.909 114.305,125.564 107.427 C 120.766 101.253,117.686 98.864,118.517 101.961 C 119.479 105.545,119.383 105.887,116.591 108.776 C 104.077 121.727,76.474 121.498,63.515 108.336 C 45.877 90.422,54.880 61.906,80.128 55.717 C 93.710 52.387,117.628 58.779,117.628 65.738 C 117.628 70.786,119.419 69.501,124.400 60.879 C 128.707 53.425,128.660 51.436,124.254 54.605 C 123.409 55.213,122.675 55.156,120.728 54.331 C 106.138 48.148,91.990 45.565,81.731 47.210 M141.667 49.679 C 141.667 50.208,141.968 50.641,142.337 50.641 C 142.705 50.641,143.715 51.349,144.580 52.214 L 146.154 53.788 146.154 86.468 C 146.154 120.738,146.045 122.117,143.292 122.808 C 142.259 123.067,141.667 123.664,141.667 124.446 C 141.667 125.610,142.166 125.666,151.069 125.498 C 160.981 125.311,162.763 124.716,159.093 122.818 C 156.415 121.433,156.385 121.240,156.345 105.198 L 156.309 90.705 169.804 90.532 L 183.298 90.359 185.044 93.096 C 186.004 94.602,187.287 96.410,187.896 97.115 C 188.505 97.821,190.005 100.292,191.229 102.607 C 192.454 104.922,194.567 108.487,195.926 110.529 C 203.039 121.218,203.511 122.308,201.282 122.891 C 200.572 123.077,200.000 123.766,200.000 124.434 C 200.000 125.562,200.626 125.641,209.615 125.641 C 218.434 125.641,219.231 125.546,219.231 124.492 C 219.231 123.748,218.495 123.126,217.147 122.729 C 215.002 122.097,210.009 115.702,207.160 109.936 C 205.983 107.553,204.146 104.636,197.854 95.161 C 194.382 89.932,194.383 89.938,197.552 89.413 C 221.746 85.408,223.323 54.700,199.592 49.672 C 192.974 48.270,141.667 48.276,141.667 49.679 M260.256 49.577 C 260.256 50.049,261.014 50.780,261.939 51.202 C 264.345 52.298,263.832 54.387,258.385 65.688 C 255.889 70.867,253.846 75.467,253.846 75.911 C 253.846 76.355,253.009 78.423,251.985 80.507 C 245.096 94.530,238.462 108.580,238.462 109.144 C 238.462 112.319,232.493 121.676,229.733 122.829 C 228.258 123.445,227.720 124.019,227.980 124.696 C 228.583 126.269,247.008 125.795,247.315 124.199 C 247.438 123.556,247.141 123.077,246.621 123.077 C 242.776 123.077,242.988 119.954,247.470 110.568 L 250.680 103.846 270.692 103.859 L 290.705 103.872 294.391 111.747 C 298.556 120.646,298.785 121.908,296.424 122.983 C 292.760 124.652,295.028 125.316,305.021 125.497 C 314.416 125.668,314.744 125.631,314.744 124.376 C 314.744 123.661,314.477 123.077,314.152 123.077 C 311.750 123.077,306.786 115.579,302.056 104.808 C 296.082 91.204,294.645 88.034,290.865 80.128 C 283.956 65.677,279.487 55.098,279.487 53.197 C 279.487 52.431,280.146 51.595,281.090 51.165 C 285.225 49.281,283.012 48.718,271.474 48.718 C 262.528 48.718,260.256 48.892,260.256 49.577 M192.628 56.438 C 207.170 58.523,212.748 73.936,201.381 80.618 L 198.397 82.372 177.244 82.564 L 156.090 82.756 156.247 69.423 C 156.333 62.090,156.405 56.018,156.407 55.929 C 156.417 55.442,188.859 55.898,192.628 56.438 M275.308 69.231 C 277.680 74.343,280.451 80.270,281.467 82.401 C 283.034 85.692,284.828 90.351,286.328 95.032 C 286.665 96.081,285.616 96.154,270.267 96.154 C 261.236 96.154,253.846 96.046,253.846 95.913 C 253.846 95.611,257.284 88.079,261.052 80.128 C 267.449 66.630,268.481 64.312,269.268 61.678 C 270.288 58.259,270.119 58.048,275.308 69.231 M98.218 64.389 C 97.510 65.289,96.603 66.026,96.202 66.026 C 95.801 66.026,95.298 66.482,95.084 67.039 C 94.843 67.666,94.220 67.928,93.449 67.726 C 92.496 67.477,91.988 67.916,91.285 69.598 C 90.191 72.216,89.608 72.320,87.935 70.192 C 85.741 67.402,84.617 70.297,84.267 79.642 C 84.151 82.724,83.874 85.541,83.651 85.902 C 82.970 87.003,82.051 85.928,82.051 84.032 C 82.051 81.161,80.765 78.158,79.619 78.353 C 78.954 78.466,78.390 77.802,77.989 76.436 C 77.651 75.287,77.054 74.420,76.661 74.510 C 76.268 74.600,74.876 73.521,73.568 72.113 L 71.189 69.551 71.054 72.115 C 70.980 73.526,70.962 75.389,71.015 76.257 C 71.068 77.125,70.768 78.048,70.347 78.308 C 69.794 78.650,69.985 79.326,71.038 80.750 C 72.738 83.049,72.472 83.926,70.208 83.493 C 69.318 83.323,68.590 83.389,68.590 83.640 C 68.590 84.446,70.771 87.821,71.292 87.821 C 71.569 87.821,71.795 88.253,71.795 88.782 C 71.795 89.311,72.221 89.744,72.742 89.744 C 73.846 89.744,75.914 92.629,75.403 93.456 C 75.211 93.766,73.466 93.889,71.525 93.728 L 67.996 93.435 68.774 95.116 C 69.201 96.040,70.056 96.960,70.673 97.160 C 71.290 97.359,71.795 97.936,71.795 98.441 C 71.795 99.344,72.859 99.632,75.250 99.377 C 76.184 99.278,76.381 99.554,76.111 100.586 C 75.667 102.284,75.786 102.272,79.886 100.196 C 84.807 97.704,85.028 99.690,80.700 107.522 C 78.619 111.290,78.438 112.179,79.755 112.179 C 80.333 112.179,81.405 109.954,82.703 106.058 C 84.981 99.221,85.621 98.892,87.203 103.746 C 88.385 107.369,89.103 108.538,89.103 106.838 C 89.103 105.425,89.930 105.486,91.301 107.001 C 92.193 107.987,93.013 108.171,95.406 107.922 C 97.051 107.751,98.758 107.582,99.199 107.545 C 100.504 107.437,100.134 106.602,97.756 104.293 C 94.700 101.324,95.264 99.720,99.038 100.647 C 99.391 100.733,99.968 100.786,100.321 100.763 C 100.956 100.722,105.497 100.212,106.731 100.042 C 107.083 99.994,106.541 99.274,105.526 98.444 C 103.495 96.784,103.511 96.769,108.179 95.829 C 109.410 95.581,110.096 95.130,109.849 94.732 C 109.619 94.359,109.977 93.590,110.645 93.021 C 111.313 92.452,112.693 91.064,113.712 89.935 L 115.565 87.883 112.109 88.109 C 110.024 88.245,108.478 88.051,108.211 87.620 C 107.898 87.116,107.098 87.225,105.487 87.994 C 103.531 88.926,103.205 88.946,103.205 88.131 C 103.205 86.615,102.208 87.001,99.038 89.744 C 96.327 92.090,94.872 92.863,94.872 91.955 C 94.872 90.962,96.990 87.892,98.994 85.979 C 100.240 84.789,101.122 83.593,100.954 83.321 C 100.786 83.049,101.037 82.677,101.512 82.495 C 102.226 82.221,105.128 77.508,105.128 76.623 C 105.128 76.480,104.155 76.521,102.966 76.714 C 100.235 77.157,99.757 76.378,100.974 73.466 C 101.757 71.593,101.778 71.154,101.085 71.154 C 100.476 71.154,100.198 70.016,100.121 67.207 C 99.990 62.469,99.869 62.290,98.218 64.389 M363.141 173.638 C 365.056 174.046,365.065 174.069,365.251 179.011 C 365.498 185.542,366.667 185.441,366.667 178.889 C 366.667 173.833,366.677 173.802,368.429 173.536 C 369.399 173.389,368.173 173.260,365.705 173.249 C 362.872 173.236,361.927 173.379,363.141 173.638 M371.795 174.538 C 371.795 175.394,371.610 177.867,371.383 180.034 C 371.094 182.801,371.189 183.974,371.704 183.974 C 372.170 183.974,372.436 182.594,372.436 180.166 C 372.436 175.076,373.273 174.843,374.695 179.539 C 376.269 184.736,376.564 184.719,378.391 179.331 L 379.969 174.679 380.452 179.327 C 381.132 185.870,382.251 185.292,381.693 178.686 C 381.447 175.777,381.151 173.290,381.035 173.158 C 380.277 172.297,378.926 174.138,377.855 177.493 L 376.604 181.407 375.267 177.402 C 373.860 173.187,371.795 171.483,371.795 174.538 M41.236 221.447 C 36.404 223.549,35.921 232.628,40.514 235.003 C 44.378 237.001,51.468 235.281,49.876 232.733 C 49.203 231.655,49.112 231.657,47.982 232.787 C 44.895 235.874,40.064 233.273,40.064 228.526 C 40.064 223.937,46.021 220.693,48.008 224.199 C 48.613 225.267,50.537 223.925,50.621 222.377 C 50.700 220.893,44.030 220.232,41.236 221.447 M151.282 221.127 L 147.756 221.474 147.756 228.687 L 147.756 235.899 149.878 235.898 C 151.354 235.898,151.855 235.666,151.527 235.134 C 151.268 234.715,150.991 233.401,150.912 232.214 C 150.681 228.766,154.128 229.403,156.013 233.155 C 157.109 235.339,157.712 235.865,159.135 235.880 C 161.303 235.902,161.304 235.843,159.162 232.607 L 157.427 229.985 159.162 228.721 C 164.524 224.815,159.824 220.286,151.282 221.127 M235.256 221.488 C 235.256 222.452,231.565 232.080,230.408 234.135 C 229.421 235.886,229.427 235.897,231.329 235.897 C 232.827 235.897,233.289 235.583,233.449 234.455 C 233.737 232.426,239.297 231.942,240.322 233.857 C 240.684 234.534,240.798 235.270,240.576 235.493 C 240.353 235.715,241.235 235.897,242.536 235.897 C 244.839 235.897,244.877 235.860,243.964 234.455 C 242.747 232.581,239.103 223.082,239.103 221.783 C 239.103 221.090,238.508 220.787,237.179 220.805 C 236.122 220.819,235.256 221.126,235.256 221.488 M54.206 228.739 C 53.255 231.795,52.328 234.655,52.147 235.096 C 51.546 236.554,53.529 235.927,54.175 234.455 C 55.305 231.879,61.619 232.451,60.626 235.039 C 60.396 235.638,60.873 235.897,62.200 235.897 C 64.301 235.897,64.407 235.746,63.434 234.126 C 63.067 233.514,61.945 230.877,60.942 228.267 C 58.183 221.089,56.552 221.203,54.206 228.739 M66.346 229.647 C 66.346 235.478,66.433 235.897,67.633 235.897 C 68.760 235.897,68.892 235.548,68.695 233.077 C 68.293 228.016,68.706 227.874,71.795 232.009 C 73.963 234.912,75.077 235.874,76.282 235.885 L 77.885 235.900 77.680 229.809 C 77.497 224.341,77.353 223.718,76.267 223.718 C 75.225 223.718,75.033 224.298,74.869 227.939 L 74.679 232.161 71.955 228.291 C 70.457 226.163,69.231 224.191,69.231 223.910 C 69.231 223.628,68.582 223.397,67.788 223.397 C 66.391 223.397,66.346 223.593,66.346 229.647 M107.372 229.506 C 107.372 235.893,107.372 235.895,108.974 235.898 L 110.577 235.900 110.377 229.625 C 110.188 223.700,110.099 223.343,108.774 223.233 C 107.418 223.120,107.372 223.325,107.372 229.506 M126.163 229.551 L 125.962 235.900 127.569 235.899 C 129.072 235.898,129.162 235.717,128.954 233.108 C 128.534 227.825,129.005 226.859,130.561 229.808 C 131.306 231.218,132.516 232.915,133.250 233.579 C 133.984 234.243,134.431 235.037,134.242 235.342 C 134.053 235.648,134.709 235.897,135.699 235.897 L 137.500 235.897 137.500 229.647 C 137.500 223.806,137.415 223.397,136.206 223.397 C 135.012 223.397,134.931 223.731,135.157 227.724 C 135.291 230.104,135.141 232.051,134.823 232.051 C 134.135 232.051,130.128 225.596,130.128 224.488 C 130.128 224.065,129.768 223.696,129.327 223.669 C 128.886 223.642,128.039 223.526,127.445 223.411 C 126.501 223.229,126.339 224.004,126.163 229.551 M157.372 225.321 C 157.372 227.702,151.205 228.414,150.756 226.084 C 150.290 223.665,151.116 222.996,154.320 223.202 C 157.240 223.389,157.372 223.480,157.372 225.321 M162.822 229.647 L 162.821 235.897 168.249 235.897 C 172.811 235.897,173.619 235.744,173.309 234.936 C 173.044 234.246,171.964 233.974,169.483 233.974 C 166.185 233.974,166.026 233.897,166.026 232.304 C 166.026 230.743,166.192 230.650,168.590 230.879 C 170.872 231.097,171.154 230.970,171.154 229.725 C 171.154 228.464,170.903 228.361,168.590 228.671 C 166.161 228.997,166.026 228.926,166.026 227.328 C 166.026 225.715,166.177 225.641,169.477 225.641 C 172.224 225.641,172.987 225.412,173.221 224.519 C 173.484 223.517,172.945 223.397,168.169 223.397 L 162.823 223.397 162.822 229.647 M175.962 229.646 C 175.962 235.017,176.110 235.895,177.016 235.896 C 177.916 235.897,178.028 235.288,177.780 231.731 C 177.422 226.573,177.796 226.575,181.410 231.748 C 183.642 234.943,184.658 235.881,185.897 235.889 L 187.500 235.900 187.297 229.873 C 187.120 224.595,186.944 223.806,185.882 223.528 C 184.789 223.242,184.650 223.657,184.482 227.692 L 184.295 232.173 181.571 228.219 C 180.072 226.044,178.846 224.070,178.846 223.831 C 178.846 223.593,178.197 223.397,177.404 223.397 C 176.007 223.396,175.962 223.592,175.962 229.646 M189.103 224.519 C 189.103 225.344,189.624 225.641,191.074 225.641 L 193.046 225.641 192.837 230.771 C 192.629 235.871,192.637 235.900,194.231 235.900 C 195.824 235.900,195.832 235.871,195.624 230.771 L 195.415 225.641 197.708 225.641 C 199.463 225.641,200.000 225.378,200.000 224.519 C 200.000 223.539,199.313 223.397,194.551 223.397 C 189.789 223.397,189.103 223.539,189.103 224.519 M213.341 229.649 L 213.141 235.900 218.109 235.899 C 222.097 235.898,223.077 235.708,223.077 234.936 C 223.077 234.196,222.251 233.974,219.486 233.974 L 215.894 233.974 216.120 228.603 C 216.338 223.416,216.298 223.235,214.943 223.315 C 213.616 223.393,213.530 223.736,213.341 229.649 M248.920 223.722 C 245.381 225.148,246.000 229.661,249.848 230.483 C 255.116 231.609,255.935 233.518,251.296 233.856 C 249.517 233.985,248.330 233.756,247.980 233.215 C 247.539 232.532,247.319 232.553,246.823 233.326 C 246.369 234.032,246.577 234.484,247.624 235.066 C 251.229 237.070,257.360 234.971,256.582 231.999 C 256.260 230.768,255.315 230.193,250.481 228.287 C 249.511 227.904,248.718 227.158,248.718 226.629 C 248.718 225.138,251.888 224.636,253.924 225.804 C 255.580 226.755,256.410 226.383,256.410 224.690 C 256.410 223.578,251.010 222.880,248.920 223.722 M260.897 223.902 C 256.939 225.894,258.944 230.114,264.297 231.053 C 266.530 231.445,267.995 232.860,267.097 233.757 C 266.415 234.439,261.454 234.062,260.481 233.254 C 259.704 232.609,259.408 232.631,258.954 233.367 C 258.166 234.641,260.531 235.846,263.871 235.875 C 270.255 235.929,271.226 230.547,265.107 229.031 C 261.510 228.139,260.568 227.425,261.113 226.005 C 261.610 224.709,265.276 224.675,267.094 225.948 C 268.324 226.809,268.477 226.784,268.769 225.666 C 269.336 223.498,264.052 222.315,260.897 223.902 M273.929 224.011 C 267.695 226.723,270.110 235.897,277.057 235.897 C 281.408 235.897,283.974 233.841,283.974 230.354 C 283.974 224.376,279.535 221.573,273.929 224.011 M288.706 224.301 C 284.758 226.708,284.447 232.332,288.136 234.612 C 291.741 236.840,299.355 235.724,296.532 233.381 C 295.854 232.818,295.513 232.776,295.513 233.255 C 295.513 234.228,290.212 234.186,289.231 233.205 C 285.903 229.877,290.832 223.163,294.587 225.909 C 295.464 226.550,296.066 226.621,296.633 226.151 C 299.529 223.747,292.358 222.074,288.706 224.301 M300.000 223.648 C 298.318 224.331,298.621 235.899,300.321 235.900 C 301.501 235.900,301.589 235.532,301.427 231.251 C 301.138 223.604,301.066 223.215,300.000 223.648 M315.386 224.519 C 315.385 225.345,315.905 225.641,317.357 225.641 L 319.328 225.641 319.119 230.771 C 318.911 235.875,318.918 235.900,320.518 235.899 C 322.119 235.897,322.124 235.878,321.892 230.769 L 321.659 225.641 323.971 225.641 C 325.744 225.641,326.282 225.380,326.283 224.519 C 326.283 223.539,325.597 223.397,320.835 223.397 C 316.074 223.397,315.387 223.539,315.386 224.519 M328.205 229.547 C 328.205 235.705,328.249 235.897,329.647 235.899 C 331.715 235.901,331.522 224.064,329.445 223.521 C 328.281 223.217,328.205 223.585,328.205 229.547 M335.876 224.519 C 329.828 228.607,333.385 236.564,340.883 235.719 C 344.532 235.308,346.154 233.575,346.154 230.087 C 346.154 223.906,340.953 221.088,335.876 224.519 M347.756 229.590 C 347.756 235.890,347.758 235.897,349.359 235.899 C 350.932 235.900,350.957 235.820,350.742 231.572 C 350.622 229.191,350.656 227.388,350.818 227.564 C 353.192 230.142,356.873 235.221,356.580 235.514 C 356.369 235.725,357.038 235.897,358.066 235.896 L 359.936 235.895 359.936 229.643 C 359.936 223.818,359.847 223.386,358.637 223.311 C 357.429 223.236,357.356 223.537,357.588 227.641 C 357.725 230.067,357.588 232.049,357.284 232.046 C 356.876 232.042,353.215 226.794,351.585 223.878 C 351.536 223.790,350.654 223.620,349.626 223.500 L 347.756 223.282 347.756 229.590 M82.186 229.023 C 81.026 231.923,79.914 234.655,79.714 235.096 C 79.470 235.632,79.939 235.897,81.128 235.897 C 82.106 235.897,82.724 235.715,82.501 235.493 C 81.490 234.481,83.461 232.692,85.587 232.692 C 87.409 232.692,87.867 232.973,88.198 234.295 C 88.493 235.469,89.028 235.897,90.202 235.897 C 91.250 235.897,91.678 235.621,91.440 235.096 C 91.240 234.655,90.127 231.917,88.967 229.011 C 86.107 221.842,85.058 221.844,82.186 229.023 M93.910 229.871 L 93.910 236.024 98.077 235.777 C 104.123 235.418,105.769 234.149,105.769 229.846 C 105.769 224.982,104.240 223.718,98.356 223.718 L 93.910 223.718 93.910 229.871 M115.704 226.442 C 115.466 227.941,114.591 230.681,113.760 232.532 C 112.350 235.677,112.328 235.897,113.428 235.897 C 114.155 235.897,114.762 235.272,115.016 234.259 C 115.593 231.960,120.707 232.126,121.038 234.455 C 121.195 235.559,121.664 235.897,123.041 235.897 L 124.838 235.897 122.240 229.808 C 119.100 222.449,116.550 221.135,115.704 226.442 M203.205 224.629 C 203.205 225.130,202.222 227.870,201.021 230.718 L 198.837 235.897 200.310 235.897 C 201.357 235.897,201.903 235.422,202.196 234.257 C 202.767 231.982,207.249 232.147,207.577 234.455 C 207.735 235.571,208.201 235.897,209.634 235.897 L 211.486 235.897 209.943 232.825 C 209.094 231.136,208.036 228.396,207.593 226.736 C 206.781 223.701,203.205 221.983,203.205 224.629 M307.464 227.546 C 306.810 229.645,305.728 232.383,305.059 233.630 L 303.844 235.897 305.295 235.897 C 306.186 235.897,306.992 235.340,307.380 234.455 C 308.252 232.469,312.432 232.051,313.397 233.854 C 313.760 234.533,313.875 235.270,313.653 235.493 C 313.430 235.715,314.025 235.897,314.974 235.897 C 316.679 235.897,316.688 235.874,315.722 234.006 C 315.184 232.966,314.744 231.706,314.744 231.207 C 314.744 224.228,309.345 221.512,307.464 227.546 M238.061 226.362 C 238.792 230.018,238.587 230.769,236.859 230.769 C 235.048 230.769,234.952 230.331,235.999 226.837 C 236.898 223.837,237.527 223.692,238.061 226.362 M280.609 226.760 C 282.868 229.718,281.085 233.974,277.587 233.974 C 274.513 233.974,273.077 232.648,273.077 229.808 C 273.077 225.739,278.234 223.651,280.609 226.760 M342.657 226.573 C 345.843 229.760,344.203 233.974,339.776 233.974 C 336.842 233.974,335.794 232.886,335.705 229.745 C 335.584 225.483,339.692 223.609,342.657 226.573 M58.945 230.288 C 58.965 231.065,58.482 231.410,57.372 231.410 C 55.538 231.410,55.522 231.343,56.507 227.885 L 57.237 225.321 58.077 227.244 C 58.539 228.301,58.930 229.671,58.945 230.288 M86.427 229.006 C 87.047 231.301,87.005 231.410,85.525 231.410 C 83.874 231.410,83.723 230.906,84.383 227.604 C 84.862 225.208,85.524 225.662,86.427 229.006 M102.436 226.410 C 105.004 228.979,102.887 233.974,99.231 233.974 L 96.795 233.974 96.795 229.808 L 96.795 225.641 99.231 225.641 C 100.571 225.641,102.013 225.987,102.436 226.410 M119.823 230.609 C 119.852 231.083,119.086 231.410,117.949 231.410 C 115.799 231.410,115.795 231.405,116.615 229.357 C 116.938 228.547,117.404 227.308,117.649 226.603 C 118.091 225.330,119.680 228.259,119.823 230.609 M206.648 229.647 C 207.045 231.282,206.932 231.410,205.097 231.410 C 202.976 231.410,202.960 231.253,204.639 226.923 C 205.326 225.150,205.668 225.614,206.648 229.647 M312.131 230.609 C 312.159 231.080,311.400 231.410,310.290 231.410 C 308.266 231.410,308.267 231.417,310.065 226.282 C 310.392 225.348,312.018 228.753,312.131 230.609 M296.383 244.225 C 290.816 246.472,292.484 255.769,298.455 255.769 C 301.053 255.769,303.846 254.573,303.846 253.461 C 303.846 252.161,302.784 251.848,301.917 252.892 C 299.298 256.048,293.560 251.726,295.516 248.070 C 296.890 245.504,302.512 245.208,302.584 247.699 C 302.596 248.083,303.028 247.838,303.546 247.153 C 305.102 245.095,299.699 242.887,296.383 244.225 M42.308 245.135 C 42.308 245.632,41.443 247.868,40.385 250.103 C 38.112 254.908,38.020 255.769,39.781 255.769 C 40.507 255.769,40.939 255.507,40.741 255.186 C 39.823 253.700,41.221 252.564,43.967 252.564 C 46.423 252.564,46.820 252.763,47.173 254.167 C 47.459 255.306,48.009 255.769,49.078 255.769 L 50.582 255.769 48.957 252.404 C 48.063 250.553,46.851 247.960,46.262 246.641 C 45.175 244.204,42.308 243.112,42.308 245.135 M180.128 250.000 L 180.128 255.769 184.936 255.769 C 188.782 255.769,189.744 255.577,189.744 254.808 C 189.744 254.070,188.925 253.846,186.218 253.846 C 184.279 253.846,182.676 253.630,182.655 253.365 C 182.635 253.101,182.588 250.938,182.552 248.558 C 182.494 244.809,182.327 244.231,181.306 244.231 C 180.250 244.231,180.128 244.827,180.128 250.000 M52.984 247.326 C 51.082 249.428,52.150 251.097,55.886 251.861 C 57.003 252.090,58.023 252.595,58.153 252.985 C 58.490 253.997,55.334 254.642,53.872 253.860 C 53.008 253.398,52.510 253.415,52.200 253.916 C 50.986 255.881,57.463 256.512,59.196 254.597 C 61.464 252.090,59.375 249.377,55.146 249.339 C 53.015 249.319,52.957 249.264,54.133 248.374 C 55.268 247.515,56.140 247.549,58.814 248.554 C 59.255 248.720,59.615 248.425,59.615 247.900 C 59.615 245.996,54.582 245.561,52.984 247.326 M63.203 246.991 C 60.959 248.632,62.118 250.888,65.545 251.550 C 68.654 252.150,69.578 253.446,67.392 254.140 C 66.734 254.349,65.417 254.224,64.466 253.862 C 62.256 253.022,62.179 253.030,62.179 254.098 C 62.179 255.791,67.605 256.498,69.103 255.000 C 71.350 252.752,69.332 249.359,65.747 249.359 C 64.843 249.359,64.103 249.101,64.103 248.787 C 64.103 247.818,65.954 247.440,67.611 248.070 C 68.660 248.469,69.327 248.439,69.611 247.981 C 70.659 246.284,65.301 245.457,63.203 246.991 M73.297 247.799 C 70.357 250.738,72.533 255.769,76.744 255.769 C 79.721 255.769,81.147 254.883,81.971 252.520 C 83.778 247.336,77.291 243.805,73.297 247.799 M85.182 247.510 C 83.543 249.149,83.828 253.608,85.657 254.945 C 88.081 256.718,95.133 254.962,93.231 253.060 C 93.033 252.862,92.013 253.129,90.964 253.653 C 88.385 254.939,85.897 253.474,85.897 250.669 C 85.897 248.423,87.363 247.779,91.053 248.402 C 93.927 248.888,94.442 248.030,91.957 246.898 C 89.444 245.753,86.691 246.002,85.182 247.510 M95.513 250.962 C 95.513 255.113,95.666 255.769,96.635 255.769 C 97.603 255.769,97.756 255.113,97.756 250.962 C 97.756 246.810,97.603 246.154,96.635 246.154 C 95.666 246.154,95.513 246.810,95.513 250.962 M102.343 248.885 C 101.693 250.380,100.752 252.540,100.252 253.686 C 99.395 255.648,99.417 255.769,100.632 255.769 C 101.496 255.769,101.923 255.345,101.923 254.487 C 101.923 253.443,102.350 253.205,104.227 253.205 C 105.991 253.205,106.609 253.505,106.866 254.487 C 107.057 255.221,107.740 255.769,108.462 255.769 C 109.155 255.769,109.626 255.524,109.509 255.225 C 105.904 246.035,104.228 244.552,102.343 248.885 M108.974 247.115 C 108.974 247.744,109.604 248.077,110.794 248.077 C 112.604 248.077,112.614 248.098,112.498 251.923 C 112.400 255.162,112.554 255.769,113.472 255.769 C 114.396 255.769,114.537 255.183,114.392 251.923 C 114.230 248.241,114.288 248.077,115.765 248.077 C 116.709 248.077,117.308 247.704,117.308 247.115 C 117.308 246.359,116.417 246.154,113.141 246.154 C 109.865 246.154,108.974 246.359,108.974 247.115 M119.231 250.962 C 119.231 255.113,119.384 255.769,120.353 255.769 C 121.321 255.769,121.474 255.113,121.474 250.962 C 121.474 246.810,121.321 246.154,120.353 246.154 C 119.384 246.154,119.231 246.810,119.231 250.962 M125.112 247.637 C 123.338 249.526,123.285 252.772,125.000 254.487 C 126.909 256.396,130.340 256.197,132.005 254.080 C 135.835 249.211,129.338 243.139,125.112 247.637 M135.256 250.962 C 135.256 255.113,135.410 255.769,136.378 255.770 C 137.327 255.770,137.466 255.275,137.278 252.565 C 137.003 248.594,137.472 248.597,140.705 252.587 C 144.404 257.151,145.192 256.866,145.192 250.962 C 145.192 246.852,145.033 246.154,144.096 246.154 C 143.247 246.154,143.010 246.697,143.048 248.558 C 143.075 249.880,143.064 251.224,143.023 251.544 C 142.982 251.865,141.679 250.783,140.128 249.140 C 136.013 244.785,135.256 245.068,135.256 250.962 M153.205 250.962 L 153.205 255.769 156.652 255.769 C 160.837 255.769,161.859 254.797,161.859 250.811 C 161.859 247.262,160.533 246.154,156.288 246.154 L 153.205 246.154 153.205 250.962 M164.423 250.962 L 164.423 255.769 168.750 255.769 C 172.169 255.769,173.077 255.567,173.077 254.808 C 173.077 254.081,172.293 253.846,169.872 253.846 C 167.094 253.846,166.667 253.675,166.667 252.564 C 166.667 251.528,167.094 251.282,168.890 251.282 C 170.638 251.282,171.032 251.069,170.731 250.285 C 170.492 249.663,169.739 249.362,168.724 249.484 C 167.830 249.592,166.978 249.319,166.829 248.878 C 166.637 248.307,167.495 248.077,169.818 248.077 C 172.288 248.077,173.077 247.844,173.077 247.115 C 173.077 246.356,172.169 246.154,168.750 246.154 L 164.423 246.154 164.423 250.962 M192.814 246.832 C 191.168 247.791,190.718 251.392,191.947 253.768 C 194.061 257.856,200.641 255.816,200.641 251.073 C 200.641 247.262,196.202 244.857,192.814 246.832 M204.138 247.727 C 199.951 251.914,204.892 257.602,210.496 255.048 C 211.414 254.630,211.939 253.964,211.746 253.462 C 211.468 252.737,211.136 252.736,209.713 253.454 C 207.826 254.406,206.484 254.152,205.309 252.620 C 203.299 250.001,205.512 247.646,209.312 248.358 C 211.929 248.849,212.722 247.889,210.527 246.889 C 207.997 245.736,205.846 246.018,204.138 247.727 M216.446 248.885 C 215.796 250.380,214.854 252.540,214.354 253.686 C 213.497 255.648,213.520 255.769,214.735 255.769 C 215.598 255.769,216.026 255.345,216.026 254.487 C 216.026 253.419,216.453 253.205,218.590 253.205 C 220.726 253.205,221.154 253.419,221.154 254.487 C 221.154 255.315,221.581 255.769,222.360 255.769 C 223.710 255.769,223.399 254.376,220.824 248.895 C 219.207 245.455,217.939 245.452,216.446 248.885 M223.077 247.115 C 223.077 247.722,223.689 248.077,224.736 248.077 C 226.362 248.077,226.391 248.157,226.179 251.924 C 225.991 255.244,226.115 255.771,227.083 255.770 C 228.027 255.769,228.205 255.158,228.205 251.923 C 228.205 248.248,228.276 248.077,229.808 248.077 C 230.805 248.077,231.410 247.714,231.410 247.115 C 231.410 246.359,230.520 246.154,227.244 246.154 C 223.967 246.154,223.077 246.359,223.077 247.115 M233.333 250.962 C 233.333 255.113,233.486 255.769,234.455 255.769 C 235.424 255.769,235.577 255.113,235.577 250.962 C 235.577 246.810,235.424 246.154,234.455 246.154 C 233.486 246.154,233.333 246.810,233.333 250.962 M238.818 247.579 C 236.326 251.137,238.294 255.769,242.298 255.769 C 246.787 255.769,249.119 250.523,245.952 247.548 C 243.912 245.631,240.171 245.647,238.818 247.579 M249.679 250.960 C 249.679 254.804,249.872 255.767,250.641 255.768 C 251.397 255.770,251.555 255.086,251.380 252.565 C 251.104 248.576,251.649 248.580,254.487 252.587 C 257.763 257.213,258.654 256.866,258.654 250.962 C 258.654 246.855,258.494 246.154,257.559 246.154 C 256.685 246.154,256.506 246.637,256.672 248.558 C 256.786 249.880,256.760 251.172,256.614 251.430 C 256.280 252.022,252.564 247.838,252.564 246.871 C 252.564 246.476,251.915 246.154,251.122 246.153 C 249.754 246.153,249.679 246.402,249.679 250.960 M266.987 250.962 L 266.987 255.769 270.253 255.769 C 274.218 255.769,275.897 254.305,275.897 250.847 C 275.897 247.731,273.902 246.154,269.961 246.154 L 266.987 246.154 266.987 250.962 M278.205 249.901 C 278.205 254.972,283.072 258.237,285.758 254.968 C 287.032 253.418,287.015 246.151,285.737 246.153 C 284.796 246.154,284.615 246.762,284.615 249.931 C 284.615 252.698,284.358 253.808,283.654 254.078 C 281.184 255.026,279.755 252.640,280.250 248.396 C 280.463 246.568,280.299 246.154,279.358 246.154 C 278.380 246.154,278.205 246.721,278.205 249.901 M308.974 247.105 C 308.974 247.628,308.134 249.792,307.106 251.913 C 305.437 255.359,305.361 255.769,306.391 255.769 C 307.024 255.769,307.694 255.192,307.878 254.487 C 308.135 253.505,308.752 253.205,310.517 253.205 C 312.616 253.205,313.151 253.674,312.896 255.288 C 312.855 255.553,313.403 255.769,314.115 255.769 C 315.655 255.769,315.378 253.622,313.386 250.124 C 312.723 248.958,312.179 247.587,312.179 247.079 C 312.179 246.520,311.546 246.154,310.577 246.154 C 309.587 246.154,308.974 246.518,308.974 247.105 M317.371 250.962 C 317.462 254.912,317.667 255.769,318.517 255.770 C 319.361 255.770,319.510 255.179,319.329 252.565 C 319.056 248.618,319.506 248.618,322.756 252.564 C 326.492 257.099,327.244 256.831,327.244 250.962 C 327.244 246.996,327.065 246.154,326.225 246.154 C 325.455 246.154,325.234 246.741,325.320 248.558 C 325.489 252.113,325.218 252.152,322.128 249.017 C 317.963 244.793,317.235 245.091,317.371 250.962 M332.149 248.237 C 330.060 253.516,329.571 255.769,330.511 255.769 C 331.006 255.769,331.410 255.192,331.410 254.487 C 331.410 253.443,331.838 253.205,333.714 253.205 C 335.478 253.205,336.096 253.505,336.353 254.487 C 336.561 255.283,337.227 255.769,338.109 255.769 C 339.499 255.769,339.479 255.662,337.233 250.991 C 334.694 245.709,333.422 245.020,332.149 248.237 M341.667 250.962 L 341.667 255.769 344.712 255.759 C 348.123 255.748,348.844 255.422,349.904 253.408 C 351.996 249.433,349.710 246.154,344.847 246.154 L 341.667 246.154 341.667 250.962 M355.128 247.329 C 355.128 247.975,354.952 248.681,354.736 248.897 C 353.093 250.539,351.406 255.769,352.519 255.769 C 353.167 255.769,353.847 255.192,354.032 254.487 C 354.289 253.505,354.906 253.205,356.671 253.205 C 358.770 253.205,359.305 253.674,359.050 255.288 C 359.009 255.553,359.571 255.769,360.300 255.769 C 361.846 255.769,361.665 254.729,359.276 249.893 C 358.464 248.248,357.967 246.734,358.173 246.528 C 358.379 246.322,357.778 246.154,356.838 246.154 C 355.607 246.154,355.128 246.483,355.128 247.329 M45.513 250.143 C 45.513 251.021,43.557 251.506,42.853 250.802 C 42.413 250.362,42.479 249.708,43.056 248.783 C 43.901 247.430,45.513 248.322,45.513 250.143 M79.114 248.466 C 80.719 249.082,80.396 252.359,78.616 253.525 C 76.767 254.737,75.099 254.190,74.310 252.114 C 73.165 249.103,75.719 247.163,79.114 248.466 M130.641 248.846 C 132.898 251.104,129.954 255.361,127.326 253.639 C 124.569 251.832,125.379 248.077,128.526 248.077 C 129.266 248.077,130.218 248.423,130.641 248.846 M160.477 249.469 C 161.714 251.445,160.018 253.846,157.386 253.846 C 155.133 253.846,155.128 253.840,155.128 250.923 L 155.128 248.000 157.467 248.198 C 158.783 248.310,160.100 248.866,160.477 249.469 M197.949 248.846 C 200.189 251.087,197.068 255.365,194.281 253.873 C 192.633 252.991,191.898 250.305,192.956 249.030 C 193.906 247.884,196.878 247.775,197.949 248.846 M244.744 248.846 C 247.247 251.350,243.681 255.534,240.705 253.585 C 237.867 251.725,238.928 248.077,242.308 248.077 C 243.224 248.077,244.321 248.423,244.744 248.846 M272.704 248.466 C 275.316 249.468,273.428 253.846,270.385 253.846 C 268.685 253.846,268.590 253.694,268.590 250.962 C 268.590 247.952,269.665 247.300,272.704 248.466 M348.298 249.469 C 349.449 251.308,347.841 253.846,345.527 253.846 C 343.654 253.846,343.590 253.748,343.590 250.921 C 343.590 247.750,346.635 246.812,348.298 249.469 M105.380 250.373 C 105.945 251.844,105.899 251.923,104.487 251.923 C 103.252 251.923,102.750 250.669,103.632 249.786 C 104.334 249.084,104.967 249.297,105.380 250.373 M219.483 250.373 C 220.047 251.844,220.001 251.923,218.590 251.923 C 217.885 251.923,217.308 251.802,217.308 251.655 C 217.308 250.873,218.153 249.359,218.590 249.359 C 218.867 249.359,219.269 249.815,219.483 250.373 M311.425 250.854 C 311.562 251.562,311.204 251.923,310.363 251.923 C 309.402 251.923,309.177 251.606,309.437 250.615 C 309.829 249.113,311.118 249.268,311.425 250.854 M334.867 250.373 C 335.432 251.844,335.386 251.923,333.974 251.923 C 333.269 251.923,332.692 251.802,332.692 251.655 C 332.692 250.873,333.538 249.359,333.974 249.359 C 334.251 249.359,334.653 249.815,334.867 250.373 M357.579 250.854 C 357.719 251.575,357.353 251.923,356.457 251.923 C 354.993 251.923,354.950 251.851,355.528 250.346 C 356.016 249.074,357.295 249.391,357.579 250.854 " stroke="none" fill="#000000" fill-rule="evenodd"></path></g></svg>