<svg xmlns="http://www.w3.org/2000/svg" width="400.546" height="150.27" viewBox="0 0 400.546 150.27">
  <g id="svgg" transform="translate(0.289 -1.333)">
    <path id="path0" d="M41.206,32.333C24.713,49.383,8.63,66.171,5.465,69.639L-.289,75.945l9.1,10.165c9.056,10.118,9.122,10.16,14.478,9.3,2.959-.476,9.431-1.218,14.381-1.65l9-.785V62.426L59,49.546C73.944,33.94,71.844,33.96,85.822,49.294L97.333,61.92V77.484c0,18.084-1.4,16.589,16.793,17.866l13.207.927,9-9.342c4.95-5.138,9-10.046,9-10.906s-12.143-14.268-26.985-29.8S87.8,14.25,83.447,9.667,74.555,1.333,73.362,1.333s-15.663,13.95-32.156,31m39.055-.968c5.883,6.437,6.931,7.094,8.31,5.207,3.492-4.775,8.057-1.861,8.5,5.428.343,5.585,1.2,7.479,5.278,11.674,4.663,4.8,4.768,5.106,2.488,7.334S101.791,62.626,87.564,47.6l-14.9-15.734L58.023,46.6C43.6,61.112,40.614,63.153,39.2,59.469,38.522,57.7,69.9,24.287,72.432,24.087c.6-.048,4.127,3.227,7.829,7.278m251.41,28.689c-16.838,2.893-20.085,31.5-4.423,38.97C342.017,106.067,356,96.955,356,80.288c0-14.8-9.587-22.768-24.329-20.234M186,61.882c-22.693,10.086-9.977,43.32,14.8,38.672,7.5-1.406,6.437-6.32-1.13-5.249-16.023,2.267-25.389-15.121-14.182-26.329,3.68-3.68,4.51-3.915,11.9-3.381,6.827.494,7.946.255,7.946-1.7,0-4.185-11.7-5.4-19.333-2.012m47.142,4.451C216.836,103.7,218.068,100,221.93,100c2.471,0,3.546-1.059,4.737-4.667l1.54-4.666h20.954l1.687,4.666c1.539,4.257,7.819,7.153,7.819,3.607,0-1.2-11.734-27.987-15.16-34.607-3.346-6.465-6.977-5.765-10.365,2m41.525,13.521c0,19.257.117,20.146,2.666,20.146,2.393,0,2.667-.889,2.667-8.667,0-13.787,8.219-12.433,14.132,2.329,2.18,5.443,3.059,6.329,6.282,6.333l3.747,0-5.225-9.971-5.224-9.97L296.856,78c9.685-6.346,2.277-17.055-12.307-17.791l-9.882-.5V79.854m100,0c0,19.261.117,20.15,2.666,20.15,2.371,0,2.667-.889,2.667-8V84h6.1c20.075,0,18.226-22.625-1.942-23.764l-9.494-.537V79.85M344.455,66.738c4.589,3.61,6.752,11.636,4.945,18.349-3.718,13.805-19.578,15.408-24.743,2.5-6.087-15.213,8.044-30.094,19.8-20.849m-51.884.691c4.618,4.617.7,9.9-7.333,9.9H280v-12h5.238c2.984,0,6.14.9,7.333,2.1m98.183-.715c6.176,3.3,2.441,11.6-5.512,12.248l-4.575.371-.4-7-.4-7h4.157a17.223,17.223,0,0,1,6.736,1.381m-325.865.842C64.4,68.044,64,74.867,64,82.717V96.989l-12.333.891c-14.89,1.075-26.631,3.251-26.075,4.833s43.809,47,46.077,48.392c2.37,1.453,2.382,1.442,27.5-25.068l21.5-22.689L114,102.371c-3.667-.537-12.817-1.658-20.333-2.491L80,98.367v-31.7H72.889c-3.911,0-7.511.4-8,.889M243.841,78.333l2.787,7H230.8l1.932-4.666c6.2-14.973,6.117-14.838,7.252-12,.587,1.466,2.322,5.816,3.854,9.666" fill="#919191" fill-rule="evenodd"/>
  </g>
</svg>
