<svg id="svg" xmlns="http://www.w3.org/2000/svg" xmlns:xlink="http://www.w3.org/1999/xlink" width="400" height="152" viewBox="0, 0, 400,152"><g id="svgg"><path id="path0" d="M41.206 32.333 C 24.713 49.383,8.630 66.171,5.465 69.639 L -0.289 75.945 8.808 86.110 C 17.864 96.228,17.930 96.270,23.286 95.410 C 26.245 94.934,32.717 94.192,37.667 93.760 L 46.667 92.975 46.667 77.701 L 46.667 62.426 59.000 49.546 C 73.944 33.940,71.844 33.960,85.822 49.294 L 97.333 61.920 97.333 77.484 C 97.333 95.568,95.929 94.073,114.126 95.350 L 127.333 96.277 136.333 86.935 C 141.283 81.797,145.333 76.889,145.333 76.029 C 145.333 75.169,133.190 61.761,118.348 46.233 C 103.506 30.705,87.801 14.250,83.447 9.667 C 79.093 5.083,74.555 1.333,73.362 1.333 C 72.170 1.333,57.699 15.283,41.206 32.333 M80.261 31.365 C 86.144 37.802,87.192 38.459,88.571 36.572 C 92.063 31.797,96.628 34.711,97.076 42.000 C 97.419 47.585,98.275 49.479,102.354 53.674 C 107.017 58.471,107.122 58.780,104.842 61.008 C 102.568 63.229,101.791 62.626,87.564 47.599 L 72.667 31.865 58.023 46.599 C 43.598 61.112,40.614 63.153,39.201 59.469 C 38.522 57.701,69.904 24.287,72.432 24.087 C 73.036 24.039,76.559 27.314,80.261 31.365 M331.671 60.054 C 314.833 62.947,311.586 91.555,327.248 99.024 C 342.017 106.067,356.000 96.955,356.000 80.288 C 356.000 65.493,346.413 57.520,331.671 60.054 M186.000 61.882 C 163.307 71.968,176.023 105.202,200.797 100.554 C 208.292 99.148,207.234 94.234,199.667 95.305 C 183.644 97.572,174.278 80.184,185.485 68.976 C 189.165 65.296,189.995 65.061,197.387 65.595 C 204.214 66.089,205.333 65.850,205.333 63.894 C 205.333 59.709,193.631 58.491,186.000 61.882 M233.142 66.333 C 216.836 103.701,218.068 100.000,221.930 100.000 C 224.401 100.000,225.476 98.941,226.667 95.333 L 228.207 90.667 238.684 90.667 L 249.161 90.667 250.848 95.333 C 252.387 99.590,258.667 102.486,258.667 98.940 C 258.667 97.739,246.933 70.953,243.507 64.333 C 240.161 57.868,236.530 58.568,233.142 66.333 M274.667 79.854 C 274.667 99.111,274.784 100.000,277.333 100.000 C 279.726 100.000,280.000 99.111,280.000 91.333 C 280.000 77.546,288.219 78.900,294.132 93.662 C 296.312 99.105,297.191 99.991,300.414 99.995 L 304.161 100.000 298.936 90.029 L 293.712 80.059 296.856 77.999 C 306.541 71.653,299.133 60.944,284.549 60.208 L 274.667 59.709 274.667 79.854 M374.667 79.850 C 374.667 99.111,374.784 100.000,377.333 100.000 C 379.704 100.000,380.000 99.111,380.000 92.000 L 380.000 84.000 386.103 84.000 C 406.178 84.000,404.329 61.375,384.161 60.236 L 374.667 59.699 374.667 79.850 M344.455 66.738 C 349.044 70.348,351.207 78.374,349.400 85.087 C 345.682 98.892,329.822 100.495,324.657 87.587 C 318.570 72.374,332.701 57.493,344.455 66.738 M292.571 67.429 C 297.189 72.046,293.274 77.333,285.238 77.333 L 280.000 77.333 280.000 71.333 L 280.000 65.333 285.238 65.333 C 288.222 65.333,291.378 66.235,292.571 67.429 M390.754 66.714 C 396.930 70.018,393.195 78.317,385.242 78.962 L 380.667 79.333 380.264 72.333 L 379.861 65.333 384.018 65.333 C 386.305 65.333,389.336 65.954,390.754 66.714 M64.889 67.556 C 64.400 68.044,64.000 74.867,64.000 82.717 L 64.000 96.989 51.667 97.880 C 36.777 98.955,25.036 101.131,25.592 102.713 C 26.146 104.286,69.401 149.715,71.669 151.105 C 74.039 152.558,74.051 152.547,99.169 126.037 L 120.667 103.348 114.000 102.371 C 110.333 101.834,101.183 100.713,93.667 99.880 L 80.000 98.367 80.000 82.517 L 80.000 66.667 72.889 66.667 C 68.978 66.667,65.378 67.067,64.889 67.556 M243.841 78.333 L 246.628 85.333 238.715 85.333 L 230.803 85.333 232.735 80.667 C 238.933 65.694,238.852 65.829,239.987 68.667 C 240.574 70.133,242.309 74.483,243.841 78.333 " stroke="none" fill="#000000" fill-rule="evenodd"></path></g></svg>