<svg id="svg" xmlns="http://www.w3.org/2000/svg" xmlns:xlink="http://www.w3.org/1999/xlink" width="400" height="115.11254019292603" viewBox="0, 0, 400,115.11254019292603" version="1.1"><g id="svgg"><path id="path0" d="M5.145 47.910 L 5.145 80.386 19.453 80.376 C 39.503 80.363,45.311 78.702,53.325 70.688 C 71.134 52.879,62.827 22.888,38.264 16.310 C 36.019 15.709,30.536 15.447,20.096 15.442 L 5.145 15.434 5.145 47.910 M116.399 22.830 L 116.399 30.225 123.794 30.225 L 131.190 30.225 131.190 22.830 L 131.190 15.434 123.794 15.434 L 116.399 15.434 116.399 22.830 M136.977 47.910 L 136.977 80.386 144.051 80.386 L 151.125 80.386 151.125 47.910 L 151.125 15.434 144.051 15.434 L 136.977 15.434 136.977 47.910 M211.576 47.910 L 211.576 80.386 218.650 80.386 L 225.723 80.386 225.723 70.922 L 225.723 61.459 222.693 58.382 L 219.662 55.305 235.876 55.305 L 252.090 55.305 252.090 67.846 L 252.090 80.386 259.164 80.386 L 266.238 80.386 266.238 47.910 L 266.238 15.434 259.164 15.434 L 252.090 15.434 252.090 24.898 L 252.090 34.361 255.121 37.438 L 258.151 40.514 241.937 40.514 L 225.723 40.514 225.723 27.974 L 225.723 15.434 218.650 15.434 L 211.576 15.434 211.576 47.910 M272.669 22.830 L 272.669 30.225 279.743 30.225 L 286.817 30.225 286.817 22.830 L 286.817 15.434 279.743 15.434 L 272.669 15.434 272.669 22.830 M36.656 29.687 C 44.590 33.456,47.910 38.736,47.910 47.588 C 47.910 60.803,39.714 68.137,24.920 68.160 L 19.936 68.167 19.936 51.171 L 19.936 34.175 16.559 30.880 L 13.183 27.585 23.151 27.796 C 32.330 27.990,33.399 28.140,36.656 29.687 M81.818 33.483 C 74.246 34.811,64.952 42.804,64.952 47.989 C 64.952 49.266,79.849 48.071,81.358 46.674 C 84.650 43.623,91.852 44.004,94.499 47.369 C 96.938 50.470,96.582 50.622,86.013 50.981 C 70.160 51.521,64.282 55.343,64.323 65.087 C 64.378 78.303,83.381 86.237,93.860 77.419 L 95.820 75.770 95.820 78.099 L 95.820 80.428 103.055 80.246 L 110.289 80.064 110.289 63.987 C 110.289 45.258,109.972 43.785,104.921 39.060 C 99.787 34.258,90.365 31.983,81.818 33.483 M356.998 33.449 C 335.662 37.959,331.901 68.600,351.506 78.192 C 364.628 84.612,386.475 77.649,386.493 67.042 C 386.497 64.717,374.029 64.843,370.556 67.203 C 364.795 71.118,356.740 68.668,354.027 62.176 L 353.021 59.768 369.597 59.808 C 378.714 59.829,386.562 59.838,387.037 59.827 C 389.196 59.777,386.671 48.371,383.357 43.207 C 378.357 35.416,367.212 31.290,356.998 33.449 M116.399 56.913 L 116.399 80.428 123.633 80.246 L 130.868 80.064 130.868 56.913 L 130.868 33.762 123.633 33.580 L 116.399 33.398 116.399 56.913 M152.601 34.225 C 152.790 34.678,155.316 40.257,158.216 46.624 C 161.116 52.990,165.618 62.939,168.221 68.733 L 172.954 79.266 169.359 88.025 C 167.382 92.843,165.623 97.146,165.450 97.588 C 165.209 98.204,166.918 98.389,172.761 98.379 L 180.386 98.365 185.476 85.999 C 188.276 79.198,191.067 72.476,191.679 71.061 C 192.598 68.936,205.840 36.888,206.892 34.244 C 207.136 33.629,205.476 33.441,199.826 33.441 C 191.051 33.441,192.330 32.259,186.953 45.338 C 184.627 50.997,182.245 56.762,181.660 58.150 L 180.597 60.673 178.131 54.613 C 176.775 51.280,174.255 45.225,172.532 41.158 L 169.399 33.762 160.829 33.582 C 154.064 33.440,152.331 33.575,152.601 34.225 M272.937 34.030 C 272.789 34.177,272.669 44.668,272.669 57.342 L 272.669 80.386 279.743 80.386 L 286.817 80.386 286.817 57.074 L 286.817 33.762 280.011 33.762 C 276.267 33.762,273.084 33.883,272.937 34.030 M288.310 34.244 C 288.500 34.686,289.657 37.363,290.882 40.193 C 292.107 43.023,296.350 52.862,300.311 62.058 C 309.128 82.525,307.364 80.465,315.878 80.245 L 322.883 80.064 325.008 74.920 C 335.903 48.538,341.479 34.735,341.479 34.145 C 341.479 33.677,339.107 33.441,334.420 33.441 C 325.930 33.441,327.254 31.980,320.873 48.392 C 318.295 55.024,316.010 60.450,315.796 60.450 C 315.582 60.450,313.108 54.590,310.299 47.428 C 307.489 40.265,304.891 34.193,304.524 33.933 C 303.281 33.050,287.925 33.346,288.310 34.244 M369.761 46.610 C 373.809 50.488,373.297 50.804,362.962 50.804 C 352.755 50.804,352.582 50.716,355.826 47.176 C 359.300 43.385,366.106 43.109,369.761 46.610 M95.820 62.879 C 95.820 69.779,81.904 73.441,79.499 67.174 C 77.598 62.218,80.143 60.634,90.193 60.516 L 95.820 60.450 95.820 62.879 " stroke="none" fill="#000000" fill-rule="evenodd"></path></g></svg>