<svg xmlns="http://www.w3.org/2000/svg" width="382.695" height="82.945" viewBox="0 0 382.695 82.945">
  <g id="svgg" transform="translate(-5.145 -15.434)">
    <path id="path0" d="M5.145,47.91V80.386l14.308-.01c20.05-.013,25.858-1.674,33.872-9.688,17.809-17.809,9.5-47.8-15.061-54.378-2.245-.6-7.728-.863-18.168-.868L5.145,15.434V47.91M116.4,22.83v7.4H131.19V15.434H116.4v7.4m20.578,25.08V80.386h14.148V15.434H136.977V47.91m74.6,0V80.386h14.147V61.459l-3.03-3.077-3.031-3.077H252.09V80.386h14.148V15.434H252.09V34.361l3.031,3.077,3.03,3.076H225.723V15.434H211.576V47.91m61.093-25.08v7.4h14.148V15.434H272.669v7.4M36.656,29.687c7.934,3.769,11.254,9.049,11.254,17.9,0,13.215-8.2,20.549-22.99,20.572l-4.984.007V34.175l-3.377-3.3-3.376-3.3,9.968.211c9.179.194,10.248.344,13.5,1.891m45.162,3.8C74.246,34.811,64.952,42.8,64.952,47.989c0,1.277,14.9.082,16.406-1.315C84.65,43.623,91.852,44,94.5,47.369c2.439,3.1,2.083,3.253-8.486,3.612-15.853.54-21.731,4.362-21.69,14.106C64.378,78.3,83.381,86.237,93.86,77.419l1.96-1.649v4.658l7.235-.182,7.234-.182V63.987c0-18.729-.317-20.2-5.368-24.927-5.134-4.8-14.556-7.077-23.1-5.577M357,33.449c-21.336,4.51-25.1,35.151-5.492,44.743,13.122,6.42,34.969-.543,34.987-11.15,0-2.325-12.464-2.2-15.937.161a11.208,11.208,0,0,1-16.529-5.027l-1.006-2.408,16.576.04c9.117.021,16.965.03,17.44.019,2.159-.05-.366-11.456-3.68-16.62-5-7.791-16.145-11.917-26.359-9.758M116.4,56.913V80.428l7.234-.182,7.235-.182v-46.3l-7.235-.182L116.4,33.4V56.913m36.2-22.688c.189.453,2.715,6.032,5.615,12.4s7.4,16.315,10,22.109l4.733,10.533-3.6,8.759c-1.977,4.818-3.736,9.121-3.909,9.563-.241.616,1.468.8,7.311.791l7.625-.014L185.476,86c2.8-6.8,5.591-13.523,6.2-14.938.919-2.125,14.161-34.173,15.213-36.817.244-.615-1.416-.8-7.066-.8-8.775,0-7.5-1.182-12.873,11.9C184.627,51,182.245,56.762,181.66,58.15L180.6,60.673l-2.466-6.06c-1.356-3.333-3.876-9.388-5.6-13.455l-3.133-7.4-8.57-.18c-6.765-.142-8.5-.007-8.228.643m120.336-.195c-.148.147-.268,10.638-.268,23.312V80.386h14.148V33.762h-6.806a50.551,50.551,0,0,0-7.074.268m15.373.214c.19.442,1.347,3.119,2.572,5.949s5.468,12.669,9.429,21.865c8.817,20.467,7.053,18.407,15.567,18.187l7.005-.181,2.125-5.144c10.9-26.382,16.471-40.185,16.471-40.775,0-.468-2.372-.7-7.059-.7-8.49,0-7.166-1.461-13.547,14.951C318.3,55.024,316.01,60.45,315.8,60.45s-2.688-5.86-5.5-13.022-5.408-13.235-5.775-13.5c-1.243-.883-16.6-.587-16.214.311M369.761,46.61c4.048,3.878,3.536,4.194-6.8,4.194-10.207,0-10.38-.088-7.136-3.628,3.474-3.791,10.28-4.067,13.935-.566M95.82,62.879c0,6.9-13.916,10.562-16.321,4.3-1.9-4.956.644-6.54,10.694-6.658l5.627-.066v2.429" fill="#919191" fill-rule="evenodd"/>
  </g>
</svg>
