<svg xmlns="http://www.w3.org/2000/svg" width="1000" height="193" viewBox="0 0 1000 193">
  <g id="Dominion-logo" transform="translate(0 193)">
    <path id="Path_14" data-name="Path 14" d="M0-96.5V0H1000V-193H0Zm992,.2V-7.5H8V-185H992Z" fill="#919191"/>
    <path id="Path_15" data-name="Path 15" d="M16-96.2V-15l484.3-.2,484.2-.3.3-80.7L985-177l-484.5-.2L16-177.5Zm156.8-42.7c22.9,5.5,42.6,10.4,43.7,10.9s-36,.9-85.9.9c-48.3,0-87.6-.3-87.3-.6.6-.6,84.3-21.1,86.5-21.2C130.6-149,149.9-144.5,172.8-138.9Zm141.3-6.5c18.2,5.4,23.9,30.6,10,44.5-6.6,6.7-11.5,7.9-31.3,7.9-10.4,0-15.7-.3-15.3-1,.3-.6,1.6-1,2.9-1,4.4,0,4.6-1.1,4.6-25s-.2-25-4.6-25a3.944,3.944,0,0,1-2.9-1C276.4-147.8,307.8-147.3,314.1-145.4Zm352.4-.6c-.3.5-1.9,1-3.5,1a4.356,4.356,0,0,0-4,1.9c-.6,1.2-1,10.4-1,23C658-96,658-96,665.9-96c10.6,0,15.6-3.1,18.3-11.2,1.4-4.1,4.6-7.1,3.5-3.2a93.1,93.1,0,0,0-1.3,9.6l-.6,7.8H661.9c-15.3,0-23.9-.4-23.9-1s1-1,2.3-1c4.5,0,4.7-1.1,4.7-25s-.2-25-4.7-25c-1.3,0-2.3-.5-2.3-1,0-.6,5.5-1,14.6-1C662-147,666.9-146.6,666.5-146Zm246.4,15.7c4.9,1.6,5.2,1.5,6.6-.3,1.3-1.7,1.4-1.2,1.5,5.4,0,4.6-.4,7.1-1,6.7a2.534,2.534,0,0,1-1-1.8c-.1-1.6-2.8-4.8-6-7-3.7-2.6-10.2-2.2-13.8.8-5.5,4.6-6.8,19.3-2.5,26.8a11.2,11.2,0,0,0,11.9,4.8c2.7-.7,2.9-1.1,2.9-6.1,0-4.8-.3-5.6-2.5-6.7s-1.3-1.3,7-1.3c8.8,0,9.3.1,7.2,1.6-1.8,1.2-2.2,2.5-2.2,6.9,0,5-.2,5.4-3,6.4-13.3,4.6-27,.8-32-8.9-3.9-7.6-2.2-16.7,4.3-22.8C896.5-131.8,903.9-133.3,912.9-130.3Zm-544,1.1a23.247,23.247,0,0,1,6.5,5.5c4.1,5.1,4.9,14.3,1.7,20.4-7.6,15-29.4,14.9-36.2-.2-3.3-7.3-1.6-18,3.7-22.7,5.7-5.1,17.5-6.5,24.3-3Zm35.3,10.5c2.8,6.5,5.2,11.6,5.5,11.4.2-.3,2.5-5.6,5.2-11.8l4.8-11.4,7.9-.3c7-.2,7.6-.1,5.4,1.1-2.5,1.3-2.5,1.3-2.8,17.9L430-95.2l2.7,1c2.2.8.6,1-7.7,1.1-7.9,0-9.9-.3-8-1a8.453,8.453,0,0,0,3.2-2.2c1.1-1.6,1-30.3,0-29.1-.5.5-3.8,8-7.3,16.6-3.5,8.7-6.6,15.8-6.9,15.8s-3.8-7.5-7.7-16.8l-7.2-16.7-.1,15.2v15.2l2.8,1.5c2.6,1.5,2.5,1.5-4.3,1.5-5.6,0-6.5-.2-4.5-1a8.453,8.453,0,0,0,3.2-2.2c.4-.7.8-7.7.8-15.7s-.4-15-.8-15.7a7.471,7.471,0,0,0-3.2-2.2c-1.9-.8-.6-1,5.8-.8l8.3.2Zm51.5-10.7-2.7,1.5.2,16.2c.3,16.1.3,16.1,2.8,17.4,2.2,1.1,1.1,1.3-8,1.2-5.8-.1-9.6-.4-8.5-.6,4.3-1.1,4.5-1.9,4.5-18.5v-15.9l-3.2-1.4c-3.1-1.3-2.7-1.4,7.2-1.4S458.3-130.8,455.7-129.4Zm27.8,9.4c4.7,6,8.8,11,9.1,11,.2,0,.4-4.3.4-9.5,0-9.3,0-9.5-2.7-10.9-2.7-1.5-2.7-1.5,3.5-1.6,6,0,8.3,1.2,4.2,2.3-1.9.5-2,1.4-2,18.6,0,10-.3,18.1-.7,18.1-.5,0-6.4-7-13.3-15.6l-12.5-15.5-.3,11.8c-.3,14.2,0,15.8,3.5,17.1,2.3.9,1.5,1-4.7,1s-7-.1-4.7-1a5.179,5.179,0,0,0,3.2-3.1c.3-1.2.4-8.5.3-16.2-.3-13.4-.4-14-2.6-15.1-4.1-2-3.6-2.4,3.6-2.4h7.1Zm38.3-9.8-2.8,1v33.6l2.8,1c2.1.8.4,1-7.8,1s-9.9-.2-7.7-1l2.7-1v-33.6l-2.7-1c-2.2-.8-.5-1,7.7-1s9.9.2,7.8,1Zm38.3,1.7c11.4,7.2,11.2,25.2-.3,32.8-3.6,2.4-5.1,2.8-11.3,2.8-8.7-.1-13.3-2.5-17.2-9.2a19.676,19.676,0,0,1,3.4-24.4c4.5-4.2,6.4-4.8,13.9-4.9,6,0,7.6.4,11.5,2.9Zm35,8.7c5,6.3,9.2,11.4,9.3,11.2s-.1-4.7-.4-10.1c-.5-9.2-.7-10-3-11.3-2.3-1.2-2-1.3,4.3-1.4,7.2,0,8.2.5,4.2,2l-2.5,1v18c0,9.9-.3,18-.7,17.9-.5,0-6.4-7-13.3-15.5l-12.5-15.6-.3,12.7c-.3,13.3.1,14.9,4.3,16.5,1.3.6-.3.9-5,.9-6.8,0-6.9,0-4.2-1.5l2.8-1.5-.3-15.7c-.3-15.2-.4-15.7-2.5-16.7-3.9-1.7-2.5-2.5,4.2-2.5h6.4Zm129.9-6c0,3.4-.4,5.3-1,4.9a2.558,2.558,0,0,1-1-1.9c0-2.6-4.5-5.5-9.7-6.2l-5.3-.7v8.2c0,4.4.3,8.1.6,8.1,1.1,0,4.9-2.3,5.6-3.4a7.385,7.385,0,0,0,.8-3.4c0-1.2.5-2.2,1-2.2.6,0,1,4,1,10.1,0,6.4-.4,9.8-1,9.4a3.1,3.1,0,0,1-1-2.3c0-2.7-2.9-6.2-5.1-6.2-1.8,0-2,.6-1.7,7.7l.3,7.8h5.1c6-.1,10.2-2.4,11.7-6.6,1.2-3.1,3.2-4.1,2.3-1.2-.2,1-.8,3.7-1.1,6l-.7,4.3-16.6-.1c-12.4,0-16-.3-13.9-1.1l2.7-1v-33.6l-2.7-1c-2.1-.8,1.3-1.1,13.5-1.1L725-131Zm29.5,5.8,9,11.5.3-8.2c.4-10.1-.2-12.7-2.8-12.7-1.1,0-2-.5-2-1,0-.6,2.7-1,6.1-1,3.7,0,5.8.4,5.4,1a2.817,2.817,0,0,1-2.1,1,4.231,4.231,0,0,0-1.6.2c-.1.2-.4,8.6-.7,18.7l-.6,18.4-12.7-15.7L740-123.2v27.3l3.3,1.4c3.1,1.4,3,1.4-4.3,1.4-6,0-7.1-.2-5.5-1.1,4.1-2.2,4.5-3.7,4.5-17.6,0-13.3-.8-17.2-3.5-17.2a2.774,2.774,0,0,1-2-1c-.4-.6,1.9-1,6.2-1h6.8ZM799.2-130a20.261,20.261,0,0,1,11.4,9.3c.9,1.7,1.6,5.5,1.6,8.8,0,8-3,13.1-9.6,16.4-4.5,2.3-6.1,2.5-17,2.4-6.7-.1-11.2-.4-10.1-.6,4.3-1.1,4.5-1.9,4.5-17.7,0-8.3-.4-15.6-.8-16.3a8.453,8.453,0,0,0-3.2-2.2C772.5-131.3,794.2-131.3,799.2-130Zm35.6.2-2.8,1v33.6l2.8,1c2.1.8.4,1-7.8,1s-9.9-.2-7.7-1l2.7-1v-33.6l-2.7-1c-2.2-.8-.5-1,7.7-1S836.9-130.6,834.8-129.8Zm27.7,10.2,9,11.5.3-8.2c.4-10.1-.2-12.7-2.8-12.7-1.1,0-2-.5-2-1,0-.6,2.7-1,6.1-1,3.7,0,5.8.4,5.4,1a2.817,2.817,0,0,1-2.1,1,4.231,4.231,0,0,0-1.6.2c-.1.2-.4,8.6-.7,18.7l-.6,18.4-12.7-15.7L848-123.2v27.3l3.3,1.4c3.1,1.4,3,1.4-4.3,1.4-6,0-7.1-.2-5.5-1.1,4.1-2.2,4.5-3.7,4.5-17.6,0-13.3-.8-17.2-3.5-17.2a2.774,2.774,0,0,1-2-1c-.4-.6,1.9-1,6.2-1h6.8ZM69-88v38H58v-76H69Zm27,0v38.1l-5.7-.3-5.8-.3-.3-37.8L84-126H96Zm26.8-.3-.3,37.8h-11l-.3-37.8L111-126h12ZM149-88v38H138v-76h11Zm27,0v38H165v-76h11Zm27,0v38H192v-76h11Zm43,5.2c0,1.1-.7,1.8-2,1.8a1.887,1.887,0,0,1-1.859-1.08,1.887,1.887,0,0,1,.359-2.12,2.1,2.1,0,0,1,2.186-.39A2.1,2.1,0,0,1,246-82.8Zm6.8.1c.2,1.2-.3,1.7-1.7,1.7-1.2,0-2.1-.6-2.1-1.3,0-3.1,3.2-3.4,3.8-.4Zm692-.1c.3,1.7-16.6,1.8-343.7,1.8-352.8,0-346.8.1-343.4-3.3.3-.4,155-.6,343.7-.5C927.2-84.5,944.5-84.4,944.8-82.8Zm7.2,0c0,1.1-.7,1.8-2,1.8a1.887,1.887,0,0,1-1.859-1.08,1.887,1.887,0,0,1,.359-2.12,2.1,2.1,0,0,1,2.186-.39A2.1,2.1,0,0,1,952-82.8Zm6.8.1c.2,1.2-.3,1.7-1.7,1.7-1.2,0-2.1-.6-2.1-1.3,0-3.1,3.2-3.4,3.8-.4ZM450-70.8c2.6.9,3.5.9,3.8,0,.9-2.9,2.2-.7,2.2,3.8,0,2.7-.4,5-1,5-.5,0-1-.6-1-1.4s-1.4-2.6-3.1-4c-8.5-7.2-17.7,2-15.4,15.6,1.5,8.5,9.9,11.7,16.4,6.2,2.3-1.9,3.1-2.2,3.1-1.1,0,3-5.8,6-11.5,6-9,0-15.3-5.2-16.2-13.5-.8-7,3.9-14.5,10.7-17.1C440.6-72.3,446.6-72,450-70.8Zm46.8-.2H507v8.5l-1.9-3.1c-1.5-2.4-2.8-3.3-6.1-3.8-2.2-.3-4.5-.4-5.1-.1-1.1.8-1.2,11.2-.1,11.9,1.4.9,5.2-2.4,5.2-4.5,0-1,.5-1.9,1-1.9.6,0,1,3.2,1,7.5s-.4,7.5-1,7.5c-.5,0-1-.9-1-1.9,0-2.1-3.8-5.4-5.2-4.5-.9.6-1.1,8.5-.2,10.8.7,1.9,6.5,2.2,9.5.5a12.338,12.338,0,0,0,3.9-4.2c1.7-2.7,2-2.9,2-1.1a39.028,39.028,0,0,1-.6,5.3l-.6,3.1-13.2-.1c-10.2,0-12.6-.3-10.8-1.1,2.1-1.1,2.2-1.6,2.2-14,0-12.1-.1-13-2-13.5-1.1-.3-2-1-2-1.5,0-.6,1-.8,2.3-.4a94.1,94.1,0,0,0,12.5.6ZM552-63.2c3.6,4.4,6.8,8.4,7.3,8.8.4.4.7-2.8.7-7,0-6.9-.2-7.8-2-8.3-3.6-1-2.1-1.9,3-1.9s6.6.9,3,1.9c-1.9.5-2,1.4-2,14.6,0,7.8-.3,14.1-.7,14.1-.5,0-5.1-5.4-10.3-12l-9.5-11.9-.3,10.2c-.3,9.6-.1,10.2,2,11.9,2.3,1.7,2.2,1.8-3.2,1.7-5.3,0-5.4-.1-3.2-1.6,2.1-1.5,2.2-2.2,2.2-13.4,0-10.8-.2-12-2-13.1-3.1-1.9-2.5-2.4,3.3-2.2l5.2.2ZM618.8-67c.2,2.8,0,4-.7,3.5a2.367,2.367,0,0,1-1.1-1.9c0-1.8-1.9-3.3-5.3-4.1l-2.7-.7v13.4c0,13,.1,13.5,2.3,14.6,1.8.9.5,1.1-6.3,1.1s-8.1-.2-6.2-1.1c2.1-1.1,2.2-1.6,2.2-14.5,0-7.6-.4-13.3-.9-13.3-2.7,0-6.3,2.3-7.3,4.7l-1.2,2.8-.4-3.3c-.6-5.7-.6-5.7,13.9-5.5l13.4.2Zm49-2.4c5.1,3.3,4.8,10.5-.6,12.9C666-56,665-55.3,665-55a73.6,73.6,0,0,0,5.5,7.2L676-41h-4.5c-4.4,0-4.6-.1-9.6-7-2.8-3.9-5.5-7-6-7s-.9,2.6-.9,5.8c0,5.1.3,6,2.3,7,1.8.9.7,1.1-5.8,1.1s-7.6-.2-5.7-1.1c2.1-1.1,2.2-1.6,2.2-14,0-12.1-.1-13-2-13.5-4.7-1.2-1.3-1.8,8.8-1.5C661.9-70.9,666.3-70.3,667.8-69.4Zm57,2.6c.2,4,.1,4.2-1.3,2.4a7.7,7.7,0,0,1-1.5-2.8c0-1-7.9-3-9.6-2.4-1.6.6-2,11.1-.4,12.1,1.2.7,5-3,5-5,0-.8.3-1.5.8-1.5.4,0,.7,3.4.7,7.5s-.3,7.5-.7,7.5c-.5,0-.8-.7-.8-1.5,0-1.7-3.5-5.5-5-5.5-.7,0-1,2.4-.8,6.2l.3,6.3,3.8.3c4.5.4,8.4-1.8,9.8-5.5s2-2.3,1.3,3l-.7,4.7H712.6c-12.1,0-12.9-.1-10.8-1.6,2.1-1.4,2.2-2.2,2.2-14.1,0-11.6-.1-12.5-2-13-4.7-1.2-1.2-1.8,10.2-1.6l12.3.2ZM768.6-71c2.1.8,2.9.8,3.6-.2.5-.8.8.1.8,2.4a21.119,21.119,0,0,0,.6,5.2c.3.9.1,1.6-.5,1.6s-1.1-.7-1.1-1.5c0-4.7-9.1-8.5-12-5-2,2.4-.2,5.1,5.3,8,7.9,4.2,9.7,6.2,9.7,10.7,0,6.6-7.3,11.2-13.7,8.7a9.74,9.74,0,0,0-5-.4c-2.2.5-2.3.3-2.3-5.2v-5.8l2.3,4c3.8,6.7,11.9,8.6,13.3,3,.8-3.2.3-3.8-6-7.3-9.7-5.5-12-11-6.7-16.3C760.1-72.2,763.7-72.8,768.6-71ZM205-48c0,.5.6,1,1.4,1a2.517,2.517,0,0,1,2.1,1c.4.7-25.8,1-77.9,1C78.9-45,52-45.3,52-46c0-.6.9-1,2-1s2-.5,2-1c0-.7,25.5-1,74.5-1S205-48.7,205-48Zm7,5c0,1.4-162.6,1.4-163.5,0-.4-.7,27-1,81.4-1C184-44,212-43.7,212-43Zm9,2.5c0,.8-.4,1.5-.8,1.5-.5,0-.9-.7-.9-1.5s.4-1.5.9-1.5C220.6-42,221-41.3,221-40.5Zm5,.2a1.347,1.347,0,0,1-.43.941,1.347,1.347,0,0,1-.97.359,2.215,2.215,0,0,1-1.9-1.3c-.3-.8.3-1.3,1.4-1.3S226-41,226-40.3Zm-9,.3c0,.7-29.5,1-86.5,1S44-39.3,44-40s29.5-1,86.5-1S217-40.7,217-40Z" fill="#919191"/>
    <path id="Path_16" data-name="Path 16" d="M298-121.3c0,16.5.3,23.2,1.2,24.1,3.3,3.3,11.9-.2,15.1-6.2,1.9-3.6,2.2-5.6,2.2-16.1,0-10.4-.3-12.5-2.2-16.1-2.7-5-5.9-7.2-11.8-8.1l-4.5-.6Z" fill="#919191"/>
    <path id="Path_17" data-name="Path 17" d="M353.1-126.6c-3.2,3.4-4.9,13.9-3.3,21.3,1.8,8.6,6.2,12.2,12.2,10.2,4.1-1.5,6.2-5.9,6.8-14.4.5-7.9-1-14.7-3.9-17.6C362.1-129.9,356-129.7,353.1-126.6Z" fill="#919191"/>
    <path id="Path_18" data-name="Path 18" d="M542.6-126.5c-2.8,3-3.6,6.4-3.6,15.9,0,8.3,2.1,13.4,6.3,15.4,3.8,1.8,7.6.4,10.5-3.8,1.9-2.9,2.2-4.6,2.2-13s-.3-10.1-2.3-13.1c-1.9-2.8-3-3.5-6.5-3.7C545.8-129.1,544.6-128.7,542.6-126.5Z" fill="#919191"/>
    <path id="Path_19" data-name="Path 19" d="M789-112.5c0,18.1.2,18.6,5.7,16.8,4.7-1.6,6.7-5.5,7.1-13.8.6-11.5-2.4-17.4-9.5-19l-3.3-.7Z" fill="#919191"/>
    <path id="Path_20" data-name="Path 20" d="M655-63.6V-57h2.9c3.9,0,6.1-2.4,6.1-6.4,0-3.9-1.4-5.3-5.8-6.2l-3.2-.7Z" fill="#919191"/>
  </g>
</svg>
