<svg xmlns="http://www.w3.org/2000/svg" width="362.127" height="187.188" viewBox="0 0 362.127 187.188">
  <g id="svgg" transform="translate(-18.963 -18.963)">
    <path id="path0" d="M245.064,67.32a4.344,4.344,0,0,0-.663,1.029c-.528,1.034-3.107,3.709-3.577,3.709-.183,0-.333.1-.333.223s-.151.223-.335.223-.334.1-.334.223a.224.224,0,0,1-.225.223,7.313,7.313,0,0,0-1.38.558,5.841,5.841,0,0,1-1.56.558c-.223,0-.4.087-.4.194s-.627.262-1.394.344a14.972,14.972,0,0,0-2.064.353c-1.133.342-4.044.5-8.589.478l-14.166-.08c-9.044-.052-12.133.069-12.716.5a6.412,6.412,0,0,1-1.616.315,9.887,9.887,0,0,0-2.176.478c-.43.18-.781.255-.781.168s-.121-.039-.268.108a1.1,1.1,0,0,1-.683.268c-.228,0-.352.1-.276.223s-.131.223-.5.223a5.718,5.718,0,0,0-2.636,1.124c-.178.148-.324.2-.324.122s-.275.107-.612.418a2.159,2.159,0,0,1-.892.567.258.258,0,0,0-.281.223.257.257,0,0,1-.279.224,3.316,3.316,0,0,0-1.115.77c-.46.422-.837.708-.837.635,0-.417-4.444,4.578-4.455,5.008,0,.154-.091.279-.194.279-.177,0-.68.812-2.078,3.355a8.732,8.732,0,0,0-.754,1.81,6.192,6.192,0,0,1-.329,1.074,9.155,9.155,0,0,0-.747,2.015c-.062.307-.217.96-.346,1.45a8.948,8.948,0,0,0-.238,1.828,1.8,1.8,0,0,1-.237,1.078,10.573,10.573,0,0,0-.2,3.248,9.715,9.715,0,0,0,.231,2.98c.112-.069.2.454.2,1.171,0,1.3,1.021,5.468,1.376,5.609.1.041.188.292.188.558a3.052,3.052,0,0,0,.335,1.122,4.849,4.849,0,0,1,.333.725,6.139,6.139,0,0,1-2.576-.115,3.261,3.261,0,0,0-1.216-.325c-2.549-.315-4.462-.678-4.462-.849,0-.1-.252-.186-.561-.186a2.4,2.4,0,0,1-.948-.207,10.146,10.146,0,0,0-1.5-.6c-.122-.04-.524-.141-.892-.222a2.035,2.035,0,0,1-.781-.3,11.175,11.175,0,0,0-2.916-1.274c-.36-.071-.653-.218-.653-.325s-.151-.2-.335-.2-.335-.1-.335-.223-.2-.223-.446-.223-.446-.093-.446-.208-.226-.278-.5-.364a1.516,1.516,0,0,1-.613-.32,16.417,16.417,0,0,0-1.674-1.174,19.588,19.588,0,0,1-2.165-1.593,2.869,2.869,0,0,0-.74-.579,68.072,68.072,0,0,1-5.314-5.358c-.4-.817-.809-1.428-.812-1.227,0,.121-.2-.153-.448-.609a17.049,17.049,0,0,0-1.227-1.854,3.919,3.919,0,0,1-.783-1.455c0-.236-.1-.429-.223-.429s-.223-.2-.223-.446-.076-.446-.169-.446c-.195,0-.631-.949-.847-1.843a1.542,1.542,0,0,0-.347-.738.966.966,0,0,1-.2-.68c0-.315-.1-.5-.223-.42s-.223-.134-.223-.508a1.564,1.564,0,0,0-.163-.808,4.875,4.875,0,0,1-.593-2.182c.062-.1.007-.183-.123-.183s-.236-.442-.236-.991a1.973,1.973,0,0,0-.223-1.129,2.873,2.873,0,0,1-.223-1.418,3.554,3.554,0,0,0-.213-1.493,5.624,5.624,0,0,1-.278-1.885c-.06-1.488-.122-1.7-.569-1.893-.276-.121-.5-.3-.5-.391,0-.439-.895-.127-1.015.354A58.347,58.347,0,0,0,138.7,88.12a5.489,5.489,0,0,1,.384,1.844,3.67,3.67,0,0,0,.374,1.407,1.174,1.174,0,0,1,.2.778c0,.361.1.656.223.656s.223.245.223.545a.936.936,0,0,0,.2.67,2.132,2.132,0,0,1,.351,1,2.573,2.573,0,0,0,.577,1.26,1.3,1.3,0,0,1,.43.773,9.1,9.1,0,0,0,1.345,2.67,5.166,5.166,0,0,1,.558,1.06c.228.521.495.948.594.948a.212.212,0,0,1,.18.233,2.014,2.014,0,0,0,.558.791,2.222,2.222,0,0,1,.558.738,3.108,3.108,0,0,0,.669.88,4.145,4.145,0,0,1,.669.813,5.477,5.477,0,0,0,.781.941,4.287,4.287,0,0,1,.781.992c0,.09.295.339.657.552s.619.449.573.524.211.332.57.572.653.513.653.605a.191.191,0,0,0,.207.167,2.828,2.828,0,0,1,.89.684c.413.413.795.62.965.522s.211-.084.124.012c-.218.242.255.667,1.525,1.371a9.83,9.83,0,0,1,1.2.735,8.128,8.128,0,0,0,1.784,1.083,2.925,2.925,0,0,1,.856.557c.04.092.266.167.5.167s.427.1.427.223.2.223.433.223a.744.744,0,0,1,.573.227.256.256,0,0,0,.348.1c.114-.07.208-.022.208.108s.251.237.557.237.558.1.558.223.251.223.558.223.558.088.558.195c0,.158.746.42,1.6.561a.746.746,0,0,1,.316.192,1.2,1.2,0,0,0,.675.167.865.865,0,0,1,.645.223.957.957,0,0,0,.7.223,2.406,2.406,0,0,1,.935.2,5.379,5.379,0,0,0,1.268.34c.49.077,1.143.193,1.45.259s1.21.176,2.008.246a4.649,4.649,0,0,1,1.561.3c.23.351,12.618.792,13.041.464a6.085,6.085,0,0,1,1.795-.228,3.791,3.791,0,0,0,1.636-.255c.04-.114.612-.207,1.269-.207a2.569,2.569,0,0,0,1.336-.227.259.259,0,0,1,.354-.094,16.077,16.077,0,0,0,4.4-1.069c.04-.1.411-.172.823-.172a1.346,1.346,0,0,0,.889-.226.249.249,0,0,1,.333-.108.25.25,0,0,0,.332-.108,1.113,1.113,0,0,1,.783-.227,1.183,1.183,0,0,0,.754-.179,10.6,10.6,0,0,1,2.076-.827,9.453,9.453,0,0,0,2.041-.825c.041-.1.317-.177.613-.177s.539-.1.539-.223.156-.223.346-.223a4.082,4.082,0,0,0,1.938-.979c.09-.137.165-.175.167-.085a20.984,20.984,0,0,0,4.465-2.272c0-.1.276-.234.614-.3a2.72,2.72,0,0,0,1.106-.585,2.152,2.152,0,0,1,.624-.462,14.38,14.38,0,0,0,2.75-1.813.421.421,0,0,1,.38-.195,1.887,1.887,0,0,0,.864-.557,1.982,1.982,0,0,1,.8-.558c.136,0,.191-.09.123-.2s.11-.258.4-.33a3.419,3.419,0,0,0,1.169-.753,12.763,12.763,0,0,1,1.21-1.012c.307-.215,1.193-.966,1.968-1.669,2.7-2.448,3.935-3.508,3.626-3.11-.423.544-5.151,5.288-5.271,5.288a2.651,2.651,0,0,0-.6.433l-1.061.911c-.307.264-.9.747-1.321,1.074a10.7,10.7,0,0,0-1.109.984,1.125,1.125,0,0,1-.63.391.9.9,0,0,0-.562.446c-.153.245-.374.446-.491.446a10.18,10.18,0,0,0-2.317,1.506,1.069,1.069,0,0,1-.614.279c-.175,0-.318.1-.318.223s-.151.223-.335.223-.335.075-.335.167a4.1,4.1,0,0,1-1.227.808,3.664,3.664,0,0,0-1.227.837c0,.108-.2.2-.446.2s-.446.075-.447.167a2.72,2.72,0,0,1-1.059.6,6.113,6.113,0,0,0-1.171.569,6.188,6.188,0,0,1-2.055.9,1.617,1.617,0,0,0-.794.446,1.669,1.669,0,0,1-.915.446c-.241,0-.471.075-.512.167a17,17,0,0,1-3.476,1.333c-.276.063-.5.2-.5.311s-.189.2-.421.2a14.027,14.027,0,0,0-3.2.913,2.154,2.154,0,0,1-.837.2c-.247,0-.449.089-.449.2a3.85,3.85,0,0,1-1.617.434c-.89.131-2.12.352-2.733.492a21.684,21.684,0,0,1-2.343.368,4.575,4.575,0,0,0-1.457.3,7.644,7.644,0,0,1-2.12.229c-1.882.041-2.669.24-2.669.677a10.515,10.515,0,0,0,2.643,2.654.243.243,0,0,1,.257.223.23.23,0,0,0,.233.224,2.244,2.244,0,0,1,.834.557,2.262,2.262,0,0,0,.827.558,2.522,2.522,0,0,1,.873.558c.606.52.892.649,1.3.584.092-.015.168.074.168.2s.15.223.334.223.335.1.335.223.251.223.558.223.557.084.557.188a3.487,3.487,0,0,0,1.4.578,14.7,14.7,0,0,1,1.781.593,2.122,2.122,0,0,0,.824.2.743.743,0,0,1,.554.192,2.859,2.859,0,0,0,1.185.355c5.343.814,10.634.514,13.782-.781.369-.152,1.183-.422,1.673-.555a12.934,12.934,0,0,0,1.861-.791,4.2,4.2,0,0,1,1.172-.427c.172,0,.313-.1.313-.223a.265.265,0,0,1,.291-.224,3.944,3.944,0,0,0,1.227-.688c.515-.379.936-.626.936-.549s.126.037.279-.089a8.957,8.957,0,0,1,1.832-1.351,12.188,12.188,0,0,0,2.039-1.45c.135-.122.736-.624,1.334-1.115,3.712-3.045,8.6-8.169,9.742-10.225.215-.385.39-.611.39-.5,0,.24,1.108-1.307,1.545-2.157.174-.337.4-.613.5-.613a.218.218,0,0,0,.185-.239,1.109,1.109,0,0,1,.335-.574,1.26,1.26,0,0,0,.335-.765c0-.236.1-.43.223-.43s.223-.15.223-.335.1-.334.223-.334a.232.232,0,0,0,.223-.239,1.109,1.109,0,0,1,.335-.574,1.258,1.258,0,0,0,.334-.765c0-.236.1-.43.223-.43s.223-.151.223-.335.1-.334.224-.334.226-.176.23-.391a1.727,1.727,0,0,1,.334-.823,1.689,1.689,0,0,0,.328-.837c0-.222.1-.4.223-.4s.223-.152.223-.338c0-.34.076-.524.749-1.816a3.372,3.372,0,0,0,.367-.951,5.377,5.377,0,0,1,.433-1.192,7.5,7.5,0,0,0,.5-1.392,1.067,1.067,0,0,1,.242-.575,3.467,3.467,0,0,0,.309-1.277c.075-.632.223-1.095.329-1.029s.192-.182.192-.551a1.177,1.177,0,0,1,.223-.807,1.356,1.356,0,0,0,.224-.892,1.426,1.426,0,0,1,.193-.874,3.811,3.811,0,0,0,.345-1.457,3.611,3.611,0,0,1,.364-1.468,1.966,1.966,0,0,0,.213-1.109,2.115,2.115,0,0,1,.183-1.091,2.958,2.958,0,0,0,.236-1.282,5.331,5.331,0,0,1,.186-1.385c.345-.558.7-12.968.4-13.678a1.4,1.4,0,0,1-.143-.579c.019-.092-.157-.167-.393-.167a2.567,2.567,0,0,1-.725-.109.619.619,0,0,0-.52.056m-75.293,121.3a5.6,5.6,0,0,1-.223,2.343c-.122,0-.223-.076-.223-.169,0-.5-3.175-.958-3.458-.5a.672.672,0,0,1-.515.226c-.644,0-2.244,1.642-2.605,2.665-.967,2.741.205,7.817,1.805,7.817.171,0,.311.077.311.172,0,.394,2.107.671,3.179.418.583-.137,1.06-.326,1.06-.42s.251-.17.558-.17.558.1.558.223.376.222.836.221c1.349,0,1.394-.258,1.394-7.754,0-7.512.021-7.414-1.569-7.414h-1.108v2.342m54.136-1.675a2.338,2.338,0,0,0-.594,1c0,.185-.1.337-.223.337s-.223.485-.223,1.078c0,1.148-.387,1.572-1.51,1.656-1.353.1-.424,1.493,1,1.5.495,0,.5.021.558,4.41l.06,4.406h2.008l.061-4.406.06-4.407,1.167,0c1.5,0,1.775-.191,1.685-1.135l-.073-.758-1.394-.066c-2.306-.11-1.772-2.14.549-2.088,1.185.027,1.47-.149,1.69-1.046.254-1.035.036-1.15-2.17-1.15-2.005,0-2.074.017-2.654.667m-79.066-.172c-.652.315-.729,2.072-.111,2.541,1.436,1.09,3.075-.99,1.831-2.325-.5-.532-.946-.589-1.72-.216m183.6.075c-.5.348-.741,1.884-.3,1.884.108,0,.25.2.314.446.322,1.231,2.166.324,2.166-1.065,0-1.418-1.074-2.04-2.181-1.265m-32.695,1.363a.883.883,0,0,0-.149.524c0,.615-.677,1.782-1.033,1.782-.183,0-.27.1-.194.223s-.075.223-.336.223c-.89,0-.521,1.432.392,1.52l.725.07v3.455c0,4.407.285,5.058,2.473,5.648,1.519.409,2.74-.184,2.839-1.379l.069-.837h-1.09c-1.846,0-2.06-.411-2.06-3.964v-2.931l1.506-.066,1.505-.066V190.63l-1.505-.066-1.506-.066v-2.433h-.744a1.937,1.937,0,0,0-.892.148m38.846.577a8.463,8.463,0,0,0-.5,1.2,1.49,1.49,0,0,1-.808.757.923.923,0,0,0,.019,1.777l.558.13.114,3.624.115,3.624.8.755c1.746,1.647,4.488,1.482,4.617-.278l.068-.94h-1.094c-1.9,0-2.055-.281-2.055-3.864v-3.031l1.506-.066,1.506-.066.069-.948.068-.948h-3.149v-1.092c0-1.56-1.154-1.962-1.83-.637m-242.81,1.541a.735.735,0,0,1-.548.188c-.239,0-.433.1-.433.223s-.136.223-.3.223c-.6,0-1.93,1.611-1.93,2.334,0,.189-.1.343-.223.343s-.224.892-.224,2.231.09,2.231.224,2.231.223.139.223.309c0,1.739,3.81,4.087,5.321,3.278a2.536,2.536,0,0,1,1.012-.241c.707,0,3.145-2.3,2.957-2.784a.392.392,0,0,1,.089-.457c.386-.238.256-4.3-.167-5.2-.432-.923-1.519-2.041-1.986-2.041-.171,0-.311-.1-.311-.223s-.245-.223-.544-.223a.928.928,0,0,1-.685-.227,3.888,3.888,0,0,0-2.474.039m26.236.01c0,.1-.168.178-.373.178a1.489,1.489,0,0,0-.8.385c-.4.366-.438.366-.643,0-.158-.283-.5-.385-1.305-.385h-1.09l-.021,5.1c-.025,6.041-.073,5.835,1.354,5.835h1.092v-3.1c0-4.4.643-5.713,2.746-5.631,1.382.054,2.306-2.13,1.067-2.523-.569-.181-2.028-.073-2.028.15m36.252-.045a.747.747,0,0,1-.571.223c-.238,0-.433.1-.433.223s-.2.223-.446.223-.447-.1-.447-.223-.5-.223-1.119-.223h-1.12l.06,5.41.06,5.41,1.171.067,1.171.067v-2.647c0-4.289.588-6.213,1.931-6.324,1.4-.116,2.046.125,2.22.82.075.3.226.543.335.543a18.421,18.421,0,0,1,.2,3.8v3.805l1.06-.068,1.06-.068.06-4.513c.056-4.212.032-4.542-.372-4.946-.237-.237-.393-.471-.346-.518a3.406,3.406,0,0,0-1.078-.692c-1.2-.621-3.112-.832-3.4-.374m24.316.084c-1.341.527-2.144,1.064-2.388,1.6-.137.3-.333.547-.436.547s-.187.2-.187.447-.081.446-.18.446c-.438,0-.45,3.328-.016,4.833a5.232,5.232,0,0,0,2.794,3.092,8.488,8.488,0,0,1,1.169.354,5.2,5.2,0,0,0,3.469-.74,1.468,1.468,0,0,1,.721-.4c.159,0,.353-.256.431-.568s.2-.515.261-.45c.184.184.72-.979.72-1.56a.885.885,0,0,1,.208-.647,5.163,5.163,0,0,0-.044-2.71,1.521,1.521,0,0,1-.164-.795c0-.348-.1-.632-.223-.632s-.223-.179-.223-.4c0-.5-1.2-1.834-1.66-1.834-.191,0-.348-.1-.348-.223s-.307-.223-.682-.223-.631-.083-.569-.184c.176-.285-1.9-.25-2.653.045m34.468-.1c-.184.1-.636.318-1,.48a4.116,4.116,0,0,0-2.455,2.881,3.084,3.084,0,0,1-.211.728,13.283,13.283,0,0,0,.179,3.929c.722,2.958,5,4.43,7.618,2.621.855-.59,1.582-1.255,1.372-1.255-.089,0,.042-.219.292-.488a1.957,1.957,0,0,0,.455-1.19,1.77,1.77,0,0,1,.151-.852,4.093,4.093,0,0,0,.1-2.155c-.083,0-.172-.276-.2-.613-.063-.8-.493-1.841-.759-1.841-.115,0-.153-.091-.084-.2.156-.253-1.13-1.359-1.579-1.359-.182,0-.269-.1-.193-.223s-.109-.223-.433-.223-.571-.085-.571-.189c0-.248-2.246-.289-2.677-.049m25.878,0c-.184.1-.686.361-1.115.585a4.55,4.55,0,0,0-1.167.868l-.614.731a1.091,1.091,0,0,0-.227.6.6.6,0,0,1-.223.468c-.593.367-.124,5.681.5,5.687.092,0,.167.136.167.3A3.435,3.435,0,0,0,237.778,201a3.8,3.8,0,0,1,.893.35c1,.5,4.051.384,4.051-.156,0-.107.134-.194.3-.194a4.254,4.254,0,0,0,1.71-1.779A.208.208,0,0,1,244.9,199c.666,0,.522-5.49-.17-6.472-.745-1.059-.95-1.252-1.521-1.433-.27-.086-.491-.25-.491-.364s-.2-.208-.433-.208a.747.747,0,0,1-.571-.223,5.019,5.019,0,0,0-2.789-.019m13.386.019c0,.122-.2.223-.447.223s-.446.088-.446.2-.2.249-.446.314c-.29.075-.446.006-.446-.2,0-.227-.306-.313-1.119-.313h-1.118l.059,7.752.058,7.752,1.02.067c1.322.086,1.546-.365,1.546-3.116,0-1.593.059-1.976.279-1.795a2.6,2.6,0,0,0,.99.34,3.607,3.607,0,0,1,.928.245c1.079.667,4.165-1.489,4.658-3.253.632-2.261.139-5.947-.934-6.991a3.831,3.831,0,0,0-1.911-1c-.257,0-.4-.1-.329-.223.086-.139-.332-.223-1.1-.223-.682,0-1.24.1-1.24.223m12.57.055a.579.579,0,0,1-.441.168,1.157,1.157,0,0,0-.672.334c-.432.432-.749.427-.749-.012,0-.275-.221-.333-1.06-.279l-1.059.068-.059,7.431c-.066,8.3-.107,8.074,1.469,8.074,1.108,0,1.155-.119,1.155-2.918,0-1.819.06-2.213.335-2.213.184,0,.334.077.334.17,0,1,3.925.533,5.155-.616,1.857-1.734,2.047-6.9.327-8.874-1.021-1.174-4.265-2.088-4.735-1.333m11.969-.069c0,.13-.154.237-.342.237a4.874,4.874,0,0,0-1.968,1.115c-1.1.89-1.983,6.563-1.068,6.868a.515.515,0,0,1,.255.48,3.862,3.862,0,0,0,1.98,2.022.33.33,0,0,1,.288.2,4.905,4.905,0,0,0,4.388,0,.462.462,0,0,1,.42-.2,2.791,2.791,0,0,0,1.4-1.408c0-.1.082-.13.182-.068.412.255.976-2.2.866-3.775-.2-2.848-.6-3.806-1.868-4.491-.408-.219-.741-.476-.741-.571s-.2-.172-.433-.172a.744.744,0,0,1-.538-.17c-.169-.274-2.822-.337-2.822-.067m13.386.014c0,.122-.158.223-.351.223a1.17,1.17,0,0,0-.685.334c-.413.414-.749.432-.749.04,0-.2-.365-.311-1.115-.345l-1.116-.051V201.45h2.231v-3.235c0-2.008.085-3.235.223-3.235.123,0,.223-.247.223-.548a1.229,1.229,0,0,1,.343-.837c.188-.158.5-.426.681-.594a2.881,2.881,0,0,1,1.534-.307h1.194l.094-1.032a2.721,2.721,0,0,0-.119-1.311c-.251-.33-2.388-.38-2.388-.055m29.358.035c.064.1-.141.188-.455.188s-.571.1-.571.223-.15.223-.334.223a.331.331,0,0,0-.349.279c-.008.153-.105.053-.216-.223-.168-.418-.373-.5-1.217-.5h-1.015l.06,5.41.06,5.41,1.059.068,1.06.068V198c0-2.164.084-3.47.223-3.47.123,0,.223-.2.223-.446,0-.577.657-1.226,1.474-1.455.939-.264,1.062-.267,1.37-.037.154.114.279.13.279.035s.2.008.446.23a1.344,1.344,0,0,1,.447.8.7.7,0,0,0,.237.545c.152.094.226,1.317.207,3.416-.016,1.8-.022,3.4-.014,3.559.011.207.324.272,1.076.224l1.059-.068.061-4.223a19.739,19.739,0,0,0-.167-4.451.889.889,0,0,1-.228-.547c0-.391-.843-1.153-1.275-1.153-.172,0-.251-.1-.176-.223s-.1-.223-.419-.223a.951.951,0,0,1-.7-.227,2.161,2.161,0,0,0-1.232-.188c-.6.021-1.039.123-.975.227m-243.192.664a1.069,1.069,0,0,0,.184.56.965.965,0,0,1,.153.562c0,.225.1.409.223.409s.223.251.223.558.1.558.223.558.223.193.223.428a3.024,3.024,0,0,0,.316,1.06A29.391,29.391,0,0,1,79.557,199a7.875,7.875,0,0,0,.577,1.439c.259.308.219,1.411-.055,1.5-.128.042-.249.295-.269.561s-.116.434-.213.374-.177.035-.177.212c0,.356-.649.587-1.673.6s-1.347.319-1.26,1.162c.244,2.376,4.882,1.263,5.532-1.327.069-.277.216-.5.325-.5s.2-.152.2-.338a1.808,1.808,0,0,1,.216-.725,12.244,12.244,0,0,0,.9-2.849c0-.18.1-.327.223-.327s.223-.245.223-.545a.928.928,0,0,1,.223-.682.743.743,0,0,0,.223-.571c0-.238.1-.433.223-.433S85,196.3,85,196a.928.928,0,0,1,.227-.685.25.25,0,0,0,.108-.333.248.248,0,0,1,.108-.332.747.747,0,0,0,.226-.573c0-.238.1-.433.224-.433s.223-.181.223-.4a1.033,1.033,0,0,1,.2-.613,3.345,3.345,0,0,0,.356-1.172l.156-.96-1.3.068c-1.229.064-1.311.1-1.5.736a7.71,7.71,0,0,1-.395,1.057,2.2,2.2,0,0,0-.2.837c0,.247-.1.449-.224.449s-.223.2-.223.433a.74.74,0,0,1-.21.563,2.485,2.485,0,0,0-.36,1.128c-.082.55-.239,1-.347,1s-.2.257-.2.571-.1.511-.223.433a.952.952,0,0,1-.223-.695c0-.316-.1-.5-.223-.42s-.223-.048-.223-.275a10.6,10.6,0,0,0-.968-2.886.966.966,0,0,1-.148-.558c0-.224-.1-.409-.223-.409s-.223-.2-.223-.435c0-1.2-.452-1.6-1.785-1.547-1.065.038-1.254.108-1.229.451m24.654,3.936c0,4.751.026,4.872,1.287,5.983,1.034.911,4.959,1.117,4.959.26,0-.251.843-.207,1,.053.239.386,1.831.268,1.991-.148.078-.2.132-2.663.12-5.465l-.022-5.1h-2.383l-.1,3.4c-.057,1.871-.145,3.563-.195,3.759-.159.615-.868,1.559-1.074,1.431a.252.252,0,0,0-.338.105,1.578,1.578,0,0,1-.985.226c-1.477,0-1.583-.3-1.583-4.438,0-4.322-.057-4.485-1.57-4.485H101.06v4.412m26.1-3.768a1.176,1.176,0,0,0,.223.806.933.933,0,0,1,.223.685,2.314,2.314,0,0,0,.214.935,16.929,16.929,0,0,1,.832,3.232c.066.337.2.613.295.613s.223.377.283.837a17.638,17.638,0,0,0,.413,1.952l.306,1.116,1.193.068c1.3.074,1.8-.264,1.811-1.227a.848.848,0,0,1,.231-.626.909.909,0,0,0,.223-.669.91.91,0,0,1,.207-.66,3.258,3.258,0,0,0,.361-1.355,3.357,3.357,0,0,1,.35-1.348.74.74,0,0,0,.2-.555c0-.238.1-.433.223-.433s.223.3.223.67.1.669.223.669.224.251.224.558.117.557.26.557.205.056.137.123a1.9,1.9,0,0,0,.083.948c.114.454.233.948.265,1.1a1.017,1.017,0,0,0,.215.428,1.231,1.231,0,0,1,.155.675c0,.287.1.521.223.521s.223.15.223.334c0,.261.3.335,1.339.335,1.279,0,1.338-.025,1.338-.558,0-.306.1-.557.223-.557s.208-.076.189-.168a7.88,7.88,0,0,1,.51-2.639,1.181,1.181,0,0,0,.194-.776c0-.361.1-.656.223-.656s.223-.295.223-.656a1.181,1.181,0,0,1,.194-.776,2.948,2.948,0,0,0,.341-1.231,2.778,2.778,0,0,1,.364-1.245,1.405,1.405,0,0,0,.216-.9v-.767h-1.24c-.77,0-1.188.084-1.1.223.076.122.031.223-.1.223s-.236.281-.236.625a1.539,1.539,0,0,1-.2.836,4.973,4.973,0,0,0-.435,1.439c-.635,3.3-.653,3.349-1.056,2.8a1.884,1.884,0,0,1-.319-.948c0-.284-.086-.515-.192-.515s-.25-.495-.322-1.1a6.389,6.389,0,0,0-.331-1.506c-.11-.224-.316-.632-.458-.906a2.323,2.323,0,0,1-.258-.837c0-.262-.287-.337-1.289-.337h-1.289l-.42,1.394a15.321,15.321,0,0,0-.454,1.78,1.052,1.052,0,0,1-.187.539.958.958,0,0,0-.154.563c0,.225-.1.409-.223.409s-.226.225-.231.5a2.736,2.736,0,0,1-.318,1.059c-.358.642-.455.475-.654-1.115-.069-.552-.189-1.255-.267-1.562s-.191-.884-.252-1.283-.2-.725-.31-.725-.2-.335-.2-.744v-.744l-1.338-.048-1.339-.049v.668m17.327-.5a53.081,53.081,0,0,0-.149,5.466v5.317h1.116c.842,0,1.115-.082,1.115-.335,0-.184.1-.334.223-.334.342,0,.3-9.651-.045-10a3.3,3.3,0,0,0-2.26-.119m42.079.229c-.08.21-.028.415.119.464s.263.364.263.7a1.464,1.464,0,0,0,.168.78c.146.146.288.722.871,3.533.07.337.2.613.3.613.174,0,.21.137.685,2.566.353,1.808.482,1.929,1.972,1.85,1.139-.06,1.254-.114,1.324-.623a2.221,2.221,0,0,1,.239-.781,6.523,6.523,0,0,0,.451-1.227c.16-.552.429-1.382.6-1.845a5.148,5.148,0,0,0,.308-1.381.921.921,0,0,1,.223-.678c.123-.076.223.01.223.191a.439.439,0,0,0,.233.407c.128.043.25.3.271.576s.1.5.183.5.209.467.287,1.037a3.81,3.81,0,0,0,.351,1.289,2.092,2.092,0,0,1,.288.85,1.8,1.8,0,0,0,.238.757.962.962,0,0,1,.157.566c0,.351.189.409,1.339.409,1.063,0,1.338-.071,1.338-.348,0-.191.1-.285.223-.21s.223-.179.223-.643a1.476,1.476,0,0,1,.2-.9,3.75,3.75,0,0,0,.357-1.463c.085-.736.246-1.282.356-1.214s.2-.177.2-.545a1.172,1.172,0,0,1,.223-.807.954.954,0,0,0,.223-.7,2.463,2.463,0,0,1,.225-.98,7.068,7.068,0,0,0,.367-1.77l.141-1.349h-1.093c-1.368,0-1.512.263-2.133,3.9a8.956,8.956,0,0,1-.429,1.726,1.9,1.9,0,0,0-.2.725c0,.185-.1.337-.223.337s-.224-.251-.224-.557-.1-.558-.223-.558-.227-.326-.233-.725a6.067,6.067,0,0,0-.331-1.618,5.543,5.543,0,0,1-.325-1.3c0-.222-.1-.342-.226-.266s-.223-.1-.223-.415c0-1.091-.194-1.258-1.461-1.258a2.16,2.16,0,0,0-1.369.279,12.624,12.624,0,0,0-.959,3.234c0,.276-.1.5-.227.5s-.223.183-.223.407a4.068,4.068,0,0,1-.413,1.254l-.412.849-.174-.753c-.1-.414-.214-.9-.265-1.087s-.151-.714-.225-1.177a2.034,2.034,0,0,0-.326-.961,1.188,1.188,0,0,1-.193-.776c0-.361-.1-.656-.223-.656s-.223-.251-.223-.558c0-.713-2.346-.875-2.613-.18m115.943,3.85c0,2.685.082,4.25.223,4.25.123,0,.223.211.223.468,0,1.575,3.041,2.714,5.3,1.985.985-.318,1.521-.4,1.574-.241.045.133.524.242,1.066.242h.986V190.519h-2.231v3.458c0,2.156-.084,3.457-.223,3.457-.123,0-.224.245-.224.543,0,1.069-2.308,1.967-3.078,1.2-.147-.148-.268-.191-.268-.1s-.148.024-.329-.157c-.261-.261-.342-1.158-.391-4.311l-.061-3.981-1.282-.067-1.283-.067v4.25m25.65-4.172c0,.031-.027,2.445-.055,5.364-.058,5.963-.154,5.645,1.647,5.473l.756-.072.065-5.41.066-5.41H329.4a7.187,7.187,0,0,0-1.242.055m11.94.169a3.949,3.949,0,0,0,.569,2.007,7.231,7.231,0,0,1,.881,1.988,1.817,1.817,0,0,0,.2.636,10.2,10.2,0,0,1,1.143,2.661,8.994,8.994,0,0,0,.911,2.352c.645,1.224-.735,3.294-2.195,3.294-1.517,0-2.2,1.184-1.208,2.085,1.056.955,4.723-.132,4.723-1.4,0-.131.081-.239.18-.239s.358-.426.575-.948l.58-1.394a11.174,11.174,0,0,0,.9-2.793c0-.243.1-.442.223-.442s.223-.251.223-.558.089-.558.2-.558.249-.225.312-.5a10.089,10.089,0,0,1,.83-2.176,1.338,1.338,0,0,0,.183-.531,10.324,10.324,0,0,1,.614-1.6c.871-1.9.793-2.1-.811-2.1-.777,0-1.3.088-1.223.207a.257.257,0,0,1-.1.348.928.928,0,0,0-.227.685c0,.3-.1.544-.223.544s-.223.2-.223.433a.745.745,0,0,1-.223.571.865.865,0,0,0-.223.646,1.187,1.187,0,0,1-.168.674.685.685,0,0,0-.185.316,6.544,6.544,0,0,1-.549,1.711,2.256,2.256,0,0,0-.265.78c-.086.515-.106.524-.261.112a8.506,8.506,0,0,0-.373-.834,1.867,1.867,0,0,1-.207-.725c0-.185-.089-.337-.2-.337s-.265-.45-.348-1a2.47,2.47,0,0,0-.36-1.129.739.739,0,0,1-.21-.562c0-.239-.1-.434-.223-.434s-.223-.25-.223-.557-.1-.558-.223-.558-.223-.2-.223-.446c0-.493-2.277-.69-2.566-.222M94.039,192.628a2.227,2.227,0,0,1,1.443,2.023.9.9,0,0,0,.21.656.569.569,0,0,1,.13.542c-.044.228-.139.786-.211,1.24-.455,2.861-4.768,3.209-4.806.388,0-.283-.091-.464-.192-.4s-.152-.207-.112-.6c.206-2.013.359-2.834.527-2.834.1,0,.243-.18.313-.4a1.383,1.383,0,0,1,.851-.623,2.422,2.422,0,0,1,1.847.009m74.262.137a2,2,0,0,1,.8.654c.084.184.269.559.411.833.316.612.342,3.1.034,3.294a.751.751,0,0,0-.223.574c0,.554-1.231,1.321-2.119,1.32-.591,0-2.35-.88-1.785-.892.123,0,.085-.092-.083-.2-.393-.249-.4-4.144-.012-4.616.144-.173.192-.314.106-.314s0-.151.18-.335a1.172,1.172,0,0,1,.686-.334c.192,0,.35-.079.35-.175,0-.271.933-.164,1.653.19m12.461-.2c.274.142.646.327.826.41,2.293,1.068,1.076,6.471-1.458,6.471-3.448,0-3.483-6.655-.038-7.116a1.877,1.877,0,0,1,.67.235m34.385.074c.809.224,1.473.873,1.473,1.44a.747.747,0,0,0,.223.571,4.129,4.129,0,0,1,0,2.677.591.591,0,0,0-.223.458c0,1.175-1.978,1.988-3.216,1.321-2.105-1.134-2.053-5.36.079-6.433.611-.307.671-.308,1.664-.034m25.709-.041a1.105,1.105,0,0,0,.628.156c1.063,0,1.831,4.053,1.046,5.519-.53.989-2.57,1.55-3.255.894a7.746,7.746,0,0,0-.765-.607,1.166,1.166,0,0,1-.473-.935,1.05,1.05,0,0,0-.223-.744,2.372,2.372,0,0,1,0-2.008.762.762,0,0,0,.223-.581c0-1.014,2.186-2.327,2.819-1.694m13.447.145a2.494,2.494,0,0,1,1.015,1.386.62.62,0,0,0,.176.316c.323.323.162,2.447-.269,3.551-.24.614-.44,1.035-.446.936s-.234-.024-.506.167c-1.765,1.236-3.295-.238-3.318-3.2-.023-2.986,1.314-4.247,3.348-3.159m12.65-.035c1.221.653,1.75,4.281.821,5.629-1.674,2.428-4.3.917-4.3-2.473,0-2.762,1.568-4.182,3.484-3.156m11.83-.108a.846.846,0,0,0,.507.155c1.673.007,1.864,4.888.249,6.35-1.05.95-3.577-.133-3.577-1.532a.946.946,0,0,0-.223-.692,2.371,2.371,0,0,1,0-2.008.93.93,0,0,0,.223-.683c0-1.1,2.115-2.3,2.821-1.59" fill="#919191" fill-rule="evenodd"/>
    <path id="path1" d="M180.88,19.818c-1.061.682-1.909,1.533-1.014,1.018.159-.091.2-.074.1.04a.726.726,0,0,1-.462.2c-.275,0-1.021.542-3.016,2.183-.563.463-1.132.928-1.264,1.033a2.909,2.909,0,0,1-.741.349c-.318.1-.456.278-.376.485.069.18.039.273-.066.209s-.37.08-.589.323a1.312,1.312,0,0,1-.656.441,3.507,3.507,0,0,0-1.109.78,4.737,4.737,0,0,1-1,.781,2.442,2.442,0,0,0-.7.64c-.309.361-.685.587-.863.52s-.255-.023-.169.117-.094.3-.409.377-.556.238-.556.358-.157.219-.348.219-.286.1-.21.223.026.223-.112.223-.187.1-.111.223-.066.223-.314.223a2.62,2.62,0,0,0-1.233.781,3.047,3.047,0,0,1-1.067.788,2.982,2.982,0,0,0-1.056.781,4.2,4.2,0,0,1-.914.774,3.125,3.125,0,0,0-.791.557,2.883,2.883,0,0,1-.816.558c-.092,0-.142.112-.111.249s-.144.283-.387.323a.7.7,0,0,0-.52.308.34.34,0,0,1-.282.236c-.379,0-1.307.958-1.166,1.2.077.135.058.172-.042.081-.328-.3-2.9,1.478-2.674,1.845.056.091-.029.152-.19.135-.293-.031-1.019.436-2.12,1.363a2.541,2.541,0,0,1-.762.5c-.092,0-.168.168-.168.372s-.066.306-.146.225c-.219-.218-.764.309-.6.579.083.135.035.165-.116.072-.314-.194-1.651.711-1.474,1,.069.112-.022.147-.2.077-.2-.075-.43.062-.578.337-.136.255-.348.464-.471.464a8.89,8.89,0,0,0-1.679,1.115,10.586,10.586,0,0,1-1.627,1.116c-.1,0-.3.243-.461.54s-.408.494-.554.438-.4.15-.563.456-.375.511-.469.453-.473.2-.842.565a2.273,2.273,0,0,1-1.035.671c-.2,0-.3.1-.228.223s0,.223-.175.223a1.314,1.314,0,0,0-.717.446,1.309,1.309,0,0,1-.7.447c-.165,0-.3.075-.3.167a14.955,14.955,0,0,1-2.119,1.724c-2,1.471-2.9,2.793-1.9,2.793a.243.243,0,0,1,.223.257,7.029,7.029,0,0,0,1.4,2.644c.128,0,.17.063.093.14s-.023.354.122.614a1.355,1.355,0,0,1,.215.64c-.026.092.053.167.175.167s.224.151.224.335.1.335.223.335.223.2.223.446.1.446.223.446a.235.235,0,0,1,.223.245c0,.479.722,1.757.922,1.633.113-.07.19-.044.172.057-.19,1.1.568,1.28,1.662.4.386-.309.8-.637.925-.73.211-.16,2.639-2.073,3.129-2.465.126-.1.527-.375.892-.61.606-.389,2.4-1.775,3.6-2.78a12.244,12.244,0,0,1,1.115-.8,9.793,9.793,0,0,0,1.361-1.126,2.909,2.909,0,0,1,.837-.679,2.865,2.865,0,0,0,.875-.563,4.585,4.585,0,0,1,.89-.613c.135,0,.607-.385,1.982-1.615a5.109,5.109,0,0,1,1.107-.836,2.834,2.834,0,0,0,.814-.658c.352-.359.684-.609.739-.555s.346-.13.648-.411,1.1-.906,1.764-1.392a8.809,8.809,0,0,0,1.289-1.055.43.43,0,0,1,.374-.171,1.422,1.422,0,0,0,.739-.558c.241-.307.51-.558.6-.558a14,14,0,0,0,2.371-1.772,5.7,5.7,0,0,1,1.613-1.2c.217-.083.331-.255.252-.382s-.059-.216.042-.2c.474.082.742-.051.742-.369,0-.191.092-.29.205-.221s.338,0,.5-.161a11.757,11.757,0,0,1,1.077-.833,18.2,18.2,0,0,0,1.9-1.464,12.22,12.22,0,0,1,1.283-.936,1.891,1.891,0,0,0,.74-.77.556.556,0,0,1,.46-.4,6.909,6.909,0,0,0,2.313-1.562,10.2,10.2,0,0,1,1.283-.954c.521-.337.948-.713.948-.834s.154-.219.342-.219a.552.552,0,0,0,.47-.335c.18-.47.455-.419,1.135.211.323.3.673.494.776.43s.161.016.127.179.111.282.322.266a.53.53,0,0,1,.509.366,1.482,1.482,0,0,0,1.261.7c.081-.01.281.155.446.366.271.346.263.353-.09.077-.214-.168-.39-.21-.39-.092,0,.228,1.048.818,1.49.838a.747.747,0,0,1,.446.212c.105.115.064.132-.1.04s-.278-.1-.278-.02c0,.224.615.778.864.778a3.7,3.7,0,0,1,1.075.8,19.584,19.584,0,0,0,1.965,1.556c1.976,1.348,2.225,1.54,2.532,1.955a.594.594,0,0,0,.663.27c.2-.076.294-.072.212.01-.175.175,1,1.214,1.379,1.214.143,0,.209.08.148.179s.235.366.656.593.768.5.768.6.113.188.252.188a1.179,1.179,0,0,1,.614.391,14.368,14.368,0,0,0,2.629,2.067,2.072,2.072,0,0,1,.711.558,2.012,2.012,0,0,0,.715.554,1.988,1.988,0,0,1,.714.5,7.094,7.094,0,0,0,1.927,1.5,4.092,4.092,0,0,1,1.058.777,5.643,5.643,0,0,0,1.251.908c.215.071.391.212.391.311a5.17,5.17,0,0,0,1.281,1.045c.705.475,1.391.964,1.525,1.087s.524.423.868.669a14.514,14.514,0,0,1,1.277,1.065c.358.34.747.56.862.488s.21.02.21.2a.607.607,0,0,0,.446.475c.246.078.447.232.447.342s.167.137.371.059c.236-.091.317-.054.221.1-.083.135.173.443.577.695a5.733,5.733,0,0,1,1.131.93c.222.262.543.424.714.359.2-.078.266-.007.185.2-.068.178,0,.323.153.323a1.177,1.177,0,0,1,.637.392,3.994,3.994,0,0,0,.944.691,6.384,6.384,0,0,1,1.174.847c.325.3.705.477.845.39s.195-.06.117.066c-.17.276.836,1.184,1.311,1.184.191,0,.284.1.209.223s.1.223.391.223c.526,0,1.415-1.278,1.356-1.95-.013-.152.062-.223.167-.158.157.1.759-1.009.889-1.633.029-.139,1.11-2.162,1.517-2.84a1.876,1.876,0,0,0,.228-1.06c.022-.341.089-.412.209-.222s.331-.006.666-.634c.645-1.208.62-1.418-.237-2.024a11.976,11.976,0,0,1-1.237-1.019,1.935,1.935,0,0,0-.7-.507,4.16,4.16,0,0,1-1.037-.781,4.1,4.1,0,0,0-1.042-.78,2.166,2.166,0,0,1-.748-.558,2.212,2.212,0,0,0-.737-.558,3.108,3.108,0,0,1-.88-.669,3.92,3.92,0,0,0-.824-.669c-.136,0-.267-.1-1.554-1.222-.889-.773-1.4-1.018-1.094-.529.1.161.061.2-.1.1a.281.281,0,0,1-.133-.369c.071-.114-.028-.207-.219-.207s-.348-.092-.348-.2c0-.324-1.828-1.581-2.076-1.427-.123.076-.162.037-.086-.086.138-.223-.8-1.183-1.152-1.183a1.722,1.722,0,0,1-.649-.391c-1.946-1.646-2.552-2.062-2.791-1.914-.134.083-.164.034-.07-.117s-.108-.412-.522-.648c-.376-.214-.683-.464-.684-.556s-.152-.167-.336-.167-.335-.111-.335-.247-.155-.187-.346-.114c-.224.086-.29.043-.189-.122.087-.14-.008-.375-.209-.522-.319-.233-.174-.409,1.127-1.36a26.851,26.851,0,0,0,2.125-1.706,2.628,2.628,0,0,1,.815-.614,3.783,3.783,0,0,0,.985-.755c.44-.415.851-.7.913-.643s.28-.055.484-.259c.347-.347.4-.345.838.029.257.221.571.478.7.571s.681.516,1.229.938c.709.545,1.047.689,1.168.5.108-.17.172-.088.174.226,0,.523.7,1.05,1.034.781.108-.088.124-.071.036.037-.215.266,1.372,1.509,1.693,1.326.138-.08.18-.065.092.033-.2.223.815,1.04,1.195.959a.235.235,0,0,1,.293.232c.016.465,1.98,1.844,2.179,1.531.107-.167.171-.1.178.184.01.455,3.8,3.4,4.231,3.293.116-.029.153.1.083.279-.076.2,0,.332.189.332a1.651,1.651,0,0,1,.805.455c.269.25.488.406.488.347a5.344,5.344,0,0,1,1.005.884,5.933,5.933,0,0,0,1.172.992,3.88,3.88,0,0,1,.947.668,3.849,3.849,0,0,0,.946.669,2.011,2.011,0,0,1,.669.433l1.052.9a12.707,12.707,0,0,0,1.312.942,9.819,9.819,0,0,1,1.412,1.1,3.042,3.042,0,0,0,.807.637,3.429,3.429,0,0,1,.859.613c1.813,1.582,1.81,1.58,2.1,1.314.211-.2.243-.194.131.006-.179.318.724,1,1.067.807.133-.076.171-.059.084.037s.153.439.533.761l1.435,1.216c.424.361.856.561,1.007.468s.205-.068.105.094c-.088.142-.075.257.029.257a5.277,5.277,0,0,1,1.185.888,6.833,6.833,0,0,0,1.386,1.019c.215.072.39.236.39.363s.15.175.332.105.308-.016.279.121.3.488.728.779,1.082.779,1.45,1.082c3.025,2.494,3.515,2.614,4.012.987a3.046,3.046,0,0,1,.446-.882c.7-.846,3.936-7.591,3.817-7.965a2.8,2.8,0,0,0-1.023-.957,2.724,2.724,0,0,1-.894-.723c0-.094-.126-.172-.279-.173a3.237,3.237,0,0,1-1.1-.78,3.366,3.366,0,0,0-1.066-.779.5.5,0,0,1-.374-.335c-.07-.184-.224-.335-.342-.335a12.121,12.121,0,0,1-2.513-1.9,14.172,14.172,0,0,0-1.421-1.063c-.514-.339-.935-.732-.935-.873s-.067-.19-.15-.108-.333-.018-.557-.221c-.381-.344-.409-.889-.412-7.976,0-4.183-.084-7.733-.183-7.889-.139-.219-1.485-.269-5.964-.223l-5.785.06-.121,3.346c-.066,1.841-.141,3.221-.167,3.068a.32.32,0,0,0-.28-.279,2.014,2.014,0,0,1-.791-.558,2.193,2.193,0,0,0-.744-.558,2.867,2.867,0,0,1-.857-.685,2.852,2.852,0,0,0-1.021-.737,1.7,1.7,0,0,1-.777-.542,1.4,1.4,0,0,0-.691-.49c-.147,0-.209-.092-.14-.2s-.182-.273-.56-.356-.631-.207-.563-.275c.11-.109-.521-.76-1.483-1.532-.589-.471-1.228-.739-1.387-.58-.088.088-.126.046-.085-.092a8.647,8.647,0,0,0-2.811-2.314c-.134,0-.367-.2-.519-.443a4.856,4.856,0,0,0-1.225-1.041,6.222,6.222,0,0,1-1.22-.951c-.149-.194-.275-.286-.279-.2s-.319-.133-.7-.479a12.338,12.338,0,0,0-2.27-1.761,4.387,4.387,0,0,1-1-.774,5.638,5.638,0,0,0-1.117-.879c-.522-.338-.948-.725-.948-.86s-.2-.193-.469-.124-.41.065-.338-.007c.17-.17-1.006-1.178-1.376-1.178a4.68,4.68,0,0,0-1.742,1c-.134.124-.558.465-.943.757s-.646.617-.581.723-.034.132-.22.061-.553.1-.86.434a2.467,2.467,0,0,1-.83.634,2.168,2.168,0,0,0-.657.336c-.717.542-2.373,1.885-2.8,2.274a10.224,10.224,0,0,1-2.622,1.636c-.145-.042-.243.252-.209.631.006.066-.184.135-.422.153a1.4,1.4,0,0,0-.74.325,10.969,10.969,0,0,1-.886.711c-.318.231-.537.486-.487.568s-.11.163-.357.182a1.456,1.456,0,0,0-.821.455c-.607.688-1.571,1.224-1.943,1.081-.226-.087-.293-.044-.191.122s.059.193-.1.095a.587.587,0,0,1-.263-.425c0-.146-.529-.617-1.168-1.046a17.6,17.6,0,0,1-1.812-1.394,2.27,2.27,0,0,0-.965-.614c-.173,0-.252-.1-.177-.223s.025-.223-.114-.223a1.118,1.118,0,0,1-.589-.337c-.185-.185-.444-.27-.576-.188s-.175.043-.079-.111-.011-.323-.245-.41a2.477,2.477,0,0,1-.795-.59c-.214-.242-.39-.369-.39-.283s-.251-.114-.558-.445-.558-.529-.558-.441-.136.027-.3-.135-.644-.562-1.06-.889-1.057-.855-1.425-1.173a4.3,4.3,0,0,0-1.06-.7c-.215-.069-.39-.219-.39-.334a.221.221,0,0,0-.231-.208,1.74,1.74,0,0,1-.725-.448c-1.986-1.8-2.051-1.813-3.775-.7M172.374,50.79c-.356.356-.163,8.945.2,9.086.7.268,8.69.15,8.972-.133.344-.343.376-8.036.037-8.67-.234-.438-8.795-.7-9.213-.283m10.774.008c-.14,2.8.081,8.648.336,8.9.392.392,8.819.462,8.819.074,0-.13.1-.178.211-.106s.194-1.6.167-4.393l-.043-4.523-4.741-.067a32.084,32.084,0,0,0-4.749.112M172.332,61.8c-.29.469-.107,8.5.2,8.809.336.336,8.945.459,8.738.124-.066-.107.03-.251.214-.322.461-.177.482-7.847.023-8.452-.349-.46-8.9-.607-9.176-.159m10.958-.044c-.087.142-.2,7.179-.142,8.888.012.369,8.851.416,9.293.05.38-.316.465-8.8.085-8.567-.122.075-.223-.019-.223-.21,0-.388-8.776-.544-9.013-.161M56.6,150.5a5.256,5.256,0,0,1-1.584.109,3.389,3.389,0,0,0-1.584.194.85.85,0,0,1-.639.226,1.2,1.2,0,0,0-.731.231,2.028,2.028,0,0,1-.866.346c-.792.144-1.04.293-.891.534.064.1-.054.163-.262.133-.418-.062-1.68.951-1.516,1.216.056.092-.072.153-.285.136s-.361.1-.327.265-.033.237-.149.165c-.291-.18-.955.524-.772.819.081.132.05.179-.07.1-.231-.143-.967.588-.967.96a.222.222,0,0,1-.223.221c-.122,0-.223.15-.223.334s-.092.335-.2.335-.275.326-.361.725a4.237,4.237,0,0,1-.3.948c-.639,1.025-1.053,7.474-.479,7.474.124,0,.225.307.225.682s.087.629.194.562.251.224.319.644a5.513,5.513,0,0,0,1.3,2.351,1.765,1.765,0,0,1,.294.613c.086.276.226.5.311.5a2.366,2.366,0,0,1,.71.5c1.334,1.207,2.058,1.723,2.249,1.6.114-.07.266.029.34.221a.545.545,0,0,0,.448.349,2.918,2.918,0,0,1,1.43.716c.311.412,6.346.991,6.569.63a2.3,2.3,0,0,1,1.258-.231c.679,0,1.062-.086.98-.22s.009-.165.2-.091c.411.158,1.917-.312,1.917-.6,0-.113.2-.206.447-.206s.446-.1.446-.223.156-.223.347-.223c.207,0,.283-.1.189-.258s-.061-.2.1-.1a.5.5,0,0,0,.536-.069c1.422-1.145,1.935-1.656,1.831-1.824-.067-.109.01-.147.171-.085s.467-.209.716-.672c.233-.432.507-.785.611-.785a.223.223,0,0,0,.188-.244,2.346,2.346,0,0,1,.424-.841,8.952,8.952,0,0,0,1.2-4.38,7.175,7.175,0,0,1,.239-1.841c.1-.156.069-.279-.064-.279s-.236-.491-.236-1.155c0-1.2-.4-2.637-.727-2.637-.1,0-.129-.1-.052-.226.382-.618-3.126-5.128-3.988-5.128-.2,0-.364-.085-.364-.188a6.005,6.005,0,0,0-2.651-1.374c-.26,0-.472-.089-.472-.2,0-.271-1.173-.512-2.859-.586a5.62,5.62,0,0,1-1.543-.2.662.662,0,0,0-.8.006m80.535,0a4.809,4.809,0,0,1-1.607.1c-.913-.033-1.45.036-1.45.186,0,.131-.177.239-.394.239a8.191,8.191,0,0,0-2.961,1.13c-.084.135-.219.234-.3.219a1.182,1.182,0,0,0-.533.221c-.359.231-.358.24.017.122.234-.073.345-.034.265.1a.87.87,0,0,1-.646.221c-.49,0-1.333.7-2.644,2.2-.339.387-.54.7-.447.706s.068.077-.055.167a7.269,7.269,0,0,0-1.449,3.151c0,.382-.087.694-.195.694s-.21.427-.228.949-.057,1.374-.084,1.9.011.948.086.948.088.251.029.559a1.3,1.3,0,0,0,.2.935c.208.257.217.323.026.209-.153-.092-.279-.067-.279.055a.47.47,0,0,0,.209.353.6.6,0,0,1,.126.566.6.6,0,0,0,.125.566.74.74,0,0,1,.209.563c0,.238.1.433.223.433s.224.186.224.413a1.949,1.949,0,0,0,.534.99c.294.317.483.628.419.692s.023.252.191.421.633.68,1.034,1.137c.42.48.835.765.982.674s.194-.06.118.064c-.188.3,1.136,1.252,1.533,1.1.188-.072.32.013.32.205s.2.328.446.328.446.08.446.178c0,.294,1.473.734,1.9.569.261-.1.348-.069.25.089s.192.242.867.242a2.851,2.851,0,0,1,1.29.228c.321.266,3.274.312,3.274.051a3.381,3.381,0,0,1,1.463-.314c1.31-.122,3.222-.87,3.222-1.26,0-.074.213-.15.473-.17.622-.047,2.2-1.151,2.2-1.54a.232.232,0,0,1,.279-.248c.153.031.251-.077.217-.24s.034-.236.151-.164.435-.2.709-.6a7.753,7.753,0,0,1,.742-.952,4.349,4.349,0,0,0,1.025-2.1c0-.257.1-.468.223-.468s.223-.2.223-.433a.744.744,0,0,1,.224-.571,12.577,12.577,0,0,0,.223-3.359c0-2-.085-3.222-.223-3.222s-.224-.351-.224-.781c0-.537-.1-.78-.327-.78-.2,0-.278-.131-.2-.335.07-.184.02-.335-.112-.335s-.187-.137-.123-.305-.215-.664-.62-1.1a4.65,4.65,0,0,1-.8-1.065c-.2-.789-3.69-3.3-4.858-3.485a1.843,1.843,0,0,1-.895-.319.943.943,0,0,0-.664-.193c-.3,0-.544-.083-.544-.185s-.577-.2-1.283-.228a15.355,15.355,0,0,1-1.851-.157,1.066,1.066,0,0,0-.725.041m133.362.066a.934.934,0,0,1-.637.072,7.017,7.017,0,0,0-2.486.625c-.245.1-.656.242-.912.313-1.481.411-4.241,4.3-3.42,4.823.222.141.234.2.038.2-.366,0-.382,3.072-.02,3.948a2.556,2.556,0,0,1,.227.782c-.064.315,1.967,2.137,2.789,2.5.469.208,1.026.473,1.239.59a2.064,2.064,0,0,0,.837.212c.247,0,.449.1.449.223s.176.225.391.227a6.33,6.33,0,0,1,1.372.345,3.018,3.018,0,0,0,1.267.233.556.556,0,0,1,.551.213.922.922,0,0,0,.6.321c.512,0,2.067.94,2.067,1.249a.384.384,0,0,0,.227.351c.148.049.129.286-.052.669-.273.578-2.518,1.31-3.037.99a4.968,4.968,0,0,0-1.224-.165c-.575-.03-1.045-.122-1.045-.205s-.26-.122-.578-.087-.52.006-.449-.065c.153-.154-.9-.729-1.341-.729-.17,0-.31-.079-.31-.174a3.894,3.894,0,0,0-1.673-.815.241.241,0,0,1-.167-.3c.031-.148-.151-.269-.4-.269s-.4-.093-.331-.208c.216-.348-.287-.5-.784-.231-.306.164-.419.377-.327.617.077.2.069.295-.019.207-.224-.225-2.126,3.64-2.048,4.161a1.088,1.088,0,0,0,.511.674,2.3,2.3,0,0,1,.61.469c.09.123.165.142.167.044s.23.064.506.361a2.776,2.776,0,0,0,1.224.7,1.8,1.8,0,0,1,.85.364.754.754,0,0,0,.569.206,1.588,1.588,0,0,1,.89.416c.467.435,1.924.694,3.927.7a2.516,2.516,0,0,1,1.292.218c.133.216,1.26.183,1.9-.055a11.948,11.948,0,0,1,1.753-.253c1.338-.122,3.155-.864,3.155-1.288,0-.1.185-.182.41-.182.655,0,2.891-2.656,2.614-3.1-.066-.106.031-.316.213-.468,1.23-1.02-.509-7.583-2.009-7.583a1.723,1.723,0,0,1-.556-.39,5.937,5.937,0,0,0-1.5-.8c-.59-.223-1.246-.5-1.459-.613a2.369,2.369,0,0,0-.935-.207.935.935,0,0,1-.69-.229.434.434,0,0,0-.4-.188c-.289.045-.52-.032-2.536-.848-1.518-.615-2.292-1.442-1.849-1.975a.519.519,0,0,0,.136-.506c-.066-.108.025-.212.2-.233l.66-.074c.184-.021.334-.111.334-.2s.377-.075.837.032a9.182,9.182,0,0,0,1.673.2c.46,0,.837.1.837.228s.2.223.449.223c.45,0,.588.052,1.967.743a3.526,3.526,0,0,0,1.06.373c.174,0,.316.088.316.2,0,.315.926.469,1.375.229a.754.754,0,0,0,.41-.546c0-.18.1-.327.223-.327s.223-.251.223-.557.077-.558.17-.558a5.075,5.075,0,0,0,.945-2.009.224.224,0,0,1,.223-.222c.123,0,.224-.227.224-.5,0-.531-.76-1.166-1.125-.94-.118.072-.214-.008-.214-.179,0-.317-3.11-1.5-3.942-1.5a1.08,1.08,0,0,1-.642-.2c-.284-.269-2.332-.412-2.332-.163,0,.108-.125.1-.279-.022a6.487,6.487,0,0,0-3.179-.076m58.45.043a7.186,7.186,0,0,0-3.123.649,3.47,3.47,0,0,1-.95.321c-1.077.23-3.938,2.245-3.71,2.613.062.1-.119.274-.4.385a2.167,2.167,0,0,0-.85.7,8.157,8.157,0,0,1-.566.747,12.087,12.087,0,0,0-1.515,3.486c.07,0,.023.127-.106.281-.3.363-.24,6.369.067,6.588a1.026,1.026,0,0,1,.3.579,10.44,10.44,0,0,0,1.628,3.283c.226.2.362.406.3.466s.343.521.9,1.024,1.006.856,1.006.783.177.058.394.292a4.758,4.758,0,0,0,1.059.775c1.174.618,1.66.871,2.108,1.1a7.309,7.309,0,0,0,1.729.366,5.077,5.077,0,0,1,1.548.346c.6.467,5.725-.208,7.384-.972,2.077-.956,4.963-3.124,4.963-3.728a3.039,3.039,0,0,1,.67-.917,2.767,2.767,0,0,0,.67-.971,2.637,2.637,0,0,1,.286-.813,15.715,15.715,0,0,0,1-3.235c.327-1.5-.029-5.426-.509-5.61-.154-.059-.229-.3-.167-.54s0-.431-.136-.431-.249-.167-.249-.371c0-.726-1.1-2.3-1.51-2.165-.326.105-.334.087-.052-.114.355-.252-2.328-3.031-2.7-2.8-.093.058-.251-.023-.35-.179a3.481,3.481,0,0,0-2.108-.934c-.122.076-.352-.039-.51-.255a.6.6,0,0,0-.629-.263,1.057,1.057,0,0,1-.818-.2,2.878,2.878,0,0,0-1.657-.279,5.732,5.732,0,0,1-1.39-.046,10.119,10.119,0,0,0-1.993.05M18.963,162.834v12.248l2.993.03a9.94,9.94,0,0,0,3.136-.2.527.527,0,0,1,.409-.228c.16,0,.132.089-.069.219-.3.193-.3.217,0,.22s.325-.607.262-4.458l-.072-4.462h8.957v8.856l3.45.047,3.451.046.011-11.865c.008-9.253-.051-11.942-.272-12.214-.233-.288-.228-.316.031-.16.213.128.263.106.154-.069-.443-.718-6.883-.232-6.833.515,0,.066.008,2.18.008,4.7v4.578l-4.406-.06-4.406-.061v-9.928h-6.8v12.248m53.541.022v12.269h6.135l-.035-6.972c-.019-3.834.014-6.8.073-6.581s.2.39.313.39.207.193.207.428c0,.566.233,1.154.414,1.043.079-.049.166.22.193.6a1.557,1.557,0,0,0,.224.815,6.268,6.268,0,0,1,.921,1.857c.135.337.355.613.487.613s.174.109.091.243a2.056,2.056,0,0,0,.291,1.171c.242.511.73,1.581,1.084,2.379.816,1.835.715,1.777,3.129,1.781,1.93,0,2.058-.026,2.4-.554.216-.33.265-.558.121-.558s-.085-.159.109-.354a4.783,4.783,0,0,0,1.1-2.588c-.094-.152-.054-.188.1-.091.267.165.279.141.368-.728a1.085,1.085,0,0,1,.266-.669,4.139,4.139,0,0,0,.8-2.126c-.075-.075-.029-.137.1-.137s.344-.276.472-.613a9.9,9.9,0,0,1,.557-1.171,11.549,11.549,0,0,0,.553-1.116c.167-.4.236,1.313.246,6.191l.016,6.748h2.987c2.553,0,3.008-.052,3.127-.362.17-.442.166-23.384,0-23.826-.1-.251-.86-.319-3.789-.34L91.9,150.57l-.135.677c-.075.372-.21.677-.3.677a7.811,7.811,0,0,0-1.208,2.741.825.825,0,0,1-.245.558,2.207,2.207,0,0,0-.471.717,9.1,9.1,0,0,0-.978,2.61c0,.2-.066.3-.146.219-.167-.167-.747.861-.747,1.323,0,.17-.1.31-.223.31s-.2.075-.167.168a6.183,6.183,0,0,1-.968,2.286c-.083,0-.221.225-.306.5l-.154.5-.188-.557c-.1-.307-.6-1.386-1.1-2.4s-.911-1.9-.911-1.974a24.624,24.624,0,0,0-2.117-4.38c-.124-.09-.147-.166-.051-.167s.067-.207-.067-.456-.336-.394-.451-.323-.151-.023-.08-.208c.158-.413-.583-2.165-.848-2-.1.064-.176.034-.158-.067.123-.709-.04-.741-3.7-.741H72.5v12.27m30.834-12.005c-.362.361-.395,23.828-.034,23.828.13,0,.172.1.094.23-.1.156,2.984.209,9.636.167l9.777-.062.063-2.534c.086-3.45.711-3.155-6.672-3.155h-6.219v-3.569h5.6c4.971,0,5.587-.039,5.469-.347-.077-.2-.039-.288.087-.209.242.149.319-4.282.085-4.892-.118-.308-.83-.353-5.688-.353h-5.554v-3.562l6.191-.059,6.191-.06V150.7l-9.379-.058c-7.108-.044-9.444.007-9.648.212m47.3.509c-.041.581.059.856.39,1.062.245.153.446.361.446.461s-.1.121-.223.045-.223-.032-.223.1a.231.231,0,0,0,.223.237c.123,0,.223.251.223.557s.079.558.175.558.188.176.2.391a5.594,5.594,0,0,0,.842,2.5c.288.319.3.433.075.524s-.222.122-.013.135c.153.01.279.269.279.575s.086.558.192.558.146.239.09.532a.73.73,0,0,0,.143.682.906.906,0,0,1,.244.682.906.906,0,0,0,.223.67.9.9,0,0,1,.223.669.912.912,0,0,0,.2.653,2.06,2.06,0,0,1,.353.95,3.935,3.935,0,0,0,.455,1.255.951.951,0,0,1,.18.737c-.065.17-.007.309.129.309s.247.3.247.669.1.669.223.669.223.249.223.554a5.132,5.132,0,0,0,.308,1.394c.169.463.438,1.293.6,1.845a5.168,5.168,0,0,0,.473,1.216,1.066,1.066,0,0,1,.184.6,3.688,3.688,0,0,0,.391,1.177l.39.785,3.44,0a18.486,18.486,0,0,0,3.3-.133c-.076-.076.007-.284.186-.462a1.6,1.6,0,0,0,.324-.977c0-.359.089-.653.2-.653.2,0,.454-1.094.539-2.287.024-.338.115-.614.2-.614.234,0,.666-1.756.5-2.027-.079-.127.029-.423.241-.656a1.18,1.18,0,0,0,.278-.979c-.061-.317.009-.6.164-.658s.348-.538.444-1.07.223-1.168.284-1.414a6.346,6.346,0,0,0,.136-1c.044-.936,1.03-1.512,1.03-.6a1.231,1.231,0,0,0,.23.743,2.091,2.091,0,0,1,.3.992,9.952,9.952,0,0,0,.86,3.329c.094,0,.172.346.172.768a1.451,1.451,0,0,0,.194.887,2.2,2.2,0,0,1,.335,1,8.4,8.4,0,0,0,.4,1.511,2.866,2.866,0,0,1,.206,1.128c-.027.277.058.5.19.5s.239.346.239.768a1.391,1.391,0,0,0,.223.906.753.753,0,0,1,.223.576c0,.42.148.436,3.489.377,3.927-.069,3.614.084,4.229-2.069a7.439,7.439,0,0,1,.571-1.55,1.223,1.223,0,0,0,.188-.683,4.251,4.251,0,0,1,.42-1.35,8.969,8.969,0,0,0,.584-1.659,3.358,3.358,0,0,1,.35-1.015,2.606,2.606,0,0,0,.242-1.045c.03-.447.124-.769.208-.717a5.62,5.62,0,0,0,.768-2.243c.064-.289.629-1.9,1.209-3.455a7.253,7.253,0,0,0,.458-1.729c0-.277.1-.505.223-.505s.223-.3.223-.669.112-.669.249-.669.2-.2.133-.447-.037-.446.061-.446c.228,0,.43-.529.589-1.542a2.933,2.933,0,0,1,.344-1.065,1.445,1.445,0,0,0,.146-.893l-.072-.627-2.9-.064c-3.338-.074-3.9.014-3.9.608,0,.232-.092.456-.205.5s-.246.426-.3.855a7.2,7.2,0,0,1-.21,1.116,24.791,24.791,0,0,0-1.147,4.689,2.066,2.066,0,0,1-.227.613.555.555,0,0,0-.011.533c.1.159.061.2-.1.1-.224-.139-.389.593-.283,1.262.014.092-.074.167-.2.167s-.2.075-.181.167a5.216,5.216,0,0,1-.508,2.187,1.14,1.14,0,0,0-.2.769,1.117,1.117,0,0,1-.223.781.747.747,0,0,0-.223.571c0,1.518-.565-.263-1.049-3.3-.063-.4-.2-.725-.314-.725s-.2-.251-.2-.558-.1-.557-.223-.557-.224-.335-.224-.744a1.857,1.857,0,0,0-.167-.911.674.674,0,0,1-.184-.316,10.213,10.213,0,0,0-1.013-3.883,2.275,2.275,0,0,1-.2-.866,4.462,4.462,0,0,0-.684-2.2c-.092,0-.114-.2-.05-.446.176-.672-6.113-.693-6.72-.022-.251.277-.3.474-.146.571a.533.533,0,0,1,.234.412c0,.169-.076.151-.2-.051-.141-.223-.245.009-.35.781a12.709,12.709,0,0,1-.294,1.544,3.781,3.781,0,0,0-.159.669,2.309,2.309,0,0,1-.255.669,12.553,12.553,0,0,0-.608,2.008,24.652,24.652,0,0,1-1.017,3.682,3.188,3.188,0,0,0-.145,1.15c.013.448-.069.757-.182.687s-.144.034-.068.23.04.389-.078.429a2.45,2.45,0,0,0-.353,1.241,2.808,2.808,0,0,1-.275,1.168c-.242,0-.694-1.185-.694-1.814a1.083,1.083,0,0,0-.2-.734,2.563,2.563,0,0,1-.349-1.128c-.083-.554-.22-1.007-.3-1.007s-.183-.422-.218-.936a2.878,2.878,0,0,0-.325-1.249,1.563,1.563,0,0,1-.212-.946,1,1,0,0,0-.177-.772.877.877,0,0,1-.226-.655,12.035,12.035,0,0,0-.558-2.225,13.225,13.225,0,0,1-.557-2.1,1.048,1.048,0,0,0-.253-.647,1.361,1.361,0,0,1-.279-.77c-.026-.515-.038-.517-3.6-.577l-3.57-.061-.055.784m38.94-.507a.884.884,0,0,1,.264.5c0,.129-.095.089-.208-.088-.419-.663-.473.932-.41,12.258l.064,11.489,3.29.062,3.291.061.007-6.642.007-6.643.5.583c.272.321.7.865.941,1.208s.549.734.674.867.623.794,1.108,1.469a8.852,8.852,0,0,0,1.166,1.4.626.626,0,0,1,.287.459,3.118,3.118,0,0,0,.725,1.084,12.738,12.738,0,0,1,1.84,2.477.733.733,0,0,0,.682.437c.238-.027.308.007.153.075-.207.092-.159.294.185.777.255.359.546.6.645.541s.167.063.151.276.1.361.264.327.235.037.161.157.041.424.256.675c.631.737,6.2.7,6.4-.045.287-1.071.155-23.264-.141-23.668-.245-.336-.648-.377-3.179-.322l-2.9.063-.059,6.637c-.032,3.65-.133,6.634-.223,6.631a2.7,2.7,0,0,1-.722-.79c-.306-.431-.808-1.12-1.115-1.53s-.7-.954-.877-1.206-.417-.4-.537-.326-.153.031-.075-.094-.032-.435-.245-.686-.574-.714-.8-1.028-.522-.508-.648-.43-.162.032-.067-.121c.182-.295-1.058-2.114-1.286-1.886-.08.08-.146-.02-.146-.223,0-.488-.69-1.28-.967-1.109-.119.074-.151.026-.069-.1s0-.391-.189-.577a1.117,1.117,0,0,1-.337-.575c0-.132-.15-.239-.334-.239s-.323-.076-.308-.168c.066-.423-.078-.694-.782-1.462l-.755-.824h-2.971c-2.31,0-2.911.059-2.7.267m26.377.164c-.363.677-.316,23.438.048,23.443.188,0,.172.07-.05.211-.659.417.394.459,10.033.4l9.7-.058.064-2.43c.092-3.5.594-3.259-6.859-3.259h-6.032v-3.569h5.5a50.1,50.1,0,0,0,5.364-.138c-.076-.076.008-.284.186-.463.382-.381.458-3.7.107-4.627l-.218-.573H222.867v-3.569h5.979c4.352,0,6.051-.073,6.246-.268a16.4,16.4,0,0,0,.132-5.18c-.232-.6-18.94-.528-19.265.079m22.778-.134c-.19.228-.243,3.468-.2,12.221l.058,11.91,3.4.062,3.4.061v-6.481h1.878c2.17,0,2.584.111,2.584.693,0,.232.1.422.223.422s.223.177.223.394a5.275,5.275,0,0,0,.828,1.617,6.888,6.888,0,0,1,.9,1.67,1.214,1.214,0,0,0,.4.692c.18.134.256.316.169.4-.38.38.672.525,4.091.563l3.659.041v-.559a.988.988,0,0,0-.391-.786c-.214-.125-.309-.231-.21-.234.213-.008-.461-1.258-1.014-1.88a2.966,2.966,0,0,1-.526-.873c-.112-.352-.18-.377-.352-.128-.155.224-.178.18-.082-.162a.722.722,0,0,0-.209-.752.94.94,0,0,1-.339-.59c0-.169-.082-.307-.182-.307s-.4-.393-.674-.874l-.491-.875.676-.481c.372-.265.618-.574.548-.687s.007-.206.171-.206c.455,0,1.439-1.353,1.284-1.765-.018-.05.126-.181.321-.29a1.059,1.059,0,0,0,.354-.87c0-.369.089-.616.2-.549.3.183.478-1.544.365-3.442-.055-.92-.11-1.847-.122-2.059a.722.722,0,0,0-.232-.515.659.659,0,0,1-.211-.507,9,9,0,0,0-1.793-2.669.4.4,0,0,0-.483-.132c-.135.083-.183.051-.108-.071.175-.282-1.415-1.167-1.828-1.017-.189.068-.249.014-.154-.14s-.051-.252-.428-.252c-.321,0-.528-.09-.46-.2.357-.577-14.761-.968-15.237-.394m53.737,11.973.011,12.269h6.449l.059-6.732.059-6.732.622.94c.342.517.721.878.842.8s.206-.054.188.047c-.1.6.028.853.269.519.2-.279.219-.268.109.07-.089.276.245.877,1.056,1.9.653.821,1.379,1.793,1.613,2.161.561.881.9,1.227,1.21,1.227.139,0,.187.1.108.233-.19.309.327.918.624.734.13-.08.166-.036.081.1s.027.348.245.474.318.233.224.237c-.213.009.9,1.737,1.541,2.392.264.268.556.419.65.334s.109-.044.033.089c-.5.883.449,1.207,3.537,1.207h3V150.586h-2.967c-3.861,0-3.5-.73-3.506,7.127,0,6.9.012,6.8-.81,5.153a6.008,6.008,0,0,0-.79-.981,2.952,2.952,0,0,1-.628-.824,3.085,3.085,0,0,0-.613-.842c-.338-.372-1.052-1.286-1.587-2.031s-1.138-1.357-1.339-1.359c-.247,0-.28-.058-.1-.171.3-.188-2.3-3.774-2.654-3.669-.114.034-.134-.056-.045-.2a.413.413,0,0,0-.159-.507,5.733,5.733,0,0,1-.83-.97l-.509-.725h-6l.01,12.27m51.3-11.923a.543.543,0,0,0-.032.783,1.939,1.939,0,0,1,.265.861.743.743,0,0,0,.2.562,2.2,2.2,0,0,1,.354,1.016,2.191,2.191,0,0,0,.354,1.016.936.936,0,0,1,.2.67c0,.3.1.545.223.545s.223.295.223.656a1.144,1.144,0,0,0,.223.794.953.953,0,0,1,.223.7c0,.306.086.5.191.439s.146.119.091.407a.72.72,0,0,0,.143.676.756.756,0,0,1,.245.587,2.1,2.1,0,0,0,.2.823,14.061,14.061,0,0,1,.589,1.726,8.264,8.264,0,0,0,.576,1.584,1.959,1.959,0,0,1,.24.832c.027.322.17.632.318.688s.215.309.139.6c-.08.308-.043.442.1.354s.279.292.357.952a6.154,6.154,0,0,0,.365,1.556c.13.255.336.663.459.907a2.364,2.364,0,0,1,.223.892c0,.247.087.449.193.449s.252.427.325.948a6.7,6.7,0,0,0,.421,1.56l.288.612,3.322,0c3.583,0,3.9-.1,3.921-1.268a.853.853,0,0,1,.23-.627.933.933,0,0,0,.224-.685,2.475,2.475,0,0,1,.2-.935,16.019,16.019,0,0,0,.866-3.455c.055-.46.19-.837.3-.837s.2-.345.2-.767a1.367,1.367,0,0,1,.234-.912.55.55,0,0,0,.177-.516,1.648,1.648,0,0,1,.212-.855,4.533,4.533,0,0,0,.352-1.42,1.91,1.91,0,0,1,.352-1.1.581.581,0,0,0,.2-.565.44.44,0,0,1,.206-.5c.165-.058.279.092.279.367,0,.256.125.467.279.468.186,0,.168.077-.056.224s-.26.268-.083.387a2.906,2.906,0,0,1,.412,1.338c.108.8.242,1.122.417,1.017.142-.085.12.015-.048.223-.2.246-.219.377-.056.377.138,0,.25.282.25.627a2.085,2.085,0,0,0,.31,1.05.926.926,0,0,1,.194.727,1.2,1.2,0,0,0,.13.791,36.259,36.259,0,0,1,1.314,4.672,1.4,1.4,0,0,0,.309.738,1.147,1.147,0,0,1,.2.765v.644h3.542l3.542,0,.474-1.443a11.234,11.234,0,0,0,.474-1.774c0-.181.1-.33.223-.33s.223-.295.223-.656a1.144,1.144,0,0,1,.223-.794.9.9,0,0,0,.223-.664c0-.289.1-.559.215-.6s.259-.438.314-.881a4.362,4.362,0,0,1,.326-1.227,5.8,5.8,0,0,0,.8-2.814c-.089-.282-.057-.4.086-.31s.3-.173.384-.585a3.623,3.623,0,0,1,.313-.95c.139-.2.191-.485.288-1.608.013-.148.1-.22.2-.161s.241-.247.323-.682a1.923,1.923,0,0,1,.346-.911.941.941,0,0,0,.2-.667c0-.3.1-.545.223-.545s.223-.3.223-.656a1.144,1.144,0,0,1,.223-.794.9.9,0,0,0,.223-.669.907.907,0,0,1,.244-.682.723.723,0,0,0,.144-.676c-.055-.289-.035-.484.045-.435.321.2.967-2.6.649-2.809-.729-.47-6.77-.119-6.778.394a1.559,1.559,0,0,1-.3.833.791.791,0,0,0-.169.689.738.738,0,0,1-.223.68,1.189,1.189,0,0,0-.252,1.01c.053.364.03.661-.052.661a4.767,4.767,0,0,0-.666,2.313c0,.323-.1.588-.223.588s-.223.269-.223.6a8.485,8.485,0,0,1-.623,2.526,8.227,8.227,0,0,0-.382,1.673,2.988,2.988,0,0,1-.353,1.1,1.681,1.681,0,0,0-.211.893,2.13,2.13,0,0,1-.365,1.126c-.27.337-.326.354-.228.07.071-.206.019-.412-.114-.457s-.258-.327-.275-.628a10.033,10.033,0,0,0-.825-3.335c-.106,0-.194-.3-.194-.672a2.852,2.852,0,0,0-.2-1.06,16.284,16.284,0,0,1-.6-2.172,9.9,9.9,0,0,0-.583-2,1.37,1.37,0,0,1-.185-.739,2.45,2.45,0,0,0-.24-.976,4.588,4.588,0,0,1-.33-1.357c-.186-1.863-.37-1.958-3.8-1.958-1.933,0-2.971.079-2.883.22.077.125-.009.165-.2.093-.361-.138-1.03,1.685-1.03,2.806a1.53,1.53,0,0,1-.184.8,4.583,4.583,0,0,0-.623,2.288.209.209,0,0,1-.127.317c-.147.05-.274.5-.28,1s-.081.87-.165.818-.144.215-.133.591a1.548,1.548,0,0,1-.238.941,1.442,1.442,0,0,0-.258.868,1.055,1.055,0,0,1-.223.75.909.909,0,0,0-.223.669.906.906,0,0,1-.244.682c-.135.084-.205.491-.156.906s.007.754-.091.754-.178.31-.178.688c0,.684-.547.864-.564.187a9.592,9.592,0,0,0-.55-2.548,3.074,3.074,0,0,1-.285-1,11.7,11.7,0,0,0-.241-1.227c-.07-.245-.285-1.048-.479-1.784a17,17,0,0,0-.551-1.785,7.288,7.288,0,0,1-.339-1.5,2.615,2.615,0,0,0-.35-1.184,1.166,1.166,0,0,1-.21-.789,2.829,2.829,0,0,0-.2-1.047,7.75,7.75,0,0,1-.743-1.949c-.1-.621-6.6-.814-7.1-.21m-154.2,17.556c-.035,3.1-.063.563-.063-5.633s.028-8.732.063-5.633.035,8.167,0,11.266M58.561,156.59c.368.162.849.386,1.069.5a.762.762,0,0,0,.619.069c.121-.075.192-.036.158.086s.3.556.743.964a4.1,4.1,0,0,1,.963,1.246c.087.276.294.5.458.5.194,0,.255.165.176.469a.611.611,0,0,0,.148.637c.364.225.391,3.016.033,3.448a1.135,1.135,0,0,0-.23.731c.095.913,0,1.317-.233.962-.184-.285-.217-.277-.22.06,0,.672-2.174,2.576-3.215,2.822a17.1,17.1,0,0,1-3.857,0,6.758,6.758,0,0,1-2.356-1.652c-.226-.246-.558-.6-.736-.8a1.286,1.286,0,0,1-.324-.725c0-.2-.1-.371-.223-.371s-.223-.2-.223-.433a.74.74,0,0,0-.21-.563.623.623,0,0,1-.122-.583,2.244,2.244,0,0,0-.124-1.012c-.14-.368-.136-.511.01-.421.131.081.237-.211.257-.712.018-.467.045-.952.059-1.077.074-.645,2.517-3.454,3-3.454a.238.238,0,0,0,.249-.223c0-.122.231-.223.513-.223a1.233,1.233,0,0,0,.725-.208,2.524,2.524,0,0,1,1.1-.282,2.321,2.321,0,0,1,1.785.248m80.543.031a.515.515,0,0,0,.5.167,1.778,1.778,0,0,1,1.037.548c.372.34.8.571.951.513a.367.367,0,0,1,.427.143c.093.15.052.185-.1.088-.4-.248-.3.034.222.639.264.3.556.505.649.447s.144.071.112.286a1.4,1.4,0,0,0,.115.726c.68,1.316.936,3.6.457,4.077a1.257,1.257,0,0,0-.251.769,3.614,3.614,0,0,1-.566,1.414c-.311.493-.507.991-.435,1.108s-.024.153-.215.08-.346-.019-.346.121-.176.317-.39.394a6.024,6.024,0,0,0-1.033.587,8.207,8.207,0,0,1-4.309.5c-.222-.085-.453-.167-.514-.183a6.363,6.363,0,0,1-.654-.308,1.036,1.036,0,0,0-.759-.147c-.12.074-.155.032-.077-.093s-.259-.634-.747-1.132a3.3,3.3,0,0,1-.887-1.27c0-.2-.079-.316-.177-.256s-.192-.1-.211-.358a.89.89,0,0,0-.284-.619c-.364-.226-.416-3.313-.06-3.609.375-.31.381-.935.007-.71-.222.133-.223.1,0-.175.153-.188.206-.413.119-.5s.009-.094.215-.015c.275.106.413-.009.519-.433.08-.317.21-.538.288-.493s.445-.291.813-.748c1.083-1.347,5.034-2.448,5.585-1.557m112.318-.012c0,.123.144.223.32.223.428,0,1.364,1.343,1.28,1.837-.036.217.04.394.171.394s.237.2.237.446-.1.446-.223.446-.223.261-.223.579a2.222,2.222,0,0,1-.446,1.145c-.246.312-.448.479-.45.37s-.077-.1-.167.026a2.135,2.135,0,0,1-1.614.669c-.307-.016-1.537-.048-2.733-.07l-2.175-.042v-6.246h3.011c1.86,0,3.012.085,3.012.223m81.038.1c.429.179.859.254.955.167s.1-.033.015.12-.045.279.1.279a8.155,8.155,0,0,1,2.428,2.611c.161.343.365.775.454.959a5.931,5.931,0,0,1,.2,1.535,5.705,5.705,0,0,0,.16,1.4c.066.106.008.193-.13.193s-.2.086-.131.19a3.538,3.538,0,0,1-.562,1.818,4.448,4.448,0,0,0-.5.821,7.046,7.046,0,0,1-2.775,2.279c-.852.249-4.36.136-4.453-.144a.435.435,0,0,0-.386-.279,2.477,2.477,0,0,1-.977-.64c-.377-.352-.739-.586-.8-.521s-.12,0-.12-.152a3.476,3.476,0,0,0-.558-1.093,3.185,3.185,0,0,1-.557-1.314.839.839,0,0,0-.223-.63,4.571,4.571,0,0,1-.208-1.854c.011-1.166.077-1.573.208-1.27.171.4.193.384.207-.149.016-.622.675-1.966.964-1.969.092,0,.167-.152.167-.336a.342.342,0,0,1,.348-.334c.191,0,.286-.1.21-.223s-.024-.223.114-.223a1.08,1.08,0,0,0,.563-.279c.794-.712,1.008-.837,1.433-.837.25,0,.455-.1.455-.223,0-.342,2.522-.265,3.4.1m-299.833,9.21c-1.258.04-3.316.04-4.573,0s-.229-.072,2.286-.072,3.545.032,2.287.072m86.572,3.793c-1.618.038-4.329.038-6.023,0s-.371-.069,2.942-.069,4.7.031,3.081.069m112.66,0c-1.618.038-4.329.038-6.023,0s-.37-.069,2.943-.069,4.7.031,3.08.069" fill="#919191" fill-rule="evenodd"/>
    <path id="path2" d="M172.1,55.215c0,2.331.033,3.254.074,2.052s.04-3.11,0-4.239-.073-.145-.073,2.187m0,11.043c0,2.27.033,3.2.073,2.063s.041-2.992,0-4.127-.073-.206-.073,2.064M25.759,156.051l.008,4.462,4.35.007,4.35.007-4.289-.067-4.29-.068-.068-4.4-.068-4.4.007,4.461m163.748,6.805c0,6.2.028,8.731.063,5.633s.035-8.168,0-11.266-.063-.564-.063,5.633m-110.88,5.131c0,3.742.03,5.273.067,3.4s.038-4.933,0-6.805-.067-.34-.067,3.4m-50.573-2.065c1.257.04,3.315.04,4.573,0s.229-.072-2.287-.072-3.544.032-2.286.072m-2.306,4.407c0,2.331.034,3.255.074,2.052s.04-3.11,0-4.239-.073-.144-.073,2.187m87.428-.614c1.694.038,4.4.038,6.023,0s.232-.069-3.081-.069-4.637.031-2.942.069m112.66,0c1.694.038,4.4.038,6.023,0s.232-.069-3.08-.069-4.637.031-2.943.069" fill="#919191" fill-rule="evenodd"/>
    <path id="path3" d="M207.752,75.112a1.836,1.836,0,0,0,.781,0c.215-.056.039-.1-.39-.1s-.605.046-.391.1M328.037,195.873c0,2.638.032,3.717.071,2.4s.04-3.477,0-4.8-.071-.24-.071,2.4m-5.584,1.561c0,1.78.035,2.507.077,1.618s.043-2.345,0-3.235-.077-.162-.077,1.617m-169.774.893c0,1.534.036,2.161.08,1.394s.043-2.022,0-2.788-.08-.14-.08,1.394m-62.248-1.693c.017.294.107.488.2.431a.591.591,0,0,0-.032-.843c-.11-.068-.185.118-.167.412" fill="#919191" fill-rule="evenodd"/>
    <path id="path4" d="M182.984,55.252c-.05,4.04.017,4.759.447,4.759.144,0,.137-.108-.019-.3a19.622,19.622,0,0,1-.311-4.406l-.067-4.111-.05,4.053m.042,11.006c0,2.27.033,3.2.074,2.063s.04-2.992,0-4.127-.074-.206-.074,2.064m88.7,83.968c0,.183,1.365.275,1.473.1.064-.1-.242-.186-.679-.186a1.9,1.9,0,0,0-.794.087m-161.662,7.945c0,1.043.039,1.469.086.948a12.766,12.766,0,0,0,0-1.9c-.047-.522-.086-.1-.086.948m142.923,1.338c0,.246.094.446.209.446s.194-.2.176-.446-.113-.446-.21-.446-.175.2-.175.446M78.8,168.377c.047,6.4.122,5.672.23-2.231a26.329,26.329,0,0,0-.11-4.183,61.949,61.949,0,0,0-.12,6.414m71.791-5.466a2.131,2.131,0,0,0,.082.837c.193,0,.28-1.108.107-1.38-.118-.187-.187.01-.189.543m-80.363.168c-.054.368-.016.669.086.669s.184-.3.184-.669-.038-.67-.086-.67a1.534,1.534,0,0,0-.184.67m53.887-.32a.613.613,0,0,0,.118.6c.189.189.253.1.253-.349,0-.671-.167-.785-.371-.253m-14.052,4.781c0,1.043.039,1.47.086.949a12.779,12.779,0,0,0,0-1.9c-.047-.521-.086-.1-.086.948m170.159,5.217-.539.695.639-.606c.351-.334.593-.647.538-.7s-.342.224-.638.607m-9.166,2.592c0,.122.207.223.459.223s.4-.1.322-.223a.591.591,0,0,0-.459-.224c-.177,0-.322.1-.322.224M226.1,186.057c-.079.127.113.223.446.223s.524-.1.446-.223a.557.557,0,0,0-.892,0m107.727,9.481c0,1.6.036,2.219.079,1.385s.043-2.138,0-2.9-.078-.08-.078,1.515m-11.6,2.008c0,1.963.034,2.736.076,1.718s.041-2.624,0-3.569-.075-.112-.075,1.851m-49.244-2.417a2.448,2.448,0,0,0,.018,1.712c.092.057.17-.339.173-.879s0-.982-.018-.982a.837.837,0,0,0-.173.149" fill="#919191" fill-rule="evenodd"/>
  </g>
</svg>
